solid OpenSCAD_Model
  facet normal -0.900969 -0.433884 0
    outer loop
      vertex 6.9 -4.9 6.2
      vertex 6.14698 -3.33634 9.7
      vertex 6.14698 -3.33634 6.2
    endloop
  endfacet
  facet normal -0.900969 -0.433884 0
    outer loop
      vertex 6.14698 -3.33634 9.7
      vertex 6.9 -4.9 6.2
      vertex 6.9 -4.9 9.7
    endloop
  endfacet
  facet normal -0.900969 -0.433884 0
    outer loop
      vertex 6.9 -4.9 -5.6
      vertex 6.14698 -3.33634 2.5
      vertex 6.14698 -3.33634 -5.6
    endloop
  endfacet
  facet normal -0.900969 -0.433884 0
    outer loop
      vertex 6.14698 -3.33634 2.5
      vertex 6.9 -4.9 -5.6
      vertex 6.9 -4.9 2.5
    endloop
  endfacet
  facet normal 1 -0 0
    outer loop
      vertex 3.09806 -5.76777 9.7
      vertex 3.09806 -4.03223 6.2
      vertex 3.09806 -4.03223 9.7
    endloop
  endfacet
  facet normal 1 0 0
    outer loop
      vertex 3.09806 -4.03223 6.2
      vertex 3.09806 -5.76777 9.7
      vertex 3.09806 -5.76777 6.2
    endloop
  endfacet
  facet normal 1 -0 0
    outer loop
      vertex 3.09806 -5.76777 2.5
      vertex 3.09806 -4.03223 -5.6
      vertex 3.09806 -4.03223 2.5
    endloop
  endfacet
  facet normal 1 0 0
    outer loop
      vertex 3.09806 -4.03223 -5.6
      vertex 3.09806 -5.76777 2.5
      vertex 3.09806 -5.76777 -5.6
    endloop
  endfacet
  facet normal -0.222521 -0.974928 0
    outer loop
      vertex 4.45496 -2.95014 6.2
      vertex 6.14698 -3.33634 9.7
      vertex 4.45496 -2.95014 9.7
    endloop
  endfacet
  facet normal -0.222521 -0.974928 -0
    outer loop
      vertex 6.14698 -3.33634 9.7
      vertex 4.45496 -2.95014 6.2
      vertex 6.14698 -3.33634 6.2
    endloop
  endfacet
  facet normal -0.222521 -0.974928 0
    outer loop
      vertex 4.45496 -2.95014 -5.6
      vertex 6.14698 -3.33634 2.5
      vertex 4.45496 -2.95014 2.5
    endloop
  endfacet
  facet normal -0.222521 -0.974928 -0
    outer loop
      vertex 6.14698 -3.33634 2.5
      vertex 4.45496 -2.95014 -5.6
      vertex 6.14698 -3.33634 -5.6
    endloop
  endfacet
  facet normal 0.62349 -0.781831 0
    outer loop
      vertex 3.09806 -4.03223 6.2
      vertex 4.45496 -2.95014 9.7
      vertex 3.09806 -4.03223 9.7
    endloop
  endfacet
  facet normal 0.62349 -0.781831 0
    outer loop
      vertex 4.45496 -2.95014 9.7
      vertex 3.09806 -4.03223 6.2
      vertex 4.45496 -2.95014 6.2
    endloop
  endfacet
  facet normal 0.62349 -0.781831 0
    outer loop
      vertex 3.09806 -4.03223 -5.6
      vertex 4.45496 -2.95014 2.5
      vertex 3.09806 -4.03223 2.5
    endloop
  endfacet
  facet normal 0.62349 -0.781831 0
    outer loop
      vertex 4.45496 -2.95014 2.5
      vertex 3.09806 -4.03223 -5.6
      vertex 4.45496 -2.95014 -5.6
    endloop
  endfacet
  facet normal -0.900969 0.433884 0
    outer loop
      vertex 6.14698 -6.46366 6.2
      vertex 6.9 -4.9 9.7
      vertex 6.9 -4.9 6.2
    endloop
  endfacet
  facet normal -0.900969 0.433884 0
    outer loop
      vertex 6.9 -4.9 9.7
      vertex 6.14698 -6.46366 6.2
      vertex 6.14698 -6.46366 9.7
    endloop
  endfacet
  facet normal -0.900969 0.433884 0
    outer loop
      vertex 6.14698 -6.46366 -5.6
      vertex 6.9 -4.9 2.5
      vertex 6.9 -4.9 -5.6
    endloop
  endfacet
  facet normal -0.900969 0.433884 0
    outer loop
      vertex 6.9 -4.9 2.5
      vertex 6.14698 -6.46366 -5.6
      vertex 6.14698 -6.46366 2.5
    endloop
  endfacet
  facet normal 0.62349 0.781832 -0
    outer loop
      vertex 4.45496 -6.84986 6.2
      vertex 3.09806 -5.76777 9.7
      vertex 4.45496 -6.84986 9.7
    endloop
  endfacet
  facet normal 0.62349 0.781832 0
    outer loop
      vertex 3.09806 -5.76777 9.7
      vertex 4.45496 -6.84986 6.2
      vertex 3.09806 -5.76777 6.2
    endloop
  endfacet
  facet normal 0.62349 0.781832 -0
    outer loop
      vertex 4.45496 -6.84986 -5.6
      vertex 3.09806 -5.76777 2.5
      vertex 4.45496 -6.84986 2.5
    endloop
  endfacet
  facet normal 0.62349 0.781832 0
    outer loop
      vertex 3.09806 -5.76777 2.5
      vertex 4.45496 -6.84986 -5.6
      vertex 3.09806 -5.76777 -5.6
    endloop
  endfacet
  facet normal -0.222521 0.974928 0
    outer loop
      vertex 6.14698 -6.46366 6.2
      vertex 4.45496 -6.84986 9.7
      vertex 6.14698 -6.46366 9.7
    endloop
  endfacet
  facet normal -0.222521 0.974928 0
    outer loop
      vertex 4.45496 -6.84986 9.7
      vertex 6.14698 -6.46366 6.2
      vertex 4.45496 -6.84986 6.2
    endloop
  endfacet
  facet normal -0.222521 0.974928 0
    outer loop
      vertex 6.14698 -6.46366 -5.6
      vertex 4.45496 -6.84986 2.5
      vertex 6.14698 -6.46366 2.5
    endloop
  endfacet
  facet normal -0.222521 0.974928 0
    outer loop
      vertex 4.45496 -6.84986 2.5
      vertex 6.14698 -6.46366 -5.6
      vertex 4.45496 -6.84986 -5.6
    endloop
  endfacet
  facet normal -0.900969 -0.433884 0
    outer loop
      vertex 48.1 -4.9 6.2
      vertex 47.347 -3.33634 9.7
      vertex 47.347 -3.33634 6.2
    endloop
  endfacet
  facet normal -0.900969 -0.433884 0
    outer loop
      vertex 47.347 -3.33634 9.7
      vertex 48.1 -4.9 6.2
      vertex 48.1 -4.9 9.7
    endloop
  endfacet
  facet normal -0.900969 -0.433884 0
    outer loop
      vertex 48.1 -4.9 -5.6
      vertex 47.347 -3.33634 2.5
      vertex 47.347 -3.33634 -5.6
    endloop
  endfacet
  facet normal -0.900969 -0.433884 0
    outer loop
      vertex 47.347 -3.33634 2.5
      vertex 48.1 -4.9 -5.6
      vertex 48.1 -4.9 2.5
    endloop
  endfacet
  facet normal 1 -0 0
    outer loop
      vertex 44.2981 -5.76777 9.7
      vertex 44.2981 -4.03223 6.2
      vertex 44.2981 -4.03223 9.7
    endloop
  endfacet
  facet normal 1 0 0
    outer loop
      vertex 44.2981 -4.03223 6.2
      vertex 44.2981 -5.76777 9.7
      vertex 44.2981 -5.76777 6.2
    endloop
  endfacet
  facet normal 1 -0 0
    outer loop
      vertex 44.2981 -5.76777 2.5
      vertex 44.2981 -4.03223 -5.6
      vertex 44.2981 -4.03223 2.5
    endloop
  endfacet
  facet normal 1 0 0
    outer loop
      vertex 44.2981 -4.03223 -5.6
      vertex 44.2981 -5.76777 2.5
      vertex 44.2981 -5.76777 -5.6
    endloop
  endfacet
  facet normal -0.222521 -0.974928 0
    outer loop
      vertex 45.655 -2.95014 6.2
      vertex 47.347 -3.33634 9.7
      vertex 45.655 -2.95014 9.7
    endloop
  endfacet
  facet normal -0.222521 -0.974928 -0
    outer loop
      vertex 47.347 -3.33634 9.7
      vertex 45.655 -2.95014 6.2
      vertex 47.347 -3.33634 6.2
    endloop
  endfacet
  facet normal -0.222521 -0.974928 0
    outer loop
      vertex 45.655 -2.95014 -5.6
      vertex 47.347 -3.33634 2.5
      vertex 45.655 -2.95014 2.5
    endloop
  endfacet
  facet normal -0.222521 -0.974928 -0
    outer loop
      vertex 47.347 -3.33634 2.5
      vertex 45.655 -2.95014 -5.6
      vertex 47.347 -3.33634 -5.6
    endloop
  endfacet
  facet normal 0.62349 -0.781831 0
    outer loop
      vertex 44.2981 -4.03223 6.2
      vertex 45.655 -2.95014 9.7
      vertex 44.2981 -4.03223 9.7
    endloop
  endfacet
  facet normal 0.62349 -0.781831 0
    outer loop
      vertex 45.655 -2.95014 9.7
      vertex 44.2981 -4.03223 6.2
      vertex 45.655 -2.95014 6.2
    endloop
  endfacet
  facet normal 0.62349 -0.781831 0
    outer loop
      vertex 44.2981 -4.03223 -5.6
      vertex 45.655 -2.95014 2.5
      vertex 44.2981 -4.03223 2.5
    endloop
  endfacet
  facet normal 0.62349 -0.781831 0
    outer loop
      vertex 45.655 -2.95014 2.5
      vertex 44.2981 -4.03223 -5.6
      vertex 45.655 -2.95014 -5.6
    endloop
  endfacet
  facet normal -0.900969 0.433884 0
    outer loop
      vertex 47.347 -6.46366 6.2
      vertex 48.1 -4.9 9.7
      vertex 48.1 -4.9 6.2
    endloop
  endfacet
  facet normal -0.900969 0.433884 0
    outer loop
      vertex 48.1 -4.9 9.7
      vertex 47.347 -6.46366 6.2
      vertex 47.347 -6.46366 9.7
    endloop
  endfacet
  facet normal -0.900969 0.433884 0
    outer loop
      vertex 47.347 -6.46366 -5.6
      vertex 48.1 -4.9 2.5
      vertex 48.1 -4.9 -5.6
    endloop
  endfacet
  facet normal -0.900969 0.433884 0
    outer loop
      vertex 48.1 -4.9 2.5
      vertex 47.347 -6.46366 -5.6
      vertex 47.347 -6.46366 2.5
    endloop
  endfacet
  facet normal 0.62349 0.781831 -0
    outer loop
      vertex 45.655 -6.84986 6.2
      vertex 44.2981 -5.76777 9.7
      vertex 45.655 -6.84986 9.7
    endloop
  endfacet
  facet normal 0.62349 0.781831 0
    outer loop
      vertex 44.2981 -5.76777 9.7
      vertex 45.655 -6.84986 6.2
      vertex 44.2981 -5.76777 6.2
    endloop
  endfacet
  facet normal 0.62349 0.781831 -0
    outer loop
      vertex 45.655 -6.84986 -5.6
      vertex 44.2981 -5.76777 2.5
      vertex 45.655 -6.84986 2.5
    endloop
  endfacet
  facet normal 0.62349 0.781831 0
    outer loop
      vertex 44.2981 -5.76777 2.5
      vertex 45.655 -6.84986 -5.6
      vertex 44.2981 -5.76777 -5.6
    endloop
  endfacet
  facet normal -0.222521 0.974928 0
    outer loop
      vertex 47.347 -6.46366 6.2
      vertex 45.655 -6.84986 9.7
      vertex 47.347 -6.46366 9.7
    endloop
  endfacet
  facet normal -0.222521 0.974928 0
    outer loop
      vertex 45.655 -6.84986 9.7
      vertex 47.347 -6.46366 6.2
      vertex 45.655 -6.84986 6.2
    endloop
  endfacet
  facet normal -0.222521 0.974928 0
    outer loop
      vertex 47.347 -6.46366 -5.6
      vertex 45.655 -6.84986 2.5
      vertex 47.347 -6.46366 2.5
    endloop
  endfacet
  facet normal -0.222521 0.974928 0
    outer loop
      vertex 45.655 -6.84986 2.5
      vertex 47.347 -6.46366 -5.6
      vertex 45.655 -6.84986 -5.6
    endloop
  endfacet
  facet normal -1 0 0
    outer loop
      vertex -1 17.85 3.2
      vertex -1 34.5 0
      vertex -1 34.5 -5.6
    endloop
  endfacet
  facet normal -1 0 0
    outer loop
      vertex -1 34.5 0
      vertex -1 26.7 9.7
      vertex -1 34.5 9.7
    endloop
  endfacet
  facet normal -1 0 0
    outer loop
      vertex -1 34.5 0
      vertex -1 17.85 3.2
      vertex -1 26.7 9.7
    endloop
  endfacet
  facet normal -1 0 0
    outer loop
      vertex -1 -1 0
      vertex -1 17.85 3.2
      vertex -1 34.5 -5.6
    endloop
  endfacet
  facet normal -1 0 0
    outer loop
      vertex -1 -1 9.7
      vertex -1 7.85 3.2
      vertex -1 -1 0
    endloop
  endfacet
  facet normal -1 -0 0
    outer loop
      vertex -1 17.85 3.2
      vertex -1 -1 0
      vertex -1 7.85 3.2
    endloop
  endfacet
  facet normal -1 0 0
    outer loop
      vertex -1 -8.8 -5.6
      vertex -1 -1 0
      vertex -1 34.5 -5.6
    endloop
  endfacet
  facet normal -1 0 0
    outer loop
      vertex -1 -8.8 0
      vertex -1 -1 0
      vertex -1 -8.8 -5.6
    endloop
  endfacet
  facet normal -1 0 0
    outer loop
      vertex -1 -1 0
      vertex -1 -8.8 0
      vertex -1 -1 9.7
    endloop
  endfacet
  facet normal -1 0 0
    outer loop
      vertex -1 -8.8 0
      vertex -1 -8.8 9.7
      vertex -1 -1 9.7
    endloop
  endfacet
  facet normal -1 -0 0
    outer loop
      vertex -1 26.7 9.7
      vertex -1 17.85 3.2
      vertex -1 17.85 9.7
    endloop
  endfacet
  facet normal -1 0 0
    outer loop
      vertex -1 7.85 3.2
      vertex -1 -1 9.7
      vertex -1 7.85 9.7
    endloop
  endfacet
  facet normal 0 0 1
    outer loop
      vertex 9.8 -1 9.7
      vertex 6.9 -4.9 9.7
      vertex 9.8 -7.8 9.7
    endloop
  endfacet
  facet normal 0 0 1
    outer loop
      vertex 9.8 -1 9.7
      vertex 6.14698 -3.33634 9.7
      vertex 6.9 -4.9 9.7
    endloop
  endfacet
  facet normal 0 0 1
    outer loop
      vertex 9.8 -1 9.7
      vertex 4.45496 -2.95014 9.7
      vertex 6.14698 -3.33634 9.7
    endloop
  endfacet
  facet normal 0 0 1
    outer loop
      vertex 3.09806 -4.03223 9.7
      vertex -1 -1 9.7
      vertex 3.09806 -5.76777 9.7
    endloop
  endfacet
  facet normal 0 0 1
    outer loop
      vertex 4.45496 -2.95014 9.7
      vertex -1 -1 9.7
      vertex 3.09806 -4.03223 9.7
    endloop
  endfacet
  facet normal -0 0 1
    outer loop
      vertex -1 -1 9.7
      vertex 4.45496 -2.95014 9.7
      vertex 9.8 -1 9.7
    endloop
  endfacet
  facet normal 0 0 1
    outer loop
      vertex 52 -1 9.7
      vertex 48.1 -4.9 9.7
      vertex 52 -8.8 9.7
    endloop
  endfacet
  facet normal 0 0 1
    outer loop
      vertex 52 -1 9.7
      vertex 47.347 -3.33634 9.7
      vertex 48.1 -4.9 9.7
    endloop
  endfacet
  facet normal 0 0 1
    outer loop
      vertex 52 -1 9.7
      vertex 45.655 -2.95014 9.7
      vertex 47.347 -3.33634 9.7
    endloop
  endfacet
  facet normal 0 0 1
    outer loop
      vertex 41.2 -7.8 9.7
      vertex 44.2981 -4.03223 9.7
      vertex 41.2 -1 9.7
    endloop
  endfacet
  facet normal 0 0 1
    outer loop
      vertex 45.655 -2.95014 9.7
      vertex 41.2 -1 9.7
      vertex 44.2981 -4.03223 9.7
    endloop
  endfacet
  facet normal -0 0 1
    outer loop
      vertex 41.2 -1 9.7
      vertex 45.655 -2.95014 9.7
      vertex 52 -1 9.7
    endloop
  endfacet
  facet normal -0 0 1
    outer loop
      vertex 47.347 -6.46366 9.7
      vertex 52 -8.8 9.7
      vertex 48.1 -4.9 9.7
    endloop
  endfacet
  facet normal -0 0 1
    outer loop
      vertex 45.655 -6.84986 9.7
      vertex 52 -8.8 9.7
      vertex 47.347 -6.46366 9.7
    endloop
  endfacet
  facet normal 0 0 1
    outer loop
      vertex 44.2981 -4.03223 9.7
      vertex 41.2 -7.8 9.7
      vertex 44.2981 -5.76777 9.7
    endloop
  endfacet
  facet normal 0 0 1
    outer loop
      vertex 41.2 -7.8 9.7
      vertex 45.655 -6.84986 9.7
      vertex 44.2981 -5.76777 9.7
    endloop
  endfacet
  facet normal -0 0 1
    outer loop
      vertex 41.2 -7.8 9.7
      vertex 52 -8.8 9.7
      vertex 45.655 -6.84986 9.7
    endloop
  endfacet
  facet normal -0 0 1
    outer loop
      vertex 9.8 -7.8 9.7
      vertex 52 -8.8 9.7
      vertex 41.2 -7.8 9.7
    endloop
  endfacet
  facet normal -0 0 1
    outer loop
      vertex 6.14698 -6.46366 9.7
      vertex 9.8 -7.8 9.7
      vertex 6.9 -4.9 9.7
    endloop
  endfacet
  facet normal -0 0 1
    outer loop
      vertex 4.45496 -6.84986 9.7
      vertex 9.8 -7.8 9.7
      vertex 6.14698 -6.46366 9.7
    endloop
  endfacet
  facet normal 0 0 1
    outer loop
      vertex 9.8 -7.8 9.7
      vertex -1 -8.8 9.7
      vertex 52 -8.8 9.7
    endloop
  endfacet
  facet normal 0 0 1
    outer loop
      vertex 4.45496 -6.84986 9.7
      vertex -1 -8.8 9.7
      vertex 9.8 -7.8 9.7
    endloop
  endfacet
  facet normal 0 0 1
    outer loop
      vertex 3.09806 -5.76777 9.7
      vertex -1 -8.8 9.7
      vertex 4.45496 -6.84986 9.7
    endloop
  endfacet
  facet normal 0 0 1
    outer loop
      vertex -1 -8.8 9.7
      vertex 3.09806 -5.76777 9.7
      vertex -1 -1 9.7
    endloop
  endfacet
  facet normal 1 0 0
    outer loop
      vertex 52 -1 9.7
      vertex 52 -8.8 0
      vertex 52 -1 0
    endloop
  endfacet
  facet normal 1 -0 0
    outer loop
      vertex 52 -8.8 9.7
      vertex 52 -8.8 0
      vertex 52 -1 9.7
    endloop
  endfacet
  facet normal 1 0 0
    outer loop
      vertex 52 26.7 9.7
      vertex 52 7.85 1.5
      vertex 52 17.85 1.5
    endloop
  endfacet
  facet normal 1 0 0
    outer loop
      vertex 52 -1 0
      vertex 52 7.85 1.5
      vertex 52 -1 9.7
    endloop
  endfacet
  facet normal 1 -0 0
    outer loop
      vertex 52 -1 9.7
      vertex 52 7.85 1.5
      vertex 52 26.7 9.7
    endloop
  endfacet
  facet normal 1 -0 0
    outer loop
      vertex 52 26.7 9.7
      vertex 52 34.5 0
      vertex 52 34.5 9.7
    endloop
  endfacet
  facet normal 1 -0 0
    outer loop
      vertex 52 17.85 1.5
      vertex 52 34.5 0
      vertex 52 26.7 9.7
    endloop
  endfacet
  facet normal 1 0 0
    outer loop
      vertex 52 34.5 0
      vertex 52 17.85 1.5
      vertex 52 17.85 0
    endloop
  endfacet
  facet normal 1 0 0
    outer loop
      vertex 52 34.5 0
      vertex 52 17.85 0
      vertex 52 34.5 -5.6
    endloop
  endfacet
  facet normal 1 -0 0
    outer loop
      vertex 52 7.85 0
      vertex 52 34.5 -5.6
      vertex 52 17.85 0
    endloop
  endfacet
  facet normal 1 0 0
    outer loop
      vertex 52 7.85 1.5
      vertex 52 -1 0
      vertex 52 7.85 0
    endloop
  endfacet
  facet normal 1 0 0
    outer loop
      vertex 52 -8.8 -5.6
      vertex 52 7.85 0
      vertex 52 -1 0
    endloop
  endfacet
  facet normal 1 0 0
    outer loop
      vertex 52 -8.8 -5.6
      vertex 52 -1 0
      vertex 52 -8.8 0
    endloop
  endfacet
  facet normal 1 0 0
    outer loop
      vertex 52 7.85 0
      vertex 52 -8.8 -5.6
      vertex 52 34.5 -5.6
    endloop
  endfacet
  facet normal -0 0 1
    outer loop
      vertex 9.8 33.5 0
      vertex 17.65 26.7 0
      vertex 17.65 33.5 0
    endloop
  endfacet
  facet normal 0 0 1
    outer loop
      vertex 17.65 26.7 0
      vertex 9.8 33.5 0
      vertex 9.8 26.7 0
    endloop
  endfacet
  facet normal 0 0 1
    outer loop
      vertex 17.65 33.5 0
      vertex 32.65 33.5 0
      vertex 32.65 34.5 0
    endloop
  endfacet
  facet normal 0 0 1
    outer loop
      vertex 32.65 33.5 0
      vertex 17.65 33.5 0
      vertex 32.65 26.7 0
    endloop
  endfacet
  facet normal 0 0 1
    outer loop
      vertex 17.65 33.5 0
      vertex 32.65 34.5 0
      vertex 17.65 34.5 0
    endloop
  endfacet
  facet normal 0 0 1
    outer loop
      vertex 32.65 26.7 0
      vertex 17.65 33.5 0
      vertex 17.65 26.7 0
    endloop
  endfacet
  facet normal 0 0 1
    outer loop
      vertex 32.65 26.7 0
      vertex 17.65 26.7 0
      vertex 32.65 23.4 0
    endloop
  endfacet
  facet normal 0 0 1
    outer loop
      vertex 32.65 23.4 0
      vertex 17.65 26.7 0
      vertex 17.65 23.4 0
    endloop
  endfacet
  facet normal -0 0 1
    outer loop
      vertex 32.65 33.5 0
      vertex 41.2 26.7 0
      vertex 41.2 33.5 0
    endloop
  endfacet
  facet normal 0 0 1
    outer loop
      vertex 41.2 26.7 0
      vertex 32.65 33.5 0
      vertex 32.65 26.7 0
    endloop
  endfacet
  facet normal 0 0 0
    outer loop
      vertex 17.65 26.7 0
      vertex 9.8 26.7 0
      vertex -1 26.7 0
    endloop
  endfacet
  facet normal 0 0 0
    outer loop
      vertex 52 34.5 0
      vertex -1 34.5 0
      vertex 17.65 34.5 0
    endloop
  endfacet
  facet normal 0 0 0
    outer loop
      vertex 41.2 26.7 0
      vertex 32.65 26.7 0
      vertex 52 26.7 0
    endloop
  endfacet
  facet normal 0 0 0
    outer loop
      vertex 17.65 34.5 0
      vertex 32.65 34.5 0
      vertex 52 34.5 0
    endloop
  endfacet
  facet normal 0 0 1
    outer loop
      vertex 17.65 -1 0
      vertex 9.8 -1 0
      vertex 17.65 -7.8 0
    endloop
  endfacet
  facet normal -0 0 1
    outer loop
      vertex -1 -1 0
      vertex 9.8 -1 0
      vertex 17.65 -1 0
    endloop
  endfacet
  facet normal 0 0 1
    outer loop
      vertex 17.65 -1 0
      vertex 32.65 -1 0
      vertex 32.65 2.3 0
    endloop
  endfacet
  facet normal 0 0 1
    outer loop
      vertex 32.65 -1 0
      vertex 17.65 -1 0
      vertex 32.65 -7.8 0
    endloop
  endfacet
  facet normal 0 0 1
    outer loop
      vertex 17.65 -1 0
      vertex 32.65 2.3 0
      vertex 17.65 2.3 0
    endloop
  endfacet
  facet normal 0 0 1
    outer loop
      vertex 17.65 -7.8 0
      vertex 32.65 -7.8 0
      vertex 17.65 -1 0
    endloop
  endfacet
  facet normal 0 0 1
    outer loop
      vertex 32.65 -7.8 0
      vertex 17.65 -7.8 0
      vertex 32.65 -8.8 0
    endloop
  endfacet
  facet normal 0 0 1
    outer loop
      vertex 32.65 -8.8 0
      vertex 17.65 -7.8 0
      vertex 17.65 -8.8 0
    endloop
  endfacet
  facet normal -0 0 1
    outer loop
      vertex 32.65 -1 0
      vertex 41.2 -1 0
      vertex 52 -1 0
    endloop
  endfacet
  facet normal 0 0 1
    outer loop
      vertex 32.65 -1 0
      vertex 41.2 -7.8 0
      vertex 41.2 -1 0
    endloop
  endfacet
  facet normal 0 0 1
    outer loop
      vertex 41.2 -7.8 0
      vertex 32.65 -1 0
      vertex 32.65 -7.8 0
    endloop
  endfacet
  facet normal 0 0 1
    outer loop
      vertex 17.65 -7.8 0
      vertex 9.8 -1 0
      vertex 9.8 -7.8 0
    endloop
  endfacet
  facet normal -0 0 1
    outer loop
      vertex 50.3 17.85 0
      vertex 52 7.85 0
      vertex 52 17.85 0
    endloop
  endfacet
  facet normal 0 0 1
    outer loop
      vertex 52 7.85 0
      vertex 50.3 17.85 0
      vertex 50.3 7.85 0
    endloop
  endfacet
  facet normal 0 -1 0
    outer loop
      vertex 17.65 -8.8 1.5
      vertex 7.85 -8.8 6.2
      vertex 7.85 -8.8 2.5
    endloop
  endfacet
  facet normal 0 -1 0
    outer loop
      vertex 32.65 -8.8 1.5
      vertex 7.85 -8.8 6.2
      vertex 17.65 -8.8 1.5
    endloop
  endfacet
  facet normal 0 -1 0
    outer loop
      vertex 7.85 -8.8 6.2
      vertex -1 -8.8 9.7
      vertex 1.95 -8.8 6.2
    endloop
  endfacet
  facet normal 0 -1 0
    outer loop
      vertex -1 -8.8 0
      vertex 1.95 -8.8 6.2
      vertex -1 -8.8 9.7
    endloop
  endfacet
  facet normal 0 -1 0
    outer loop
      vertex -1 -8.8 0
      vertex 7.85 -8.8 2.5
      vertex 1.95 -8.8 2.5
    endloop
  endfacet
  facet normal 0 -1 0
    outer loop
      vertex 7.85 -8.8 6.2
      vertex 32.65 -8.8 1.5
      vertex 43.15 -8.8 6.2
    endloop
  endfacet
  facet normal 0 -1 -0
    outer loop
      vertex 43.15 -8.8 6.2
      vertex 32.65 -8.8 1.5
      vertex 43.15 -8.8 2.5
    endloop
  endfacet
  facet normal 0 -1 -0
    outer loop
      vertex 1.95 -8.8 6.2
      vertex -1 -8.8 0
      vertex 1.95 -8.8 2.5
    endloop
  endfacet
  facet normal 0 -1 -0
    outer loop
      vertex 7.85 -8.8 2.5
      vertex -1 -8.8 0
      vertex 17.65 -8.8 0
    endloop
  endfacet
  facet normal 0 -1 0
    outer loop
      vertex 7.85 -8.8 2.5
      vertex 17.65 -8.8 0
      vertex 17.65 -8.8 1.5
    endloop
  endfacet
  facet normal 0 -1 0
    outer loop
      vertex -1 -8.8 9.7
      vertex 7.85 -8.8 6.2
      vertex 52 -8.8 9.7
    endloop
  endfacet
  facet normal 0 -1 0
    outer loop
      vertex 43.15 -8.8 6.2
      vertex 52 -8.8 9.7
      vertex 7.85 -8.8 6.2
    endloop
  endfacet
  facet normal 0 -1 0
    outer loop
      vertex 49.05 -8.8 6.2
      vertex 52 -8.8 9.7
      vertex 43.15 -8.8 6.2
    endloop
  endfacet
  facet normal 0 -1 0
    outer loop
      vertex 52 -8.8 0
      vertex 49.05 -8.8 6.2
      vertex 49.05 -8.8 2.5
    endloop
  endfacet
  facet normal 0 -1 0
    outer loop
      vertex 32.65 -8.8 0
      vertex 43.15 -8.8 2.5
      vertex 32.65 -8.8 1.5
    endloop
  endfacet
  facet normal 0 -1 0
    outer loop
      vertex 52 -8.8 0
      vertex 43.15 -8.8 2.5
      vertex 32.65 -8.8 0
    endloop
  endfacet
  facet normal 0 -1 0
    outer loop
      vertex 49.05 -8.8 6.2
      vertex 52 -8.8 0
      vertex 52 -8.8 9.7
    endloop
  endfacet
  facet normal 0 -1 0
    outer loop
      vertex 43.15 -8.8 2.5
      vertex 52 -8.8 0
      vertex 49.05 -8.8 2.5
    endloop
  endfacet
  facet normal 0 1 0
    outer loop
      vertex 52 -1 9.7
      vertex 49.05 -1 6.2
      vertex 41.2 -1 9.7
    endloop
  endfacet
  facet normal 0 1 -0
    outer loop
      vertex 52 -1 0
      vertex 49.05 -1 6.2
      vertex 52 -1 9.7
    endloop
  endfacet
  facet normal 0 1 0
    outer loop
      vertex 41.2 -1 0
      vertex 49.05 -1 2.5
      vertex 52 -1 0
    endloop
  endfacet
  facet normal 0 1 0
    outer loop
      vertex 49.05 -1 6.2
      vertex 52 -1 0
      vertex 49.05 -1 2.5
    endloop
  endfacet
  facet normal 0 1 -0
    outer loop
      vertex 43.15 -1 6.2
      vertex 41.2 -1 9.7
      vertex 49.05 -1 6.2
    endloop
  endfacet
  facet normal 0 1 0
    outer loop
      vertex 41.2 -1 0
      vertex 43.15 -1 6.2
      vertex 43.15 -1 2.5
    endloop
  endfacet
  facet normal 0 1 0
    outer loop
      vertex 43.15 -1 6.2
      vertex 41.2 -1 0
      vertex 41.2 -1 9.7
    endloop
  endfacet
  facet normal 0 1 0
    outer loop
      vertex 49.05 -1 2.5
      vertex 41.2 -1 0
      vertex 43.15 -1 2.5
    endloop
  endfacet
  facet normal 0 1 0
    outer loop
      vertex 1.95 -1 6.2
      vertex 9.8 -1 9.7
      vertex 7.85 -1 6.2
    endloop
  endfacet
  facet normal 0 1 -0
    outer loop
      vertex 9.8 -1 0
      vertex 7.85 -1 6.2
      vertex 9.8 -1 9.7
    endloop
  endfacet
  facet normal 0 1 0
    outer loop
      vertex 7.85 -1 2.5
      vertex 9.8 -1 0
      vertex 1.95 -1 2.5
    endloop
  endfacet
  facet normal 0 1 0
    outer loop
      vertex 7.85 -1 6.2
      vertex 9.8 -1 0
      vertex 7.85 -1 2.5
    endloop
  endfacet
  facet normal 0 1 0
    outer loop
      vertex 9.8 -1 9.7
      vertex 1.95 -1 6.2
      vertex -1 -1 9.7
    endloop
  endfacet
  facet normal 0 1 0
    outer loop
      vertex -1 -1 0
      vertex 1.95 -1 6.2
      vertex 1.95 -1 2.5
    endloop
  endfacet
  facet normal 0 1 0
    outer loop
      vertex 1.95 -1 6.2
      vertex -1 -1 0
      vertex -1 -1 9.7
    endloop
  endfacet
  facet normal 0 1 0
    outer loop
      vertex -1 -1 0
      vertex 1.95 -1 2.5
      vertex 9.8 -1 0
    endloop
  endfacet
  facet normal 1 -0 0
    outer loop
      vertex 1.95 -8.8 6.2
      vertex 1.95 -1 2.5
      vertex 1.95 -1 6.2
    endloop
  endfacet
  facet normal 1 0 0
    outer loop
      vertex 1.95 -1 2.5
      vertex 1.95 -8.8 6.2
      vertex 1.95 -8.8 2.5
    endloop
  endfacet
  facet normal 0 0 -1
    outer loop
      vertex 7.85 -8.8 6.2
      vertex 6.9 -4.9 6.2
      vertex 7.85 -1 6.2
    endloop
  endfacet
  facet normal 0 0 -1
    outer loop
      vertex 7.85 -8.8 6.2
      vertex 6.14698 -6.46366 6.2
      vertex 6.9 -4.9 6.2
    endloop
  endfacet
  facet normal 0 0 -1
    outer loop
      vertex 7.85 -8.8 6.2
      vertex 4.45496 -6.84986 6.2
      vertex 6.14698 -6.46366 6.2
    endloop
  endfacet
  facet normal -0 0 -1
    outer loop
      vertex 3.09806 -5.76777 6.2
      vertex 1.95 -8.8 6.2
      vertex 3.09806 -4.03223 6.2
    endloop
  endfacet
  facet normal -0 0 -1
    outer loop
      vertex 4.45496 -6.84986 6.2
      vertex 1.95 -8.8 6.2
      vertex 3.09806 -5.76777 6.2
    endloop
  endfacet
  facet normal 0 0 -1
    outer loop
      vertex 1.95 -8.8 6.2
      vertex 4.45496 -6.84986 6.2
      vertex 7.85 -8.8 6.2
    endloop
  endfacet
  facet normal 0 0 -1
    outer loop
      vertex 6.14698 -3.33634 6.2
      vertex 7.85 -1 6.2
      vertex 6.9 -4.9 6.2
    endloop
  endfacet
  facet normal 0 0 -1
    outer loop
      vertex 4.45496 -2.95014 6.2
      vertex 7.85 -1 6.2
      vertex 6.14698 -3.33634 6.2
    endloop
  endfacet
  facet normal 0 0 -1
    outer loop
      vertex 4.45496 -2.95014 6.2
      vertex 1.95 -1 6.2
      vertex 7.85 -1 6.2
    endloop
  endfacet
  facet normal 0 0 -1
    outer loop
      vertex 3.09806 -4.03223 6.2
      vertex 1.95 -1 6.2
      vertex 4.45496 -2.95014 6.2
    endloop
  endfacet
  facet normal 0 0 -1
    outer loop
      vertex 1.95 -1 6.2
      vertex 3.09806 -4.03223 6.2
      vertex 1.95 -8.8 6.2
    endloop
  endfacet
  facet normal -1 0 0
    outer loop
      vertex 7.85 -8.8 2.5
      vertex 7.85 -1 6.2
      vertex 7.85 -1 2.5
    endloop
  endfacet
  facet normal -1 -0 0
    outer loop
      vertex 7.85 -1 6.2
      vertex 7.85 -8.8 2.5
      vertex 7.85 -8.8 6.2
    endloop
  endfacet
  facet normal 0 0 1
    outer loop
      vertex 7.85 -1 2.5
      vertex 6.9 -4.9 2.5
      vertex 7.85 -8.8 2.5
    endloop
  endfacet
  facet normal 0 0 1
    outer loop
      vertex 7.85 -1 2.5
      vertex 6.14698 -3.33634 2.5
      vertex 6.9 -4.9 2.5
    endloop
  endfacet
  facet normal 0 0 1
    outer loop
      vertex 7.85 -1 2.5
      vertex 4.45496 -2.95014 2.5
      vertex 6.14698 -3.33634 2.5
    endloop
  endfacet
  facet normal 0 0 1
    outer loop
      vertex 3.09806 -4.03223 2.5
      vertex 1.95 -1 2.5
      vertex 3.09806 -5.76777 2.5
    endloop
  endfacet
  facet normal 0 0 1
    outer loop
      vertex 4.45496 -2.95014 2.5
      vertex 1.95 -1 2.5
      vertex 3.09806 -4.03223 2.5
    endloop
  endfacet
  facet normal -0 0 1
    outer loop
      vertex 1.95 -1 2.5
      vertex 4.45496 -2.95014 2.5
      vertex 7.85 -1 2.5
    endloop
  endfacet
  facet normal -0 0 1
    outer loop
      vertex 6.14698 -6.46366 2.5
      vertex 7.85 -8.8 2.5
      vertex 6.9 -4.9 2.5
    endloop
  endfacet
  facet normal -0 0 1
    outer loop
      vertex 4.45496 -6.84986 2.5
      vertex 7.85 -8.8 2.5
      vertex 6.14698 -6.46366 2.5
    endloop
  endfacet
  facet normal 0 0 1
    outer loop
      vertex 4.45496 -6.84986 2.5
      vertex 1.95 -8.8 2.5
      vertex 7.85 -8.8 2.5
    endloop
  endfacet
  facet normal 0 0 1
    outer loop
      vertex 3.09806 -5.76777 2.5
      vertex 1.95 -8.8 2.5
      vertex 4.45496 -6.84986 2.5
    endloop
  endfacet
  facet normal 0 0 1
    outer loop
      vertex 1.95 -8.8 2.5
      vertex 3.09806 -5.76777 2.5
      vertex 1.95 -1 2.5
    endloop
  endfacet
  facet normal 1 -0 0
    outer loop
      vertex 43.15 -8.8 6.2
      vertex 43.15 -1 2.5
      vertex 43.15 -1 6.2
    endloop
  endfacet
  facet normal 1 0 0
    outer loop
      vertex 43.15 -1 2.5
      vertex 43.15 -8.8 6.2
      vertex 43.15 -8.8 2.5
    endloop
  endfacet
  facet normal 0 0 -1
    outer loop
      vertex 49.05 -8.8 6.2
      vertex 48.1 -4.9 6.2
      vertex 49.05 -1 6.2
    endloop
  endfacet
  facet normal 0 0 -1
    outer loop
      vertex 49.05 -8.8 6.2
      vertex 47.347 -6.46366 6.2
      vertex 48.1 -4.9 6.2
    endloop
  endfacet
  facet normal 0 0 -1
    outer loop
      vertex 49.05 -8.8 6.2
      vertex 45.655 -6.84986 6.2
      vertex 47.347 -6.46366 6.2
    endloop
  endfacet
  facet normal -0 0 -1
    outer loop
      vertex 44.2981 -5.76777 6.2
      vertex 43.15 -8.8 6.2
      vertex 44.2981 -4.03223 6.2
    endloop
  endfacet
  facet normal -0 0 -1
    outer loop
      vertex 45.655 -6.84986 6.2
      vertex 43.15 -8.8 6.2
      vertex 44.2981 -5.76777 6.2
    endloop
  endfacet
  facet normal 0 0 -1
    outer loop
      vertex 43.15 -8.8 6.2
      vertex 45.655 -6.84986 6.2
      vertex 49.05 -8.8 6.2
    endloop
  endfacet
  facet normal 0 0 -1
    outer loop
      vertex 47.347 -3.33634 6.2
      vertex 49.05 -1 6.2
      vertex 48.1 -4.9 6.2
    endloop
  endfacet
  facet normal 0 0 -1
    outer loop
      vertex 45.655 -2.95014 6.2
      vertex 49.05 -1 6.2
      vertex 47.347 -3.33634 6.2
    endloop
  endfacet
  facet normal 0 0 -1
    outer loop
      vertex 45.655 -2.95014 6.2
      vertex 43.15 -1 6.2
      vertex 49.05 -1 6.2
    endloop
  endfacet
  facet normal 0 0 -1
    outer loop
      vertex 44.2981 -4.03223 6.2
      vertex 43.15 -1 6.2
      vertex 45.655 -2.95014 6.2
    endloop
  endfacet
  facet normal 0 0 -1
    outer loop
      vertex 43.15 -1 6.2
      vertex 44.2981 -4.03223 6.2
      vertex 43.15 -8.8 6.2
    endloop
  endfacet
  facet normal -1 0 0
    outer loop
      vertex 49.05 -8.8 2.5
      vertex 49.05 -1 6.2
      vertex 49.05 -1 2.5
    endloop
  endfacet
  facet normal -1 -0 0
    outer loop
      vertex 49.05 -1 6.2
      vertex 49.05 -8.8 2.5
      vertex 49.05 -8.8 6.2
    endloop
  endfacet
  facet normal 0 0 1
    outer loop
      vertex 49.05 -1 2.5
      vertex 48.1 -4.9 2.5
      vertex 49.05 -8.8 2.5
    endloop
  endfacet
  facet normal 0 0 1
    outer loop
      vertex 49.05 -1 2.5
      vertex 47.347 -3.33634 2.5
      vertex 48.1 -4.9 2.5
    endloop
  endfacet
  facet normal 0 0 1
    outer loop
      vertex 49.05 -1 2.5
      vertex 45.655 -2.95014 2.5
      vertex 47.347 -3.33634 2.5
    endloop
  endfacet
  facet normal 0 0 1
    outer loop
      vertex 44.2981 -4.03223 2.5
      vertex 43.15 -1 2.5
      vertex 44.2981 -5.76777 2.5
    endloop
  endfacet
  facet normal 0 0 1
    outer loop
      vertex 45.655 -2.95014 2.5
      vertex 43.15 -1 2.5
      vertex 44.2981 -4.03223 2.5
    endloop
  endfacet
  facet normal -0 0 1
    outer loop
      vertex 43.15 -1 2.5
      vertex 45.655 -2.95014 2.5
      vertex 49.05 -1 2.5
    endloop
  endfacet
  facet normal -0 0 1
    outer loop
      vertex 47.347 -6.46366 2.5
      vertex 49.05 -8.8 2.5
      vertex 48.1 -4.9 2.5
    endloop
  endfacet
  facet normal -0 0 1
    outer loop
      vertex 45.655 -6.84986 2.5
      vertex 49.05 -8.8 2.5
      vertex 47.347 -6.46366 2.5
    endloop
  endfacet
  facet normal 0 0 1
    outer loop
      vertex 45.655 -6.84986 2.5
      vertex 43.15 -8.8 2.5
      vertex 49.05 -8.8 2.5
    endloop
  endfacet
  facet normal 0 0 1
    outer loop
      vertex 44.2981 -5.76777 2.5
      vertex 43.15 -8.8 2.5
      vertex 45.655 -6.84986 2.5
    endloop
  endfacet
  facet normal 0 0 1
    outer loop
      vertex 43.15 -8.8 2.5
      vertex 44.2981 -5.76777 2.5
      vertex 43.15 -1 2.5
    endloop
  endfacet
  facet normal 1 0 0
    outer loop
      vertex 17.65 -7.8 1.5
      vertex 17.65 -8.8 0
      vertex 17.65 -7.8 0
    endloop
  endfacet
  facet normal 1 -0 0
    outer loop
      vertex 17.65 -8.8 1.5
      vertex 17.65 -8.8 0
      vertex 17.65 -7.8 1.5
    endloop
  endfacet
  facet normal 0 0 -1
    outer loop
      vertex 17.65 -8.8 1.5
      vertex 32.65 -7.8 1.5
      vertex 32.65 -8.8 1.5
    endloop
  endfacet
  facet normal -0 0 -1
    outer loop
      vertex 32.65 -7.8 1.5
      vertex 17.65 -8.8 1.5
      vertex 17.65 -7.8 1.5
    endloop
  endfacet
  facet normal -1 0 0
    outer loop
      vertex 32.65 -8.8 0
      vertex 32.65 -7.8 1.5
      vertex 32.65 -7.8 0
    endloop
  endfacet
  facet normal -1 0 0
    outer loop
      vertex 32.65 -8.8 0
      vertex 32.65 -8.8 1.5
      vertex 32.65 -7.8 1.5
    endloop
  endfacet
  facet normal -0.900969 -0.433884 0
    outer loop
      vertex 6.9 30.6 6.2
      vertex 6.14698 32.1637 9.7
      vertex 6.14698 32.1637 6.2
    endloop
  endfacet
  facet normal -0.900969 -0.433884 0
    outer loop
      vertex 6.14698 32.1637 9.7
      vertex 6.9 30.6 6.2
      vertex 6.9 30.6 9.7
    endloop
  endfacet
  facet normal -0.900969 -0.433884 0
    outer loop
      vertex 6.9 30.6 -5.6
      vertex 6.14698 32.1637 2.5
      vertex 6.14698 32.1637 -5.6
    endloop
  endfacet
  facet normal -0.900969 -0.433884 0
    outer loop
      vertex 6.14698 32.1637 2.5
      vertex 6.9 30.6 -5.6
      vertex 6.9 30.6 2.5
    endloop
  endfacet
  facet normal 1 -0 0
    outer loop
      vertex 3.09806 29.7322 9.7
      vertex 3.09806 31.4678 6.2
      vertex 3.09806 31.4678 9.7
    endloop
  endfacet
  facet normal 1 0 0
    outer loop
      vertex 3.09806 31.4678 6.2
      vertex 3.09806 29.7322 9.7
      vertex 3.09806 29.7322 6.2
    endloop
  endfacet
  facet normal 1 -0 0
    outer loop
      vertex 3.09806 29.7322 2.5
      vertex 3.09806 31.4678 -5.6
      vertex 3.09806 31.4678 2.5
    endloop
  endfacet
  facet normal 1 0 0
    outer loop
      vertex 3.09806 31.4678 -5.6
      vertex 3.09806 29.7322 2.5
      vertex 3.09806 29.7322 -5.6
    endloop
  endfacet
  facet normal -0.222521 -0.974928 0
    outer loop
      vertex 4.45496 32.5499 6.2
      vertex 6.14698 32.1637 9.7
      vertex 4.45496 32.5499 9.7
    endloop
  endfacet
  facet normal -0.222521 -0.974928 -0
    outer loop
      vertex 6.14698 32.1637 9.7
      vertex 4.45496 32.5499 6.2
      vertex 6.14698 32.1637 6.2
    endloop
  endfacet
  facet normal -0.222521 -0.974928 0
    outer loop
      vertex 4.45496 32.5499 -5.6
      vertex 6.14698 32.1637 2.5
      vertex 4.45496 32.5499 2.5
    endloop
  endfacet
  facet normal -0.222521 -0.974928 -0
    outer loop
      vertex 6.14698 32.1637 2.5
      vertex 4.45496 32.5499 -5.6
      vertex 6.14698 32.1637 -5.6
    endloop
  endfacet
  facet normal 0.623489 -0.781832 0
    outer loop
      vertex 3.09806 31.4678 6.2
      vertex 4.45496 32.5499 9.7
      vertex 3.09806 31.4678 9.7
    endloop
  endfacet
  facet normal 0.623489 -0.781832 0
    outer loop
      vertex 4.45496 32.5499 9.7
      vertex 3.09806 31.4678 6.2
      vertex 4.45496 32.5499 6.2
    endloop
  endfacet
  facet normal 0.623489 -0.781832 0
    outer loop
      vertex 3.09806 31.4678 -5.6
      vertex 4.45496 32.5499 2.5
      vertex 3.09806 31.4678 2.5
    endloop
  endfacet
  facet normal 0.623489 -0.781832 0
    outer loop
      vertex 4.45496 32.5499 2.5
      vertex 3.09806 31.4678 -5.6
      vertex 4.45496 32.5499 -5.6
    endloop
  endfacet
  facet normal -0.900969 0.433884 0
    outer loop
      vertex 6.14698 29.0363 6.2
      vertex 6.9 30.6 9.7
      vertex 6.9 30.6 6.2
    endloop
  endfacet
  facet normal -0.900969 0.433884 0
    outer loop
      vertex 6.9 30.6 9.7
      vertex 6.14698 29.0363 6.2
      vertex 6.14698 29.0363 9.7
    endloop
  endfacet
  facet normal -0.900969 0.433884 0
    outer loop
      vertex 6.14698 29.0363 -5.6
      vertex 6.9 30.6 2.5
      vertex 6.9 30.6 -5.6
    endloop
  endfacet
  facet normal -0.900969 0.433884 0
    outer loop
      vertex 6.9 30.6 2.5
      vertex 6.14698 29.0363 -5.6
      vertex 6.14698 29.0363 2.5
    endloop
  endfacet
  facet normal 0.62349 0.781832 -0
    outer loop
      vertex 4.45496 28.6501 6.2
      vertex 3.09806 29.7322 9.7
      vertex 4.45496 28.6501 9.7
    endloop
  endfacet
  facet normal 0.62349 0.781832 0
    outer loop
      vertex 3.09806 29.7322 9.7
      vertex 4.45496 28.6501 6.2
      vertex 3.09806 29.7322 6.2
    endloop
  endfacet
  facet normal 0.62349 0.781832 -0
    outer loop
      vertex 4.45496 28.6501 -5.6
      vertex 3.09806 29.7322 2.5
      vertex 4.45496 28.6501 2.5
    endloop
  endfacet
  facet normal 0.62349 0.781832 0
    outer loop
      vertex 3.09806 29.7322 2.5
      vertex 4.45496 28.6501 -5.6
      vertex 3.09806 29.7322 -5.6
    endloop
  endfacet
  facet normal -0.222521 0.974928 0
    outer loop
      vertex 6.14698 29.0363 6.2
      vertex 4.45496 28.6501 9.7
      vertex 6.14698 29.0363 9.7
    endloop
  endfacet
  facet normal -0.222521 0.974928 0
    outer loop
      vertex 4.45496 28.6501 9.7
      vertex 6.14698 29.0363 6.2
      vertex 4.45496 28.6501 6.2
    endloop
  endfacet
  facet normal -0.222521 0.974928 0
    outer loop
      vertex 6.14698 29.0363 -5.6
      vertex 4.45496 28.6501 2.5
      vertex 6.14698 29.0363 2.5
    endloop
  endfacet
  facet normal -0.222521 0.974928 0
    outer loop
      vertex 4.45496 28.6501 2.5
      vertex 6.14698 29.0363 -5.6
      vertex 4.45496 28.6501 -5.6
    endloop
  endfacet
  facet normal -0.900969 -0.433884 0
    outer loop
      vertex 48.1 30.6 6.2
      vertex 47.347 32.1637 9.7
      vertex 47.347 32.1637 6.2
    endloop
  endfacet
  facet normal -0.900969 -0.433884 0
    outer loop
      vertex 47.347 32.1637 9.7
      vertex 48.1 30.6 6.2
      vertex 48.1 30.6 9.7
    endloop
  endfacet
  facet normal -0.900969 -0.433884 0
    outer loop
      vertex 48.1 30.6 -5.6
      vertex 47.347 32.1637 2.5
      vertex 47.347 32.1637 -5.6
    endloop
  endfacet
  facet normal -0.900969 -0.433884 0
    outer loop
      vertex 47.347 32.1637 2.5
      vertex 48.1 30.6 -5.6
      vertex 48.1 30.6 2.5
    endloop
  endfacet
  facet normal 1 -0 0
    outer loop
      vertex 44.2981 29.7322 9.7
      vertex 44.2981 31.4678 6.2
      vertex 44.2981 31.4678 9.7
    endloop
  endfacet
  facet normal 1 0 0
    outer loop
      vertex 44.2981 31.4678 6.2
      vertex 44.2981 29.7322 9.7
      vertex 44.2981 29.7322 6.2
    endloop
  endfacet
  facet normal 1 -0 0
    outer loop
      vertex 44.2981 29.7322 2.5
      vertex 44.2981 31.4678 -5.6
      vertex 44.2981 31.4678 2.5
    endloop
  endfacet
  facet normal 1 0 0
    outer loop
      vertex 44.2981 31.4678 -5.6
      vertex 44.2981 29.7322 2.5
      vertex 44.2981 29.7322 -5.6
    endloop
  endfacet
  facet normal -0.222521 -0.974928 0
    outer loop
      vertex 45.655 32.5499 6.2
      vertex 47.347 32.1637 9.7
      vertex 45.655 32.5499 9.7
    endloop
  endfacet
  facet normal -0.222521 -0.974928 -0
    outer loop
      vertex 47.347 32.1637 9.7
      vertex 45.655 32.5499 6.2
      vertex 47.347 32.1637 6.2
    endloop
  endfacet
  facet normal -0.222521 -0.974928 0
    outer loop
      vertex 45.655 32.5499 -5.6
      vertex 47.347 32.1637 2.5
      vertex 45.655 32.5499 2.5
    endloop
  endfacet
  facet normal -0.222521 -0.974928 -0
    outer loop
      vertex 47.347 32.1637 2.5
      vertex 45.655 32.5499 -5.6
      vertex 47.347 32.1637 -5.6
    endloop
  endfacet
  facet normal 0.623489 -0.781832 0
    outer loop
      vertex 44.2981 31.4678 6.2
      vertex 45.655 32.5499 9.7
      vertex 44.2981 31.4678 9.7
    endloop
  endfacet
  facet normal 0.623489 -0.781832 0
    outer loop
      vertex 45.655 32.5499 9.7
      vertex 44.2981 31.4678 6.2
      vertex 45.655 32.5499 6.2
    endloop
  endfacet
  facet normal 0.623489 -0.781832 0
    outer loop
      vertex 44.2981 31.4678 -5.6
      vertex 45.655 32.5499 2.5
      vertex 44.2981 31.4678 2.5
    endloop
  endfacet
  facet normal 0.623489 -0.781832 0
    outer loop
      vertex 45.655 32.5499 2.5
      vertex 44.2981 31.4678 -5.6
      vertex 45.655 32.5499 -5.6
    endloop
  endfacet
  facet normal -0.900969 0.433884 0
    outer loop
      vertex 47.347 29.0363 6.2
      vertex 48.1 30.6 9.7
      vertex 48.1 30.6 6.2
    endloop
  endfacet
  facet normal -0.900969 0.433884 0
    outer loop
      vertex 48.1 30.6 9.7
      vertex 47.347 29.0363 6.2
      vertex 47.347 29.0363 9.7
    endloop
  endfacet
  facet normal -0.900969 0.433884 0
    outer loop
      vertex 47.347 29.0363 -5.6
      vertex 48.1 30.6 2.5
      vertex 48.1 30.6 -5.6
    endloop
  endfacet
  facet normal -0.900969 0.433884 0
    outer loop
      vertex 48.1 30.6 2.5
      vertex 47.347 29.0363 -5.6
      vertex 47.347 29.0363 2.5
    endloop
  endfacet
  facet normal 0.62349 0.781831 -0
    outer loop
      vertex 45.655 28.6501 6.2
      vertex 44.2981 29.7322 9.7
      vertex 45.655 28.6501 9.7
    endloop
  endfacet
  facet normal 0.62349 0.781831 0
    outer loop
      vertex 44.2981 29.7322 9.7
      vertex 45.655 28.6501 6.2
      vertex 44.2981 29.7322 6.2
    endloop
  endfacet
  facet normal 0.62349 0.781831 -0
    outer loop
      vertex 45.655 28.6501 -5.6
      vertex 44.2981 29.7322 2.5
      vertex 45.655 28.6501 2.5
    endloop
  endfacet
  facet normal 0.62349 0.781831 0
    outer loop
      vertex 44.2981 29.7322 2.5
      vertex 45.655 28.6501 -5.6
      vertex 44.2981 29.7322 -5.6
    endloop
  endfacet
  facet normal -0.222521 0.974928 0
    outer loop
      vertex 47.347 29.0363 6.2
      vertex 45.655 28.6501 9.7
      vertex 47.347 29.0363 9.7
    endloop
  endfacet
  facet normal -0.222521 0.974928 0
    outer loop
      vertex 45.655 28.6501 9.7
      vertex 47.347 29.0363 6.2
      vertex 45.655 28.6501 6.2
    endloop
  endfacet
  facet normal -0.222521 0.974928 0
    outer loop
      vertex 47.347 29.0363 -5.6
      vertex 45.655 28.6501 2.5
      vertex 47.347 29.0363 2.5
    endloop
  endfacet
  facet normal -0.222521 0.974928 0
    outer loop
      vertex 45.655 28.6501 2.5
      vertex 47.347 29.0363 -5.6
      vertex 45.655 28.6501 -5.6
    endloop
  endfacet
  facet normal 0 0 1
    outer loop
      vertex 52 34.5 9.7
      vertex 48.1 30.6 9.7
      vertex 52 26.7 9.7
    endloop
  endfacet
  facet normal 0 0 1
    outer loop
      vertex 52 34.5 9.7
      vertex 47.347 32.1637 9.7
      vertex 48.1 30.6 9.7
    endloop
  endfacet
  facet normal 0 0 1
    outer loop
      vertex 52 34.5 9.7
      vertex 45.655 32.5499 9.7
      vertex 47.347 32.1637 9.7
    endloop
  endfacet
  facet normal 0 0 1
    outer loop
      vertex 44.2981 31.4678 9.7
      vertex 41.2 33.5 9.7
      vertex 44.2981 29.7322 9.7
    endloop
  endfacet
  facet normal 0 0 1
    outer loop
      vertex 45.655 32.5499 9.7
      vertex 41.2 33.5 9.7
      vertex 44.2981 31.4678 9.7
    endloop
  endfacet
  facet normal 0 0 1
    outer loop
      vertex 52 34.5 9.7
      vertex 41.2 33.5 9.7
      vertex 45.655 32.5499 9.7
    endloop
  endfacet
  facet normal 0 0 1
    outer loop
      vertex 52 34.5 9.7
      vertex 9.8 33.5 9.7
      vertex 41.2 33.5 9.7
    endloop
  endfacet
  facet normal 0 0 1
    outer loop
      vertex 9.8 33.5 9.7
      vertex 6.9 30.6 9.7
      vertex 9.8 26.7 9.7
    endloop
  endfacet
  facet normal 0 0 1
    outer loop
      vertex 9.8 33.5 9.7
      vertex 6.14698 32.1637 9.7
      vertex 6.9 30.6 9.7
    endloop
  endfacet
  facet normal 0 0 1
    outer loop
      vertex 9.8 33.5 9.7
      vertex 4.45496 32.5499 9.7
      vertex 6.14698 32.1637 9.7
    endloop
  endfacet
  facet normal 0 0 1
    outer loop
      vertex 3.09806 31.4678 9.7
      vertex -1 34.5 9.7
      vertex 3.09806 29.7322 9.7
    endloop
  endfacet
  facet normal 0 0 1
    outer loop
      vertex 4.45496 32.5499 9.7
      vertex -1 34.5 9.7
      vertex 3.09806 31.4678 9.7
    endloop
  endfacet
  facet normal 0 0 1
    outer loop
      vertex 9.8 33.5 9.7
      vertex -1 34.5 9.7
      vertex 4.45496 32.5499 9.7
    endloop
  endfacet
  facet normal -0 0 1
    outer loop
      vertex -1 34.5 9.7
      vertex 9.8 33.5 9.7
      vertex 52 34.5 9.7
    endloop
  endfacet
  facet normal -0 0 1
    outer loop
      vertex 47.347 29.0363 9.7
      vertex 52 26.7 9.7
      vertex 48.1 30.6 9.7
    endloop
  endfacet
  facet normal -0 0 1
    outer loop
      vertex 45.655 28.6501 9.7
      vertex 52 26.7 9.7
      vertex 47.347 29.0363 9.7
    endloop
  endfacet
  facet normal 0 0 1
    outer loop
      vertex 45.655 28.6501 9.7
      vertex 41.2 26.7 9.7
      vertex 52 26.7 9.7
    endloop
  endfacet
  facet normal 0 0 1
    outer loop
      vertex 44.2981 29.7322 9.7
      vertex 41.2 26.7 9.7
      vertex 45.655 28.6501 9.7
    endloop
  endfacet
  facet normal 0 0 1
    outer loop
      vertex 41.2 26.7 9.7
      vertex 44.2981 29.7322 9.7
      vertex 41.2 33.5 9.7
    endloop
  endfacet
  facet normal -0 0 1
    outer loop
      vertex 6.14698 29.0363 9.7
      vertex 9.8 26.7 9.7
      vertex 6.9 30.6 9.7
    endloop
  endfacet
  facet normal -0 0 1
    outer loop
      vertex 4.45496 28.6501 9.7
      vertex 9.8 26.7 9.7
      vertex 6.14698 29.0363 9.7
    endloop
  endfacet
  facet normal 0 0 1
    outer loop
      vertex 4.45496 28.6501 9.7
      vertex -1 26.7 9.7
      vertex 9.8 26.7 9.7
    endloop
  endfacet
  facet normal 0 0 1
    outer loop
      vertex 3.09806 29.7322 9.7
      vertex -1 26.7 9.7
      vertex 4.45496 28.6501 9.7
    endloop
  endfacet
  facet normal 0 0 1
    outer loop
      vertex -1 26.7 9.7
      vertex 3.09806 29.7322 9.7
      vertex -1 34.5 9.7
    endloop
  endfacet
  facet normal 0 -1 0
    outer loop
      vertex -1 26.7 9.7
      vertex 1.95 26.7 6.2
      vertex 9.8 26.7 9.7
    endloop
  endfacet
  facet normal 0 -1 0
    outer loop
      vertex -1 26.7 0
      vertex 1.95 26.7 6.2
      vertex -1 26.7 9.7
    endloop
  endfacet
  facet normal 0 -1 0
    outer loop
      vertex 9.8 26.7 0
      vertex 1.95 26.7 2.5
      vertex -1 26.7 0
    endloop
  endfacet
  facet normal 0 -1 -0
    outer loop
      vertex 1.95 26.7 6.2
      vertex -1 26.7 0
      vertex 1.95 26.7 2.5
    endloop
  endfacet
  facet normal 0 -1 0
    outer loop
      vertex 7.85 26.7 6.2
      vertex 9.8 26.7 9.7
      vertex 1.95 26.7 6.2
    endloop
  endfacet
  facet normal 0 -1 0
    outer loop
      vertex 9.8 26.7 0
      vertex 7.85 26.7 6.2
      vertex 7.85 26.7 2.5
    endloop
  endfacet
  facet normal 0 -1 0
    outer loop
      vertex 7.85 26.7 6.2
      vertex 9.8 26.7 0
      vertex 9.8 26.7 9.7
    endloop
  endfacet
  facet normal 0 -1 0
    outer loop
      vertex 1.95 26.7 2.5
      vertex 9.8 26.7 0
      vertex 7.85 26.7 2.5
    endloop
  endfacet
  facet normal 0 -1 0
    outer loop
      vertex 49.05 26.7 6.2
      vertex 41.2 26.7 9.7
      vertex 43.15 26.7 6.2
    endloop
  endfacet
  facet normal 0 -1 0
    outer loop
      vertex 41.2 26.7 0
      vertex 43.15 26.7 6.2
      vertex 41.2 26.7 9.7
    endloop
  endfacet
  facet normal 0 -1 -0
    outer loop
      vertex 43.15 26.7 2.5
      vertex 41.2 26.7 0
      vertex 49.05 26.7 2.5
    endloop
  endfacet
  facet normal 0 -1 -0
    outer loop
      vertex 43.15 26.7 6.2
      vertex 41.2 26.7 0
      vertex 43.15 26.7 2.5
    endloop
  endfacet
  facet normal 0 -1 0
    outer loop
      vertex 41.2 26.7 9.7
      vertex 49.05 26.7 6.2
      vertex 52 26.7 9.7
    endloop
  endfacet
  facet normal 0 -1 0
    outer loop
      vertex 52 26.7 0
      vertex 49.05 26.7 6.2
      vertex 49.05 26.7 2.5
    endloop
  endfacet
  facet normal 0 -1 0
    outer loop
      vertex 49.05 26.7 6.2
      vertex 52 26.7 0
      vertex 52 26.7 9.7
    endloop
  endfacet
  facet normal 0 -1 0
    outer loop
      vertex 52 26.7 0
      vertex 49.05 26.7 2.5
      vertex 41.2 26.7 0
    endloop
  endfacet
  facet normal 0 1 0
    outer loop
      vertex 32.65 34.5 1.5
      vertex 43.15 34.5 6.2
      vertex 43.15 34.5 2.5
    endloop
  endfacet
  facet normal 0 1 0
    outer loop
      vertex 43.15 34.5 6.2
      vertex 32.65 34.5 1.5
      vertex 7.85 34.5 6.2
    endloop
  endfacet
  facet normal 0 1 0
    outer loop
      vertex 43.15 34.5 6.2
      vertex 52 34.5 9.7
      vertex 49.05 34.5 6.2
    endloop
  endfacet
  facet normal 0 1 -0
    outer loop
      vertex 52 34.5 0
      vertex 49.05 34.5 6.2
      vertex 52 34.5 9.7
    endloop
  endfacet
  facet normal 0 1 0
    outer loop
      vertex 52 34.5 0
      vertex 43.15 34.5 2.5
      vertex 49.05 34.5 2.5
    endloop
  endfacet
  facet normal 0 1 -0
    outer loop
      vertex 17.65 34.5 1.5
      vertex 7.85 34.5 6.2
      vertex 32.65 34.5 1.5
    endloop
  endfacet
  facet normal 0 1 0
    outer loop
      vertex 7.85 34.5 6.2
      vertex 17.65 34.5 1.5
      vertex 7.85 34.5 2.5
    endloop
  endfacet
  facet normal 0 1 0
    outer loop
      vertex 49.05 34.5 6.2
      vertex 52 34.5 0
      vertex 49.05 34.5 2.5
    endloop
  endfacet
  facet normal 0 1 0
    outer loop
      vertex 43.15 34.5 2.5
      vertex 52 34.5 0
      vertex 32.65 34.5 0
    endloop
  endfacet
  facet normal 0 1 0
    outer loop
      vertex 43.15 34.5 2.5
      vertex 32.65 34.5 0
      vertex 32.65 34.5 1.5
    endloop
  endfacet
  facet normal 0 1 0
    outer loop
      vertex 52 34.5 9.7
      vertex 43.15 34.5 6.2
      vertex -1 34.5 9.7
    endloop
  endfacet
  facet normal 0 1 -0
    outer loop
      vertex 7.85 34.5 6.2
      vertex -1 34.5 9.7
      vertex 43.15 34.5 6.2
    endloop
  endfacet
  facet normal 0 1 -0
    outer loop
      vertex 1.95 34.5 6.2
      vertex -1 34.5 9.7
      vertex 7.85 34.5 6.2
    endloop
  endfacet
  facet normal 0 1 0
    outer loop
      vertex -1 34.5 0
      vertex 1.95 34.5 6.2
      vertex 1.95 34.5 2.5
    endloop
  endfacet
  facet normal 0 1 -0
    outer loop
      vertex 17.65 34.5 0
      vertex 7.85 34.5 2.5
      vertex 17.65 34.5 1.5
    endloop
  endfacet
  facet normal 0 1 0
    outer loop
      vertex -1 34.5 0
      vertex 7.85 34.5 2.5
      vertex 17.65 34.5 0
    endloop
  endfacet
  facet normal 0 1 0
    outer loop
      vertex 1.95 34.5 6.2
      vertex -1 34.5 0
      vertex -1 34.5 9.7
    endloop
  endfacet
  facet normal 0 1 0
    outer loop
      vertex 7.85 34.5 2.5
      vertex -1 34.5 0
      vertex 1.95 34.5 2.5
    endloop
  endfacet
  facet normal 1 -0 0
    outer loop
      vertex 1.95 26.7 6.2
      vertex 1.95 34.5 2.5
      vertex 1.95 34.5 6.2
    endloop
  endfacet
  facet normal 1 0 0
    outer loop
      vertex 1.95 34.5 2.5
      vertex 1.95 26.7 6.2
      vertex 1.95 26.7 2.5
    endloop
  endfacet
  facet normal 0 0 -1
    outer loop
      vertex 7.85 26.7 6.2
      vertex 6.9 30.6 6.2
      vertex 7.85 34.5 6.2
    endloop
  endfacet
  facet normal 0 0 -1
    outer loop
      vertex 7.85 26.7 6.2
      vertex 6.14698 29.0363 6.2
      vertex 6.9 30.6 6.2
    endloop
  endfacet
  facet normal 0 0 -1
    outer loop
      vertex 7.85 26.7 6.2
      vertex 4.45496 28.6501 6.2
      vertex 6.14698 29.0363 6.2
    endloop
  endfacet
  facet normal -0 0 -1
    outer loop
      vertex 3.09806 29.7322 6.2
      vertex 1.95 26.7 6.2
      vertex 3.09806 31.4678 6.2
    endloop
  endfacet
  facet normal -0 0 -1
    outer loop
      vertex 4.45496 28.6501 6.2
      vertex 1.95 26.7 6.2
      vertex 3.09806 29.7322 6.2
    endloop
  endfacet
  facet normal 0 0 -1
    outer loop
      vertex 1.95 26.7 6.2
      vertex 4.45496 28.6501 6.2
      vertex 7.85 26.7 6.2
    endloop
  endfacet
  facet normal 0 0 -1
    outer loop
      vertex 6.14698 32.1637 6.2
      vertex 7.85 34.5 6.2
      vertex 6.9 30.6 6.2
    endloop
  endfacet
  facet normal 0 0 -1
    outer loop
      vertex 4.45496 32.5499 6.2
      vertex 7.85 34.5 6.2
      vertex 6.14698 32.1637 6.2
    endloop
  endfacet
  facet normal 0 0 -1
    outer loop
      vertex 4.45496 32.5499 6.2
      vertex 1.95 34.5 6.2
      vertex 7.85 34.5 6.2
    endloop
  endfacet
  facet normal 0 0 -1
    outer loop
      vertex 3.09806 31.4678 6.2
      vertex 1.95 34.5 6.2
      vertex 4.45496 32.5499 6.2
    endloop
  endfacet
  facet normal 0 0 -1
    outer loop
      vertex 1.95 34.5 6.2
      vertex 3.09806 31.4678 6.2
      vertex 1.95 26.7 6.2
    endloop
  endfacet
  facet normal -1 0 0
    outer loop
      vertex 7.85 26.7 2.5
      vertex 7.85 34.5 6.2
      vertex 7.85 34.5 2.5
    endloop
  endfacet
  facet normal -1 -0 0
    outer loop
      vertex 7.85 34.5 6.2
      vertex 7.85 26.7 2.5
      vertex 7.85 26.7 6.2
    endloop
  endfacet
  facet normal 0 0 1
    outer loop
      vertex 7.85 34.5 2.5
      vertex 6.9 30.6 2.5
      vertex 7.85 26.7 2.5
    endloop
  endfacet
  facet normal 0 0 1
    outer loop
      vertex 7.85 34.5 2.5
      vertex 6.14698 32.1637 2.5
      vertex 6.9 30.6 2.5
    endloop
  endfacet
  facet normal 0 0 1
    outer loop
      vertex 7.85 34.5 2.5
      vertex 4.45496 32.5499 2.5
      vertex 6.14698 32.1637 2.5
    endloop
  endfacet
  facet normal 0 0 1
    outer loop
      vertex 3.09806 31.4678 2.5
      vertex 1.95 34.5 2.5
      vertex 3.09806 29.7322 2.5
    endloop
  endfacet
  facet normal 0 0 1
    outer loop
      vertex 4.45496 32.5499 2.5
      vertex 1.95 34.5 2.5
      vertex 3.09806 31.4678 2.5
    endloop
  endfacet
  facet normal -0 0 1
    outer loop
      vertex 1.95 34.5 2.5
      vertex 4.45496 32.5499 2.5
      vertex 7.85 34.5 2.5
    endloop
  endfacet
  facet normal -0 0 1
    outer loop
      vertex 6.14698 29.0363 2.5
      vertex 7.85 26.7 2.5
      vertex 6.9 30.6 2.5
    endloop
  endfacet
  facet normal -0 0 1
    outer loop
      vertex 4.45496 28.6501 2.5
      vertex 7.85 26.7 2.5
      vertex 6.14698 29.0363 2.5
    endloop
  endfacet
  facet normal 0 0 1
    outer loop
      vertex 4.45496 28.6501 2.5
      vertex 1.95 26.7 2.5
      vertex 7.85 26.7 2.5
    endloop
  endfacet
  facet normal 0 0 1
    outer loop
      vertex 3.09806 29.7322 2.5
      vertex 1.95 26.7 2.5
      vertex 4.45496 28.6501 2.5
    endloop
  endfacet
  facet normal 0 0 1
    outer loop
      vertex 1.95 26.7 2.5
      vertex 3.09806 29.7322 2.5
      vertex 1.95 34.5 2.5
    endloop
  endfacet
  facet normal 1 -0 0
    outer loop
      vertex 43.15 26.7 6.2
      vertex 43.15 34.5 2.5
      vertex 43.15 34.5 6.2
    endloop
  endfacet
  facet normal 1 0 0
    outer loop
      vertex 43.15 34.5 2.5
      vertex 43.15 26.7 6.2
      vertex 43.15 26.7 2.5
    endloop
  endfacet
  facet normal 0 0 -1
    outer loop
      vertex 49.05 26.7 6.2
      vertex 48.1 30.6 6.2
      vertex 49.05 34.5 6.2
    endloop
  endfacet
  facet normal 0 0 -1
    outer loop
      vertex 49.05 26.7 6.2
      vertex 47.347 29.0363 6.2
      vertex 48.1 30.6 6.2
    endloop
  endfacet
  facet normal 0 0 -1
    outer loop
      vertex 49.05 26.7 6.2
      vertex 45.655 28.6501 6.2
      vertex 47.347 29.0363 6.2
    endloop
  endfacet
  facet normal -0 0 -1
    outer loop
      vertex 44.2981 29.7322 6.2
      vertex 43.15 26.7 6.2
      vertex 44.2981 31.4678 6.2
    endloop
  endfacet
  facet normal -0 0 -1
    outer loop
      vertex 45.655 28.6501 6.2
      vertex 43.15 26.7 6.2
      vertex 44.2981 29.7322 6.2
    endloop
  endfacet
  facet normal 0 0 -1
    outer loop
      vertex 43.15 26.7 6.2
      vertex 45.655 28.6501 6.2
      vertex 49.05 26.7 6.2
    endloop
  endfacet
  facet normal 0 0 -1
    outer loop
      vertex 47.347 32.1637 6.2
      vertex 49.05 34.5 6.2
      vertex 48.1 30.6 6.2
    endloop
  endfacet
  facet normal 0 0 -1
    outer loop
      vertex 45.655 32.5499 6.2
      vertex 49.05 34.5 6.2
      vertex 47.347 32.1637 6.2
    endloop
  endfacet
  facet normal 0 0 -1
    outer loop
      vertex 45.655 32.5499 6.2
      vertex 43.15 34.5 6.2
      vertex 49.05 34.5 6.2
    endloop
  endfacet
  facet normal 0 0 -1
    outer loop
      vertex 44.2981 31.4678 6.2
      vertex 43.15 34.5 6.2
      vertex 45.655 32.5499 6.2
    endloop
  endfacet
  facet normal 0 0 -1
    outer loop
      vertex 43.15 34.5 6.2
      vertex 44.2981 31.4678 6.2
      vertex 43.15 26.7 6.2
    endloop
  endfacet
  facet normal -1 0 0
    outer loop
      vertex 49.05 26.7 2.5
      vertex 49.05 34.5 6.2
      vertex 49.05 34.5 2.5
    endloop
  endfacet
  facet normal -1 -0 0
    outer loop
      vertex 49.05 34.5 6.2
      vertex 49.05 26.7 2.5
      vertex 49.05 26.7 6.2
    endloop
  endfacet
  facet normal 0 0 1
    outer loop
      vertex 49.05 34.5 2.5
      vertex 48.1 30.6 2.5
      vertex 49.05 26.7 2.5
    endloop
  endfacet
  facet normal 0 0 1
    outer loop
      vertex 49.05 34.5 2.5
      vertex 47.347 32.1637 2.5
      vertex 48.1 30.6 2.5
    endloop
  endfacet
  facet normal 0 0 1
    outer loop
      vertex 49.05 34.5 2.5
      vertex 45.655 32.5499 2.5
      vertex 47.347 32.1637 2.5
    endloop
  endfacet
  facet normal 0 0 1
    outer loop
      vertex 44.2981 31.4678 2.5
      vertex 43.15 34.5 2.5
      vertex 44.2981 29.7322 2.5
    endloop
  endfacet
  facet normal 0 0 1
    outer loop
      vertex 45.655 32.5499 2.5
      vertex 43.15 34.5 2.5
      vertex 44.2981 31.4678 2.5
    endloop
  endfacet
  facet normal -0 0 1
    outer loop
      vertex 43.15 34.5 2.5
      vertex 45.655 32.5499 2.5
      vertex 49.05 34.5 2.5
    endloop
  endfacet
  facet normal -0 0 1
    outer loop
      vertex 47.347 29.0363 2.5
      vertex 49.05 26.7 2.5
      vertex 48.1 30.6 2.5
    endloop
  endfacet
  facet normal -0 0 1
    outer loop
      vertex 45.655 28.6501 2.5
      vertex 49.05 26.7 2.5
      vertex 47.347 29.0363 2.5
    endloop
  endfacet
  facet normal 0 0 1
    outer loop
      vertex 45.655 28.6501 2.5
      vertex 43.15 26.7 2.5
      vertex 49.05 26.7 2.5
    endloop
  endfacet
  facet normal 0 0 1
    outer loop
      vertex 44.2981 29.7322 2.5
      vertex 43.15 26.7 2.5
      vertex 45.655 28.6501 2.5
    endloop
  endfacet
  facet normal 0 0 1
    outer loop
      vertex 43.15 26.7 2.5
      vertex 44.2981 29.7322 2.5
      vertex 43.15 34.5 2.5
    endloop
  endfacet
  facet normal 1 -0 0
    outer loop
      vertex 17.65 33.5 1.5
      vertex 17.65 34.5 0
      vertex 17.65 34.5 1.5
    endloop
  endfacet
  facet normal 1 0 0
    outer loop
      vertex 17.65 34.5 0
      vertex 17.65 33.5 1.5
      vertex 17.65 33.5 0
    endloop
  endfacet
  facet normal 0 0 -1
    outer loop
      vertex 17.65 33.5 1.5
      vertex 32.65 34.5 1.5
      vertex 32.65 33.5 1.5
    endloop
  endfacet
  facet normal -0 0 -1
    outer loop
      vertex 32.65 34.5 1.5
      vertex 17.65 33.5 1.5
      vertex 17.65 34.5 1.5
    endloop
  endfacet
  facet normal -1 0 0
    outer loop
      vertex 32.65 33.5 0
      vertex 32.65 34.5 1.5
      vertex 32.65 34.5 0
    endloop
  endfacet
  facet normal -1 -0 0
    outer loop
      vertex 32.65 34.5 1.5
      vertex 32.65 33.5 0
      vertex 32.65 33.5 1.5
    endloop
  endfacet
  facet normal 0 1 -0
    outer loop
      vertex 52 34.5 -5.6
      vertex -1 34.5 0
      vertex 52 34.5 0
    endloop
  endfacet
  facet normal 0 1 0
    outer loop
      vertex -1 34.5 0
      vertex 52 34.5 -5.6
      vertex -1 34.5 -5.6
    endloop
  endfacet
  facet normal 0 0 -1
    outer loop
      vertex 6.14698 29.0363 -5.6
      vertex 44.2981 29.7322 -5.6
      vertex 6.14698 -3.33634 -5.6
    endloop
  endfacet
  facet normal -0 0 -1
    outer loop
      vertex 44.2981 29.7322 -5.6
      vertex 6.14698 29.0363 -5.6
      vertex 6.9 30.6 -5.6
    endloop
  endfacet
  facet normal 0 0 -1
    outer loop
      vertex 4.45496 -2.95014 -5.6
      vertex 6.14698 29.0363 -5.6
      vertex 6.14698 -3.33634 -5.6
    endloop
  endfacet
  facet normal 0 0 -1
    outer loop
      vertex 4.45496 -2.95014 -5.6
      vertex 4.45496 28.6501 -5.6
      vertex 6.14698 29.0363 -5.6
    endloop
  endfacet
  facet normal 0 0 -1
    outer loop
      vertex 3.09806 -4.03223 -5.6
      vertex 4.45496 28.6501 -5.6
      vertex 4.45496 -2.95014 -5.6
    endloop
  endfacet
  facet normal -0 0 -1
    outer loop
      vertex 4.45496 28.6501 -5.6
      vertex 3.09806 -4.03223 -5.6
      vertex 3.09806 29.7322 -5.6
    endloop
  endfacet
  facet normal 0 0 -1
    outer loop
      vertex 47.347 29.0363 -5.6
      vertex 52 34.5 -5.6
      vertex 47.347 -3.33634 -5.6
    endloop
  endfacet
  facet normal 0 0 -1
    outer loop
      vertex 52 34.5 -5.6
      vertex 47.347 29.0363 -5.6
      vertex 48.1 30.6 -5.6
    endloop
  endfacet
  facet normal 0 0 -1
    outer loop
      vertex 45.655 -2.95014 -5.6
      vertex 47.347 29.0363 -5.6
      vertex 47.347 -3.33634 -5.6
    endloop
  endfacet
  facet normal 0 0 -1
    outer loop
      vertex 45.655 -2.95014 -5.6
      vertex 45.655 28.6501 -5.6
      vertex 47.347 29.0363 -5.6
    endloop
  endfacet
  facet normal 0 0 -1
    outer loop
      vertex 44.2981 -4.03223 -5.6
      vertex 45.655 28.6501 -5.6
      vertex 45.655 -2.95014 -5.6
    endloop
  endfacet
  facet normal -0 0 -1
    outer loop
      vertex 45.655 28.6501 -5.6
      vertex 44.2981 -4.03223 -5.6
      vertex 44.2981 29.7322 -5.6
    endloop
  endfacet
  facet normal 0 0 -1
    outer loop
      vertex 47.347 -3.33634 -5.6
      vertex 52 -8.8 -5.6
      vertex 48.1 -4.9 -5.6
    endloop
  endfacet
  facet normal 0 0 -1
    outer loop
      vertex 52 -8.8 -5.6
      vertex 47.347 -6.46366 -5.6
      vertex 48.1 -4.9 -5.6
    endloop
  endfacet
  facet normal 0 0 -1
    outer loop
      vertex 52 -8.8 -5.6
      vertex 45.655 -6.84986 -5.6
      vertex 47.347 -6.46366 -5.6
    endloop
  endfacet
  facet normal 0 0 -1
    outer loop
      vertex 6.9 -4.9 -5.6
      vertex 44.2981 -4.03223 -5.6
      vertex 44.2981 -5.76777 -5.6
    endloop
  endfacet
  facet normal 0 0 -1
    outer loop
      vertex 6.14698 -3.33634 -5.6
      vertex 44.2981 -4.03223 -5.6
      vertex 6.9 -4.9 -5.6
    endloop
  endfacet
  facet normal 0 0 -1
    outer loop
      vertex 44.2981 -4.03223 -5.6
      vertex 6.14698 -3.33634 -5.6
      vertex 44.2981 29.7322 -5.6
    endloop
  endfacet
  facet normal 0 0 -1
    outer loop
      vertex 6.14698 -6.46366 -5.6
      vertex 44.2981 -5.76777 -5.6
      vertex 45.655 -6.84986 -5.6
    endloop
  endfacet
  facet normal 0 0 -1
    outer loop
      vertex -1 -8.8 -5.6
      vertex 45.655 -6.84986 -5.6
      vertex 52 -8.8 -5.6
    endloop
  endfacet
  facet normal -0 0 -1
    outer loop
      vertex 44.2981 -5.76777 -5.6
      vertex 6.14698 -6.46366 -5.6
      vertex 6.9 -4.9 -5.6
    endloop
  endfacet
  facet normal -0 0 -1
    outer loop
      vertex 45.655 -6.84986 -5.6
      vertex -1 -8.8 -5.6
      vertex 6.14698 -6.46366 -5.6
    endloop
  endfacet
  facet normal 0 0 -1
    outer loop
      vertex -1 -8.8 -5.6
      vertex 3.09806 -4.03223 -5.6
      vertex 3.09806 -5.76777 -5.6
    endloop
  endfacet
  facet normal -0 0 -1
    outer loop
      vertex 3.09806 -4.03223 -5.6
      vertex -1 -8.8 -5.6
      vertex 3.09806 29.7322 -5.6
    endloop
  endfacet
  facet normal 0 0 -1
    outer loop
      vertex -1 34.5 -5.6
      vertex 3.09806 29.7322 -5.6
      vertex -1 -8.8 -5.6
    endloop
  endfacet
  facet normal -0 0 -1
    outer loop
      vertex 4.45496 -6.84986 -5.6
      vertex -1 -8.8 -5.6
      vertex 3.09806 -5.76777 -5.6
    endloop
  endfacet
  facet normal 0 0 -1
    outer loop
      vertex 6.14698 -6.46366 -5.6
      vertex -1 -8.8 -5.6
      vertex 4.45496 -6.84986 -5.6
    endloop
  endfacet
  facet normal 0 0 -1
    outer loop
      vertex 52 -8.8 -5.6
      vertex 47.347 -3.33634 -5.6
      vertex 52 34.5 -5.6
    endloop
  endfacet
  facet normal 0 0 -1
    outer loop
      vertex 47.347 32.1637 -5.6
      vertex 52 34.5 -5.6
      vertex 48.1 30.6 -5.6
    endloop
  endfacet
  facet normal 0 0 -1
    outer loop
      vertex 45.655 32.5499 -5.6
      vertex 52 34.5 -5.6
      vertex 47.347 32.1637 -5.6
    endloop
  endfacet
  facet normal 0 0 -1
    outer loop
      vertex 44.2981 29.7322 -5.6
      vertex 6.9 30.6 -5.6
      vertex 44.2981 31.4678 -5.6
    endloop
  endfacet
  facet normal 0 0 -1
    outer loop
      vertex 6.14698 32.1637 -5.6
      vertex 44.2981 31.4678 -5.6
      vertex 6.9 30.6 -5.6
    endloop
  endfacet
  facet normal 0 0 -1
    outer loop
      vertex 44.2981 31.4678 -5.6
      vertex 6.14698 32.1637 -5.6
      vertex 45.655 32.5499 -5.6
    endloop
  endfacet
  facet normal 0 0 -1
    outer loop
      vertex -1 34.5 -5.6
      vertex 45.655 32.5499 -5.6
      vertex 6.14698 32.1637 -5.6
    endloop
  endfacet
  facet normal 0 0 -1
    outer loop
      vertex -1 34.5 -5.6
      vertex 6.14698 32.1637 -5.6
      vertex 4.45496 32.5499 -5.6
    endloop
  endfacet
  facet normal 0 0 -1
    outer loop
      vertex 45.655 32.5499 -5.6
      vertex -1 34.5 -5.6
      vertex 52 34.5 -5.6
    endloop
  endfacet
  facet normal 0 0 -1
    outer loop
      vertex 3.09806 31.4678 -5.6
      vertex -1 34.5 -5.6
      vertex 4.45496 32.5499 -5.6
    endloop
  endfacet
  facet normal 0 0 -1
    outer loop
      vertex 3.09806 29.7322 -5.6
      vertex -1 34.5 -5.6
      vertex 3.09806 31.4678 -5.6
    endloop
  endfacet
  facet normal 0 -1 0
    outer loop
      vertex -1 -8.8 -5.6
      vertex 17.65 -8.8 0
      vertex -1 -8.8 0
    endloop
  endfacet
  facet normal 0 -1 -0
    outer loop
      vertex 17.65 -8.8 0
      vertex -1 -8.8 -5.6
      vertex 32.65 -8.8 0
    endloop
  endfacet
  facet normal 0 -1 0
    outer loop
      vertex 52 -8.8 -5.6
      vertex 32.65 -8.8 0
      vertex -1 -8.8 -5.6
    endloop
  endfacet
  facet normal 0 -1 0
    outer loop
      vertex 32.65 -8.8 0
      vertex 52 -8.8 -5.6
      vertex 52 -8.8 0
    endloop
  endfacet
  facet normal 1 0 0
    outer loop
      vertex 0 7.85 9.7
      vertex 0 2.3 3.7
      vertex 0 7.85 3.2
    endloop
  endfacet
  facet normal 1 -0 0
    outer loop
      vertex 0 0 9.7
      vertex 0 2.3 3.7
      vertex 0 7.85 9.7
    endloop
  endfacet
  facet normal 1 0 0
    outer loop
      vertex 0 2.3 3.7
      vertex 0 0 9.7
      vertex 0 0 3.7
    endloop
  endfacet
  facet normal 1 0 0
    outer loop
      vertex 0 25.7 9.7
      vertex 0 23.4 3.7
      vertex 0 25.7 3.7
    endloop
  endfacet
  facet normal 1 -0 0
    outer loop
      vertex 0 17.85 9.7
      vertex 0 23.4 3.7
      vertex 0 25.7 9.7
    endloop
  endfacet
  facet normal 1 0 0
    outer loop
      vertex 0 17.85 3.2
      vertex 0 23.4 3.7
      vertex 0 17.85 9.7
    endloop
  endfacet
  facet normal 1 0 0
    outer loop
      vertex 0 23.4 3.7
      vertex 0 17.85 3.2
      vertex 0 23.4 -4.6
    endloop
  endfacet
  facet normal 1 -0 0
    outer loop
      vertex 0 7.85 3.2
      vertex 0 23.4 -4.6
      vertex 0 17.85 3.2
    endloop
  endfacet
  facet normal 1 0 0
    outer loop
      vertex 0 2.3 -4.6
      vertex 0 7.85 3.2
      vertex 0 2.3 3.7
    endloop
  endfacet
  facet normal 1 0 0
    outer loop
      vertex 0 7.85 3.2
      vertex 0 2.3 -4.6
      vertex 0 23.4 -4.6
    endloop
  endfacet
  facet normal -1 0 0
    outer loop
      vertex 50.3 23.4 -4.6
      vertex 50.3 17.85 0
      vertex 50.3 23.4 3.7
    endloop
  endfacet
  facet normal -1 0 0
    outer loop
      vertex 50.3 23.4 -4.6
      vertex 50.3 7.85 0
      vertex 50.3 17.85 0
    endloop
  endfacet
  facet normal -1 0 0
    outer loop
      vertex 50.3 2.3 3.7
      vertex 50.3 7.85 0
      vertex 50.3 2.3 -4.6
    endloop
  endfacet
  facet normal -1 0 0
    outer loop
      vertex 50.3 2.3 -4.6
      vertex 50.3 7.85 0
      vertex 50.3 23.4 -4.6
    endloop
  endfacet
  facet normal -1 0 0
    outer loop
      vertex 50.3 23.4 3.7
      vertex 50.3 25.7 9.7
      vertex 50.3 25.7 3.7
    endloop
  endfacet
  facet normal -1 0 0
    outer loop
      vertex 50.3 17.85 1.5
      vertex 50.3 23.4 3.7
      vertex 50.3 17.85 0
    endloop
  endfacet
  facet normal -1 -0 0
    outer loop
      vertex 50.3 23.4 3.7
      vertex 50.3 17.85 1.5
      vertex 50.3 25.7 9.7
    endloop
  endfacet
  facet normal -1 0 0
    outer loop
      vertex 50.3 7.85 1.5
      vertex 50.3 25.7 9.7
      vertex 50.3 17.85 1.5
    endloop
  endfacet
  facet normal -1 0 0
    outer loop
      vertex 50.3 7.85 0
      vertex 50.3 2.3 3.7
      vertex 50.3 7.85 1.5
    endloop
  endfacet
  facet normal -1 0 0
    outer loop
      vertex 50.3 0 9.7
      vertex 50.3 7.85 1.5
      vertex 50.3 2.3 3.7
    endloop
  endfacet
  facet normal -1 0 0
    outer loop
      vertex 50.3 0 9.7
      vertex 50.3 2.3 3.7
      vertex 50.3 0 3.7
    endloop
  endfacet
  facet normal -1 0 0
    outer loop
      vertex 50.3 7.85 1.5
      vertex 50.3 0 9.7
      vertex 50.3 25.7 9.7
    endloop
  endfacet
  facet normal 0 -1 0
    outer loop
      vertex 0 23.4 3.7
      vertex 17.65 23.4 0
      vertex 17.65 23.4 3.7
    endloop
  endfacet
  facet normal 0 -1 -0
    outer loop
      vertex 17.65 23.4 0
      vertex 0 23.4 -4.6
      vertex 32.65 23.4 0
    endloop
  endfacet
  facet normal 0 -1 0
    outer loop
      vertex 0 23.4 -4.6
      vertex 17.65 23.4 0
      vertex 0 23.4 3.7
    endloop
  endfacet
  facet normal 0 -1 0
    outer loop
      vertex 32.65 23.4 0
      vertex 50.3 23.4 3.7
      vertex 32.65 23.4 3.7
    endloop
  endfacet
  facet normal 0 -1 0
    outer loop
      vertex 32.65 23.4 0
      vertex 50.3 23.4 -4.6
      vertex 50.3 23.4 3.7
    endloop
  endfacet
  facet normal 0 -1 0
    outer loop
      vertex 50.3 23.4 -4.6
      vertex 32.65 23.4 0
      vertex 0 23.4 -4.6
    endloop
  endfacet
  facet normal -0 0 1
    outer loop
      vertex 0 23.4 -4.6
      vertex 50.3 2.3 -4.6
      vertex 50.3 23.4 -4.6
    endloop
  endfacet
  facet normal 0 0 1
    outer loop
      vertex 50.3 2.3 -4.6
      vertex 0 23.4 -4.6
      vertex 0 2.3 -4.6
    endloop
  endfacet
  facet normal 0 1 0
    outer loop
      vertex 50.3 2.3 3.7
      vertex 32.65 2.3 0
      vertex 32.65 2.3 3.7
    endloop
  endfacet
  facet normal 0 1 0
    outer loop
      vertex 32.65 2.3 0
      vertex 50.3 2.3 -4.6
      vertex 17.65 2.3 0
    endloop
  endfacet
  facet normal 0 1 -0
    outer loop
      vertex 50.3 2.3 -4.6
      vertex 32.65 2.3 0
      vertex 50.3 2.3 3.7
    endloop
  endfacet
  facet normal 0 1 -0
    outer loop
      vertex 17.65 2.3 0
      vertex 0 2.3 3.7
      vertex 17.65 2.3 3.7
    endloop
  endfacet
  facet normal 0 1 0
    outer loop
      vertex 17.65 2.3 0
      vertex 0 2.3 -4.6
      vertex 0 2.3 3.7
    endloop
  endfacet
  facet normal 0 1 0
    outer loop
      vertex 0 2.3 -4.6
      vertex 17.65 2.3 0
      vertex 50.3 2.3 -4.6
    endloop
  endfacet
  facet normal 1 -0 0
    outer loop
      vertex 9.8 26.7 9.7
      vertex 9.8 33.5 0
      vertex 9.8 33.5 9.7
    endloop
  endfacet
  facet normal 1 0 0
    outer loop
      vertex 9.8 33.5 0
      vertex 9.8 26.7 9.7
      vertex 9.8 26.7 0
    endloop
  endfacet
  facet normal 1 -0 0
    outer loop
      vertex 9.8 -7.8 9.7
      vertex 9.8 -1 0
      vertex 9.8 -1 9.7
    endloop
  endfacet
  facet normal 1 0 0
    outer loop
      vertex 9.8 -1 0
      vertex 9.8 -7.8 9.7
      vertex 9.8 -7.8 0
    endloop
  endfacet
  facet normal -1 0 0
    outer loop
      vertex 41.2 26.7 0
      vertex 41.2 33.5 9.7
      vertex 41.2 33.5 0
    endloop
  endfacet
  facet normal -1 -0 0
    outer loop
      vertex 41.2 33.5 9.7
      vertex 41.2 26.7 0
      vertex 41.2 26.7 9.7
    endloop
  endfacet
  facet normal -1 0 0
    outer loop
      vertex 41.2 -7.8 0
      vertex 41.2 -1 9.7
      vertex 41.2 -1 0
    endloop
  endfacet
  facet normal -1 -0 0
    outer loop
      vertex 41.2 -1 9.7
      vertex 41.2 -7.8 0
      vertex 41.2 -7.8 9.7
    endloop
  endfacet
  facet normal 0 -1 0
    outer loop
      vertex 32.65 33.5 1.5
      vertex 9.8 33.5 9.7
      vertex 17.65 33.5 1.5
    endloop
  endfacet
  facet normal 0 -1 0
    outer loop
      vertex 9.8 33.5 0
      vertex 17.65 33.5 1.5
      vertex 9.8 33.5 9.7
    endloop
  endfacet
  facet normal 0 -1 -0
    outer loop
      vertex 17.65 33.5 1.5
      vertex 9.8 33.5 0
      vertex 17.65 33.5 0
    endloop
  endfacet
  facet normal 0 -1 0
    outer loop
      vertex 9.8 33.5 9.7
      vertex 32.65 33.5 1.5
      vertex 41.2 33.5 9.7
    endloop
  endfacet
  facet normal 0 -1 0
    outer loop
      vertex 41.2 33.5 0
      vertex 32.65 33.5 1.5
      vertex 32.65 33.5 0
    endloop
  endfacet
  facet normal 0 -1 0
    outer loop
      vertex 32.65 33.5 1.5
      vertex 41.2 33.5 0
      vertex 41.2 33.5 9.7
    endloop
  endfacet
  facet normal 0 1 0
    outer loop
      vertex 41.2 -7.8 9.7
      vertex 32.65 -7.8 1.5
      vertex 9.8 -7.8 9.7
    endloop
  endfacet
  facet normal 0 1 -0
    outer loop
      vertex 41.2 -7.8 0
      vertex 32.65 -7.8 1.5
      vertex 41.2 -7.8 9.7
    endloop
  endfacet
  facet normal 0 1 0
    outer loop
      vertex 32.65 -7.8 1.5
      vertex 41.2 -7.8 0
      vertex 32.65 -7.8 0
    endloop
  endfacet
  facet normal 0 1 -0
    outer loop
      vertex 17.65 -7.8 1.5
      vertex 9.8 -7.8 9.7
      vertex 32.65 -7.8 1.5
    endloop
  endfacet
  facet normal 0 1 0
    outer loop
      vertex 9.8 -7.8 0
      vertex 17.65 -7.8 1.5
      vertex 17.65 -7.8 0
    endloop
  endfacet
  facet normal 0 1 0
    outer loop
      vertex 17.65 -7.8 1.5
      vertex 9.8 -7.8 0
      vertex 9.8 -7.8 9.7
    endloop
  endfacet
  facet normal 0 0 1
    outer loop
      vertex 0 7.85 9.7
      vertex -1 7.85 9.7
      vertex 0 0 9.7
    endloop
  endfacet
  facet normal -0 0 1
    outer loop
      vertex 0 0 9.7
      vertex 9.8 -1 9.7
      vertex 9.8 0 9.7
    endloop
  endfacet
  facet normal 0 0 1
    outer loop
      vertex 0 0 9.7
      vertex -1 -1 9.7
      vertex 9.8 -1 9.7
    endloop
  endfacet
  facet normal 0 0 1
    outer loop
      vertex -1 -1 9.7
      vertex 0 0 9.7
      vertex -1 7.85 9.7
    endloop
  endfacet
  facet normal 0 0 1
    outer loop
      vertex 52 26.7 9.7
      vertex 50.3 25.7 9.7
      vertex 52 -1 9.7
    endloop
  endfacet
  facet normal -0 0 1
    outer loop
      vertex 41.2 26.7 9.7
      vertex 50.3 25.7 9.7
      vertex 52 26.7 9.7
    endloop
  endfacet
  facet normal 0 0 1
    outer loop
      vertex 50.3 25.7 9.7
      vertex 41.2 26.7 9.7
      vertex 41.2 25.7 9.7
    endloop
  endfacet
  facet normal -0 0 1
    outer loop
      vertex 50.3 0 9.7
      vertex 52 -1 9.7
      vertex 50.3 25.7 9.7
    endloop
  endfacet
  facet normal 0 0 1
    outer loop
      vertex 41.2 -1 9.7
      vertex 50.3 0 9.7
      vertex 41.2 0 9.7
    endloop
  endfacet
  facet normal 0 0 1
    outer loop
      vertex 50.3 0 9.7
      vertex 41.2 -1 9.7
      vertex 52 -1 9.7
    endloop
  endfacet
  facet normal 0 0 1
    outer loop
      vertex 9.8 26.7 9.7
      vertex 0 25.7 9.7
      vertex 9.8 25.7 9.7
    endloop
  endfacet
  facet normal -0 0 1
    outer loop
      vertex -1 26.7 9.7
      vertex 0 25.7 9.7
      vertex 9.8 26.7 9.7
    endloop
  endfacet
  facet normal 0 0 1
    outer loop
      vertex -1 17.85 9.7
      vertex 0 25.7 9.7
      vertex -1 26.7 9.7
    endloop
  endfacet
  facet normal 0 0 1
    outer loop
      vertex 0 25.7 9.7
      vertex -1 17.85 9.7
      vertex 0 17.85 9.7
    endloop
  endfacet
  facet normal 0 1 0
    outer loop
      vertex 52 26.7 9.7
      vertex 41.2 26.7 3.7
      vertex 41.2 26.7 9.7
    endloop
  endfacet
  facet normal 0 1 -0
    outer loop
      vertex 52 26.7 0
      vertex 41.2 26.7 3.7
      vertex 52 26.7 9.7
    endloop
  endfacet
  facet normal 0 1 0
    outer loop
      vertex 32.65 26.7 0
      vertex 41.2 26.7 3.7
      vertex 52 26.7 0
    endloop
  endfacet
  facet normal 0 1 0
    outer loop
      vertex 41.2 26.7 3.7
      vertex 32.65 26.7 0
      vertex 32.65 26.7 3.7
    endloop
  endfacet
  facet normal 0 1 0
    outer loop
      vertex 17.65 26.7 3.7
      vertex 17.65 26.7 0
      vertex 9.8 26.7 3.7
    endloop
  endfacet
  facet normal 0 1 -0
    outer loop
      vertex 9.8 26.7 3.7
      vertex -1 26.7 9.7
      vertex 9.8 26.7 9.7
    endloop
  endfacet
  facet normal 0 1 0
    outer loop
      vertex 9.8 26.7 3.7
      vertex -1 26.7 0
      vertex -1 26.7 9.7
    endloop
  endfacet
  facet normal 0 1 0
    outer loop
      vertex -1 26.7 0
      vertex 9.8 26.7 3.7
      vertex 17.65 26.7 0
    endloop
  endfacet
  facet normal 0 -1 0
    outer loop
      vertex -1 -1 9.7
      vertex 9.8 -1 3.7
      vertex 9.8 -1 9.7
    endloop
  endfacet
  facet normal 0 -1 0
    outer loop
      vertex -1 -1 0
      vertex 9.8 -1 3.7
      vertex -1 -1 9.7
    endloop
  endfacet
  facet normal 0 -1 0
    outer loop
      vertex 17.65 -1 0
      vertex 9.8 -1 3.7
      vertex -1 -1 0
    endloop
  endfacet
  facet normal 0 -1 0
    outer loop
      vertex 9.8 -1 3.7
      vertex 17.65 -1 0
      vertex 17.65 -1 3.7
    endloop
  endfacet
  facet normal 0 -1 0
    outer loop
      vertex 32.65 -1 3.7
      vertex 32.65 -1 0
      vertex 41.2 -1 3.7
    endloop
  endfacet
  facet normal 0 -1 0
    outer loop
      vertex 41.2 -1 3.7
      vertex 52 -1 9.7
      vertex 41.2 -1 9.7
    endloop
  endfacet
  facet normal 0 -1 0
    outer loop
      vertex 41.2 -1 3.7
      vertex 52 -1 0
      vertex 52 -1 9.7
    endloop
  endfacet
  facet normal 0 -1 0
    outer loop
      vertex 52 -1 0
      vertex 41.2 -1 3.7
      vertex 32.65 -1 0
    endloop
  endfacet
  facet normal 0 0 1
    outer loop
      vertex 9.8 25.7 3.7
      vertex 17.65 26.7 3.7
      vertex 9.8 26.7 3.7
    endloop
  endfacet
  facet normal 0 0 1
    outer loop
      vertex 17.65 26.7 3.7
      vertex 9.8 25.7 3.7
      vertex 17.65 23.4 3.7
    endloop
  endfacet
  facet normal 0 0 1
    outer loop
      vertex 0 23.4 3.7
      vertex 9.8 25.7 3.7
      vertex 0 25.7 3.7
    endloop
  endfacet
  facet normal 0 0 1
    outer loop
      vertex 9.8 25.7 3.7
      vertex 0 23.4 3.7
      vertex 17.65 23.4 3.7
    endloop
  endfacet
  facet normal 0 0 1
    outer loop
      vertex 17.65 2.3 3.7
      vertex 9.8 0 3.7
      vertex 17.65 -1 3.7
    endloop
  endfacet
  facet normal -0 0 1
    outer loop
      vertex 0 2.3 3.7
      vertex 9.8 0 3.7
      vertex 17.65 2.3 3.7
    endloop
  endfacet
  facet normal 0 0 1
    outer loop
      vertex 9.8 0 3.7
      vertex 0 2.3 3.7
      vertex 0 0 3.7
    endloop
  endfacet
  facet normal 0 0 1
    outer loop
      vertex 17.65 -1 3.7
      vertex 9.8 0 3.7
      vertex 9.8 -1 3.7
    endloop
  endfacet
  facet normal 0 0 1
    outer loop
      vertex 50.3 2.3 3.7
      vertex 41.2 0 3.7
      vertex 50.3 0 3.7
    endloop
  endfacet
  facet normal -0 0 1
    outer loop
      vertex 32.65 2.3 3.7
      vertex 41.2 0 3.7
      vertex 50.3 2.3 3.7
    endloop
  endfacet
  facet normal 0 0 1
    outer loop
      vertex 32.65 -1 3.7
      vertex 41.2 0 3.7
      vertex 32.65 2.3 3.7
    endloop
  endfacet
  facet normal 0 0 1
    outer loop
      vertex 41.2 0 3.7
      vertex 32.65 -1 3.7
      vertex 41.2 -1 3.7
    endloop
  endfacet
  facet normal 0 0 1
    outer loop
      vertex 41.2 26.7 3.7
      vertex 32.65 26.7 3.7
      vertex 41.2 25.7 3.7
    endloop
  endfacet
  facet normal -0 0 1
    outer loop
      vertex 41.2 25.7 3.7
      vertex 50.3 23.4 3.7
      vertex 50.3 25.7 3.7
    endloop
  endfacet
  facet normal 0 0 1
    outer loop
      vertex 32.65 23.4 3.7
      vertex 41.2 25.7 3.7
      vertex 32.65 26.7 3.7
    endloop
  endfacet
  facet normal 0 0 1
    outer loop
      vertex 41.2 25.7 3.7
      vertex 32.65 23.4 3.7
      vertex 50.3 23.4 3.7
    endloop
  endfacet
  facet normal 0 1 -0
    outer loop
      vertex 9.8 0 3.7
      vertex 0 0 9.7
      vertex 9.8 0 9.7
    endloop
  endfacet
  facet normal 0 1 0
    outer loop
      vertex 0 0 9.7
      vertex 9.8 0 3.7
      vertex 0 0 3.7
    endloop
  endfacet
  facet normal 0 1 -0
    outer loop
      vertex 50.3 0 3.7
      vertex 41.2 0 9.7
      vertex 50.3 0 9.7
    endloop
  endfacet
  facet normal 0 1 0
    outer loop
      vertex 41.2 0 9.7
      vertex 50.3 0 3.7
      vertex 41.2 0 3.7
    endloop
  endfacet
  facet normal 0 -1 0
    outer loop
      vertex 0 25.7 3.7
      vertex 9.8 25.7 9.7
      vertex 0 25.7 9.7
    endloop
  endfacet
  facet normal 0 -1 -0
    outer loop
      vertex 9.8 25.7 9.7
      vertex 0 25.7 3.7
      vertex 9.8 25.7 3.7
    endloop
  endfacet
  facet normal 0 -1 0
    outer loop
      vertex 41.2 25.7 3.7
      vertex 50.3 25.7 9.7
      vertex 41.2 25.7 9.7
    endloop
  endfacet
  facet normal 0 -1 -0
    outer loop
      vertex 50.3 25.7 9.7
      vertex 41.2 25.7 3.7
      vertex 50.3 25.7 3.7
    endloop
  endfacet
  facet normal 0 -1 0
    outer loop
      vertex -1 17.85 3.2
      vertex 0 17.85 9.7
      vertex -1 17.85 9.7
    endloop
  endfacet
  facet normal 0 -1 -0
    outer loop
      vertex 0 17.85 9.7
      vertex -1 17.85 3.2
      vertex 0 17.85 3.2
    endloop
  endfacet
  facet normal -0 0 1
    outer loop
      vertex -1 17.85 3.2
      vertex 0 7.85 3.2
      vertex 0 17.85 3.2
    endloop
  endfacet
  facet normal 0 0 1
    outer loop
      vertex 0 7.85 3.2
      vertex -1 17.85 3.2
      vertex -1 7.85 3.2
    endloop
  endfacet
  facet normal 0 1 -0
    outer loop
      vertex 0 7.85 3.2
      vertex -1 7.85 9.7
      vertex 0 7.85 9.7
    endloop
  endfacet
  facet normal 0 1 0
    outer loop
      vertex -1 7.85 9.7
      vertex 0 7.85 3.2
      vertex -1 7.85 3.2
    endloop
  endfacet
  facet normal 1 -0 0
    outer loop
      vertex 17.65 23.4 3.7
      vertex 17.65 26.7 0
      vertex 17.65 26.7 3.7
    endloop
  endfacet
  facet normal 1 0 0
    outer loop
      vertex 17.65 26.7 0
      vertex 17.65 23.4 3.7
      vertex 17.65 23.4 0
    endloop
  endfacet
  facet normal 1 -0 0
    outer loop
      vertex 17.65 -1 3.7
      vertex 17.65 2.3 0
      vertex 17.65 2.3 3.7
    endloop
  endfacet
  facet normal 1 0 0
    outer loop
      vertex 17.65 2.3 0
      vertex 17.65 -1 3.7
      vertex 17.65 -1 0
    endloop
  endfacet
  facet normal -1 0 0
    outer loop
      vertex 32.65 23.4 0
      vertex 32.65 26.7 3.7
      vertex 32.65 26.7 0
    endloop
  endfacet
  facet normal -1 -0 0
    outer loop
      vertex 32.65 26.7 3.7
      vertex 32.65 23.4 0
      vertex 32.65 23.4 3.7
    endloop
  endfacet
  facet normal -1 0 0
    outer loop
      vertex 32.65 -1 0
      vertex 32.65 2.3 3.7
      vertex 32.65 2.3 0
    endloop
  endfacet
  facet normal -1 -0 0
    outer loop
      vertex 32.65 2.3 3.7
      vertex 32.65 -1 0
      vertex 32.65 -1 3.7
    endloop
  endfacet
  facet normal 0 0 -1
    outer loop
      vertex 50.3 7.85 1.5
      vertex 52 17.85 1.5
      vertex 52 7.85 1.5
    endloop
  endfacet
  facet normal -0 0 -1
    outer loop
      vertex 52 17.85 1.5
      vertex 50.3 7.85 1.5
      vertex 50.3 17.85 1.5
    endloop
  endfacet
  facet normal 0 -1 0
    outer loop
      vertex 50.3 17.85 0
      vertex 52 17.85 1.5
      vertex 50.3 17.85 1.5
    endloop
  endfacet
  facet normal 0 -1 -0
    outer loop
      vertex 52 17.85 1.5
      vertex 50.3 17.85 0
      vertex 52 17.85 0
    endloop
  endfacet
  facet normal 0 1 -0
    outer loop
      vertex 52 7.85 0
      vertex 50.3 7.85 1.5
      vertex 52 7.85 1.5
    endloop
  endfacet
  facet normal 0 1 0
    outer loop
      vertex 50.3 7.85 1.5
      vertex 52 7.85 0
      vertex 50.3 7.85 0
    endloop
  endfacet
  facet normal 1 -0 0
    outer loop
      vertex 9.8 25.7 9.7
      vertex 9.8 26.7 3.7
      vertex 9.8 26.7 9.7
    endloop
  endfacet
  facet normal 1 0 0
    outer loop
      vertex 9.8 26.7 3.7
      vertex 9.8 25.7 9.7
      vertex 9.8 25.7 3.7
    endloop
  endfacet
  facet normal 1 -0 0
    outer loop
      vertex 9.8 -1 9.7
      vertex 9.8 0 3.7
      vertex 9.8 0 9.7
    endloop
  endfacet
  facet normal 1 0 0
    outer loop
      vertex 9.8 0 3.7
      vertex 9.8 -1 9.7
      vertex 9.8 -1 3.7
    endloop
  endfacet
  facet normal -1 0 0
    outer loop
      vertex 41.2 25.7 3.7
      vertex 41.2 26.7 9.7
      vertex 41.2 26.7 3.7
    endloop
  endfacet
  facet normal -1 -0 0
    outer loop
      vertex 41.2 26.7 9.7
      vertex 41.2 25.7 3.7
      vertex 41.2 25.7 9.7
    endloop
  endfacet
  facet normal -1 0 0
    outer loop
      vertex 41.2 -1 3.7
      vertex 41.2 0 9.7
      vertex 41.2 0 3.7
    endloop
  endfacet
  facet normal -1 -0 0
    outer loop
      vertex 41.2 0 9.7
      vertex 41.2 -1 3.7
      vertex 41.2 -1 9.7
    endloop
  endfacet
endsolid OpenSCAD_Model
