<?xml-stylesheet href="https://s3.amazonaws.com/maker.works.boards/css/blackpcb.css" type="text/css"?><svg xmlns="http://www.w3.org/2000/svg" version="1.1" xmlns:xlink="http://www.w3.org/1999/xlink" stroke-width="0" stroke-linecap="round" stroke-linejoin="round" width="1.7829000000000002in" height="1.4333in" id="pcb_bottom" viewBox="0 0 1782.9 1433.3"><defs><circle cx="0" cy="0" r="16" id="tool-T10-pad-1000"/><circle cx="0" cy="0" r="16" id="tool-T11-pad-1001"/><circle cx="0" cy="0" r="17.5" id="tool-T12-pad-1002"/><circle cx="0" cy="0" r="20" id="tool-T13-pad-1003"/><circle cx="0" cy="0" r="23.5" id="tool-T14-pad-1004"/><circle cx="0" cy="0" r="59" id="tool-T15-pad-1005"/><circle cx="0" cy="0" r="64" id="tool-T16-pad-1006"/><polygon points="23.619904128183556,9.783684631845885 9.783684631845887,23.619904128183556 -9.783684631845883,23.619904128183556 -23.619904128183556,9.783684631845889 -23.61990412818356,-9.783684631845881 -9.7836846318459,-23.61990412818355 9.78368463184589,-23.619904128183553 23.61990412818355,-9.783684631845901" id="tool-D10-pad-1007"/><circle cx="0" cy="0" r="27.55" id="tool-D12-pad-1009"/><polygon points="24.00008055581195,9.94115886426412 9.941158864264121,24.00008055581195 -9.941158864264118,24.00008055581195 -24.00008055581195,9.941158864264123 -24.00008055581195,-9.941158864264116 -9.941158864264134,-24.000080555811945 9.941158864264125,-24.000080555811948 24.000080555811945,-9.941158864264136" id="tool-D13-pad-1010"/><polygon points="26.619740970247705,11.026257736735332 11.026257736735333,26.619740970247705 -11.02625773673533,26.619740970247705 -26.619740970247705,11.026257736735335 -26.619740970247708,-11.026257736735328 -11.026257736735348,-26.619740970247697 11.026257736735339,-26.6197409702477 26.619740970247697,-11.02625773673535" id="tool-D10-pad-1017"/><circle cx="0" cy="0" r="30.55" id="tool-D12-pad-1019"/><circle cx="0" cy="0" r="67" id="tool-D13-pad-1020"/><polygon points="26.9999173978761,11.183731969153566 11.183731969153568,26.9999173978761 -11.183731969153564,26.9999173978761 -26.9999173978761,11.18373196915357 -26.9999173978761,-11.183731969153563 -11.183731969153582,-26.999917397876093 11.183731969153573,-26.999917397876096 26.999917397876093,-11.183731969153584" id="tool-D14-pad-1021"/><circle cx="0" cy="0" r="62.05" id="tool-D15-pad-1022"/><g id="pcb_bottom-cu" fill="currentColor" stroke="currentColor"><use x="807.5" y="268" xlink:href="#tool-D10-pad-1007"/><use x="807.5" y="368" xlink:href="#tool-D10-pad-1007"/><use x="807.5" y="468" xlink:href="#tool-D10-pad-1007"/><use x="807.5" y="568" xlink:href="#tool-D10-pad-1007"/><use x="807.5" y="668" xlink:href="#tool-D10-pad-1007"/><use x="807.5" y="768" xlink:href="#tool-D10-pad-1007"/><use x="807.5" y="868" xlink:href="#tool-D10-pad-1007"/><use x="807.5" y="968" xlink:href="#tool-D10-pad-1007"/><use x="1707.5" y="968" xlink:href="#tool-D10-pad-1007"/><use x="1707.5" y="868" xlink:href="#tool-D10-pad-1007"/><use x="1707.5" y="768" xlink:href="#tool-D10-pad-1007"/><use x="1707.5" y="668" xlink:href="#tool-D10-pad-1007"/><use x="1707.5" y="568" xlink:href="#tool-D10-pad-1007"/><use x="1707.5" y="468" xlink:href="#tool-D10-pad-1007"/><use x="1707.5" y="368" xlink:href="#tool-D10-pad-1007"/><use x="1707.5" y="268" xlink:href="#tool-D10-pad-1007"/><path stroke-width="70.5" fill="none" d="M 406 1307.7 L 406 1378.2 M 209.1 1378.2 L 209.1 1307.7"/><use x="207.7" y="567.2" xlink:href="#tool-D12-pad-1009"/><use x="307.7" y="567.2" xlink:href="#tool-D12-pad-1009"/><use x="407.7" y="567.2" xlink:href="#tool-D12-pad-1009"/><use x="507.7" y="567.2" xlink:href="#tool-D12-pad-1009"/><use x="457.7" y="467.2" xlink:href="#tool-D12-pad-1009"/><use x="357.7" y="467.2" xlink:href="#tool-D12-pad-1009"/><use x="257.7" y="467.2" xlink:href="#tool-D12-pad-1009"/><use x="157.7" y="467.2" xlink:href="#tool-D12-pad-1009"/><use x="1007.5" y="643" xlink:href="#tool-D13-pad-1010"/><use x="1507.5" y="643" xlink:href="#tool-D13-pad-1010"/><path stroke-width="60" fill="none" d="M 457.5 963 L 457.5 1023 M 357.5 1023 L 357.5 963 M 257.5 963 L 257.5 1023 M 157.5 1023 L 157.5 963"/><path stroke-width="24" fill="none" d="M 332.5 343 L 607.5 343 M 607.5 343 L 682.5 268 M 682.5 268 L 807.5 268 M 807.5 268 L 857.5 268 M 857.5 268 L 1007.5 418 M 1007.5 418 L 1007.5 643 M 932.5 1043 L 582.5 1043 M 582.5 1043 L 532.5 993 M 532.5 993 L 457.5 993 M 457.5 993 L 457.5 1068 M 457.5 1068 L 407.5 1118 M 407.5 1118 L 407.5 1341.4 M 407.5 1341.4 L 406 1343 M 932.5 1043 L 1707.5 268 M 332.5 343 L 257.7 417.8 M 257.7 417.8 L 257.7 467.2"/></g><mask id="pcb_bottom_mech-mask" fill="#fff" stroke="#fff" fill-rule="evenodd"><path stroke-width="0" d="M 13.4 93 L 13.4 1433.3 L 1782.9 1433.3 L 1782.9 93 Z M 43.7 217.2 L 43.8 215.6 L 43.8 214 L 43.9 212.4 L 44.1 210.8 L 44.2 209.2 L 44.4 207.6 L 44.7 206.1 L 45 204.5 L 45.3 202.9 L 45.7 201.4 L 46.1 199.9 L 46.6 198.3 L 47.1 196.8 L 47.6 195.3 L 48.2 193.8 L 48.8 192.3 L 49.4 190.9 L 50.1 189.4 L 50.8 188 L 51.5 186.6 L 52.3 185.2 L 53.1 183.8 L 54 182.5 L 54.9 181.1 L 55.8 179.8 L 56.7 178.5 L 57.7 177.3 L 58.7 176 L 59.7 174.8 L 60.8 173.7 L 61.9 172.5 L 63 171.4 L 64.2 170.3 L 65.4 169.2 L 66.6 168.2 L 67.8 167.1 L 69.1 166.2 L 70.4 165.2 L 71.7 164.3 L 73 163.4 L 74.4 162.6 L 75.7 161.8 L 77.1 161 L 78.5 160.2 L 80 159.5 L 81.4 158.8 L 82.9 158.2 L 84.4 157.6 L 85.8 157 L 87.4 156.5 L 88.9 156 L 90.4 155.6 L 91.9 155.2 L 93.5 154.8 L 95.1 154.5 L 96.6 154.2 L 98.2 153.9 L 99.8 153.7 L 101.4 153.5 L 103 153.4 L 104.5 153.3 L 106.1 153.2 L 107.7 153.2 L 109.3 153.2 L 110.9 153.3 L 112.5 153.4 L 114.1 153.5 L 115.7 153.7 L 117.3 153.9 L 118.8 154.2 L 120.4 154.5 L 122 154.8 L 123.5 155.2 L 125.1 155.6 L 126.6 156 L 128.1 156.5 L 129.6 157 L 131.1 157.6 L 132.6 158.2 L 134.1 158.8 L 135.5 159.5 L 136.9 160.2 L 138.3 161 L 139.7 161.8 L 141.1 162.6 L 142.5 163.4 L 143.8 164.3 L 145.1 165.2 L 146.4 166.2 L 147.6 167.1 L 148.9 168.2 L 150.1 169.2 L 151.3 170.3 L 152.4 171.4 L 153.6 172.5 L 154.7 173.7 L 155.7 174.8 L 156.8 176 L 157.8 177.3 L 158.8 178.5 L 159.7 179.8 L 160.6 181.1 L 161.5 182.5 L 162.3 183.8 L 163.2 185.2 L 163.9 186.6 L 164.7 188 L 165.4 189.4 L 166.1 190.9 L 166.7 192.3 L 167.3 193.8 L 167.9 195.3 L 168.4 196.8 L 168.9 198.3 L 169.3 199.9 L 169.8 201.4 L 170.1 202.9 L 170.5 204.5 L 170.8 206.1 L 171 207.6 L 171.2 209.2 L 171.4 210.8 L 171.6 212.4 L 171.7 214 L 171.7 215.6 L 171.7 217.2 L 171.7 218.8 L 171.7 220.4 L 171.6 222 L 171.4 223.6 L 171.2 225.1 L 171 226.7 L 170.8 228.3 L 170.5 229.9 L 170.1 231.4 L 169.8 233 L 169.3 234.5 L 168.9 236 L 168.4 237.6 L 167.9 239.1 L 167.3 240.6 L 166.7 242 L 166.1 243.5 L 165.4 245 L 164.7 246.4 L 163.9 247.8 L 163.2 249.2 L 162.3 250.6 L 161.5 251.9 L 160.6 253.2 L 159.7 254.5 L 158.8 255.8 L 157.8 257.1 L 156.8 258.3 L 155.7 259.5 L 154.7 260.7 L 153.6 261.9 L 152.4 263 L 151.3 264.1 L 150.1 265.2 L 148.9 266.2 L 147.6 267.2 L 146.4 268.2 L 145.1 269.1 L 143.8 270.1 L 142.5 270.9 L 141.1 271.8 L 139.7 272.6 L 138.3 273.4 L 136.9 274.1 L 135.5 274.8 L 134.1 275.5 L 132.6 276.2 L 131.1 276.8 L 129.6 277.3 L 128.1 277.9 L 126.6 278.3 L 125.1 278.8 L 123.5 279.2 L 122 279.6 L 120.4 279.9 L 118.8 280.2 L 117.3 280.5 L 115.7 280.7 L 114.1 280.9 L 112.5 281 L 110.9 281.1 L 109.3 281.2 L 107.7 281.2 L 106.1 281.2 L 104.5 281.1 L 103 281 L 101.4 280.9 L 99.8 280.7 L 98.2 280.5 L 96.6 280.2 L 95.1 279.9 L 93.5 279.6 L 91.9 279.2 L 90.4 278.8 L 88.9 278.3 L 87.4 277.9 L 85.8 277.3 L 84.4 276.8 L 82.9 276.2 L 81.4 275.5 L 80 274.8 L 78.5 274.1 L 77.1 273.4 L 75.7 272.6 L 74.4 271.8 L 73 270.9 L 71.7 270.1 L 70.4 269.1 L 69.1 268.2 L 67.8 267.2 L 66.6 266.2 L 65.4 265.2 L 64.2 264.1 L 63 263 L 61.9 261.9 L 60.8 260.7 L 59.7 259.5 L 58.7 258.3 L 57.7 257.1 L 56.7 255.8 L 55.8 254.5 L 54.9 253.2 L 54 251.9 L 53.1 250.6 L 52.3 249.2 L 51.5 247.8 L 50.8 246.4 L 50.1 245 L 49.4 243.5 L 48.8 242 L 48.2 240.6 L 47.6 239.1 L 47.1 237.6 L 46.6 236 L 46.1 234.5 L 45.7 233 L 45.3 231.4 L 45 229.9 L 44.7 228.3 L 44.4 226.7 L 44.2 225.1 L 44.1 223.6 L 43.9 222 L 43.8 220.4 L 43.8 218.8 Z M 493.7 217.2 L 493.8 215.6 L 493.8 214 L 493.9 212.4 L 494.1 210.8 L 494.2 209.2 L 494.4 207.6 L 494.7 206.1 L 495 204.5 L 495.3 202.9 L 495.7 201.4 L 496.1 199.9 L 496.6 198.3 L 497.1 196.8 L 497.6 195.3 L 498.2 193.8 L 498.8 192.3 L 499.4 190.9 L 500.1 189.4 L 500.8 188 L 501.5 186.6 L 502.3 185.2 L 503.1 183.8 L 504 182.5 L 504.9 181.1 L 505.8 179.8 L 506.7 178.5 L 507.7 177.3 L 508.7 176 L 509.7 174.8 L 510.8 173.7 L 511.9 172.5 L 513 171.4 L 514.2 170.3 L 515.4 169.2 L 516.6 168.2 L 517.8 167.1 L 519.1 166.2 L 520.4 165.2 L 521.7 164.3 L 523 163.4 L 524.4 162.6 L 525.7 161.8 L 527.1 161 L 528.5 160.2 L 530 159.5 L 531.4 158.8 L 532.9 158.2 L 534.4 157.6 L 535.8 157 L 537.4 156.5 L 538.9 156 L 540.4 155.6 L 541.9 155.2 L 543.5 154.8 L 545.1 154.5 L 546.6 154.2 L 548.2 153.9 L 549.8 153.7 L 551.4 153.5 L 553 153.4 L 554.5 153.3 L 556.1 153.2 L 557.7 153.2 L 559.3 153.2 L 560.9 153.3 L 562.5 153.4 L 564.1 153.5 L 565.7 153.7 L 567.3 153.9 L 568.8 154.2 L 570.4 154.5 L 572 154.8 L 573.5 155.2 L 575.1 155.6 L 576.6 156 L 578.1 156.5 L 579.6 157 L 581.1 157.6 L 582.6 158.2 L 584 158.8 L 585.5 159.5 L 586.9 160.2 L 588.3 161 L 589.7 161.8 L 591.1 162.6 L 592.5 163.4 L 593.8 164.3 L 595.1 165.2 L 596.4 166.2 L 597.6 167.1 L 598.9 168.2 L 600.1 169.2 L 601.3 170.3 L 602.4 171.4 L 603.6 172.5 L 604.7 173.7 L 605.7 174.8 L 606.8 176 L 607.8 177.3 L 608.8 178.5 L 609.7 179.8 L 610.6 181.1 L 611.5 182.5 L 612.3 183.8 L 613.2 185.2 L 613.9 186.6 L 614.7 188 L 615.4 189.4 L 616.1 190.9 L 616.7 192.3 L 617.3 193.8 L 617.9 195.3 L 618.4 196.8 L 618.9 198.3 L 619.3 199.9 L 619.8 201.4 L 620.1 202.9 L 620.5 204.5 L 620.8 206.1 L 621 207.6 L 621.2 209.2 L 621.4 210.8 L 621.6 212.4 L 621.7 214 L 621.7 215.6 L 621.7 217.2 L 621.7 218.8 L 621.7 220.4 L 621.6 222 L 621.4 223.6 L 621.2 225.1 L 621 226.7 L 620.8 228.3 L 620.5 229.9 L 620.1 231.4 L 619.8 233 L 619.3 234.5 L 618.9 236 L 618.4 237.6 L 617.9 239.1 L 617.3 240.6 L 616.7 242 L 616.1 243.5 L 615.4 245 L 614.7 246.4 L 613.9 247.8 L 613.2 249.2 L 612.3 250.6 L 611.5 251.9 L 610.6 253.2 L 609.7 254.5 L 608.8 255.8 L 607.8 257.1 L 606.8 258.3 L 605.7 259.5 L 604.7 260.7 L 603.6 261.9 L 602.4 263 L 601.3 264.1 L 600.1 265.2 L 598.9 266.2 L 597.6 267.2 L 596.4 268.2 L 595.1 269.1 L 593.8 270.1 L 592.5 270.9 L 591.1 271.8 L 589.7 272.6 L 588.3 273.4 L 586.9 274.1 L 585.5 274.8 L 584 275.5 L 582.6 276.2 L 581.1 276.8 L 579.6 277.3 L 578.1 277.9 L 576.6 278.3 L 575.1 278.8 L 573.5 279.2 L 572 279.6 L 570.4 279.9 L 568.8 280.2 L 567.3 280.5 L 565.7 280.7 L 564.1 280.9 L 562.5 281 L 560.9 281.1 L 559.3 281.2 L 557.7 281.2 L 556.1 281.2 L 554.5 281.1 L 553 281 L 551.4 280.9 L 549.8 280.7 L 548.2 280.5 L 546.6 280.2 L 545.1 279.9 L 543.5 279.6 L 541.9 279.2 L 540.4 278.8 L 538.9 278.3 L 537.4 277.9 L 535.8 277.3 L 534.4 276.8 L 532.9 276.2 L 531.4 275.5 L 530 274.8 L 528.5 274.1 L 527.1 273.4 L 525.7 272.6 L 524.4 271.8 L 523 270.9 L 521.7 270.1 L 520.4 269.1 L 519.1 268.2 L 517.8 267.2 L 516.6 266.2 L 515.4 265.2 L 514.2 264.1 L 513 263 L 511.9 261.9 L 510.8 260.7 L 509.7 259.5 L 508.7 258.3 L 507.7 257.1 L 506.7 255.8 L 505.8 254.5 L 504.9 253.2 L 504 251.9 L 503.1 250.6 L 502.3 249.2 L 501.5 247.8 L 500.8 246.4 L 500.1 245 L 499.4 243.5 L 498.8 242 L 498.2 240.6 L 497.6 239.1 L 497.1 237.6 L 496.6 236 L 496.1 234.5 L 495.7 233 L 495.3 231.4 L 495 229.9 L 494.7 228.3 L 494.4 226.7 L 494.2 225.1 L 494.1 223.6 L 493.9 222 L 493.8 220.4 L 493.8 218.8 Z M 1173.7 242.2 L 1173.7 240.7 L 1173.8 239.1 L 1173.9 237.6 L 1174 236.1 L 1174.2 234.5 L 1174.4 233 L 1174.6 231.5 L 1174.9 230 L 1175.3 228.5 L 1175.7 227 L 1176.1 225.5 L 1176.5 224.1 L 1177 222.6 L 1177.5 221.2 L 1178.1 219.8 L 1178.7 218.4 L 1179.3 217 L 1180 215.6 L 1180.7 214.2 L 1181.5 212.9 L 1182.2 211.5 L 1183.1 210.3 L 1183.9 209 L 1184.8 207.7 L 1185.7 206.5 L 1186.6 205.3 L 1187.6 204.1 L 1188.6 202.9 L 1189.6 201.8 L 1190.7 200.7 L 1191.8 199.6 L 1192.9 198.6 L 1194.1 197.6 L 1195.2 196.6 L 1196.4 195.6 L 1197.6 194.7 L 1198.9 193.8 L 1200.2 192.9 L 1201.4 192.1 L 1202.8 191.3 L 1204.1 190.5 L 1205.4 189.8 L 1206.8 189.1 L 1208.2 188.5 L 1209.6 187.8 L 1211 187.3 L 1212.5 186.7 L 1213.9 186.2 L 1215.4 185.7 L 1216.8 185.3 L 1218.3 184.9 L 1219.8 184.6 L 1221.3 184.2 L 1222.8 184 L 1224.3 183.7 L 1225.9 183.5 L 1227.4 183.4 L 1228.9 183.2 L 1230.4 183.2 L 1232 183.1 L 1233.5 183.1 L 1235 183.2 L 1236.6 183.2 L 1238.1 183.4 L 1239.6 183.5 L 1241.1 183.7 L 1242.7 184 L 1244.2 184.2 L 1245.7 184.6 L 1247.2 184.9 L 1248.6 185.3 L 1250.1 185.7 L 1251.6 186.2 L 1253 186.7 L 1254.4 187.3 L 1255.9 187.8 L 1257.3 188.5 L 1258.7 189.1 L 1260 189.8 L 1261.4 190.5 L 1262.7 191.3 L 1264 192.1 L 1265.3 192.9 L 1266.6 193.8 L 1267.8 194.7 L 1269 195.6 L 1270.2 196.6 L 1271.4 197.6 L 1272.6 198.6 L 1273.7 199.6 L 1274.8 200.7 L 1275.8 201.8 L 1276.9 202.9 L 1277.9 204.1 L 1278.8 205.3 L 1279.8 206.5 L 1280.7 207.7 L 1281.6 209 L 1282.4 210.3 L 1283.2 211.5 L 1284 212.9 L 1284.8 214.2 L 1285.5 215.6 L 1286.1 217 L 1286.8 218.4 L 1287.4 219.8 L 1287.9 221.2 L 1288.5 222.6 L 1289 224.1 L 1289.4 225.5 L 1289.8 227 L 1290.2 228.5 L 1290.5 230 L 1290.8 231.5 L 1291.1 233 L 1291.3 234.5 L 1291.5 236.1 L 1291.6 237.6 L 1291.7 239.1 L 1291.8 240.7 L 1291.8 242.2 L 1291.8 243.7 L 1291.7 245.3 L 1291.6 246.8 L 1291.5 248.3 L 1291.3 249.8 L 1291.1 251.3 L 1290.8 252.9 L 1290.5 254.4 L 1290.2 255.9 L 1289.8 257.3 L 1289.4 258.8 L 1289 260.3 L 1288.5 261.7 L 1287.9 263.2 L 1287.4 264.6 L 1286.8 266 L 1286.1 267.4 L 1285.5 268.8 L 1284.8 270.2 L 1284 271.5 L 1283.2 272.8 L 1282.4 274.1 L 1281.6 275.4 L 1280.7 276.7 L 1279.8 277.9 L 1278.8 279.1 L 1277.9 280.3 L 1276.9 281.4 L 1275.8 282.6 L 1274.8 283.7 L 1273.7 284.8 L 1272.6 285.8 L 1271.4 286.8 L 1270.2 287.8 L 1269 288.8 L 1267.8 289.7 L 1266.6 290.6 L 1265.3 291.5 L 1264 292.3 L 1262.7 293.1 L 1261.4 293.8 L 1260 294.6 L 1258.7 295.3 L 1257.3 295.9 L 1255.9 296.5 L 1254.4 297.1 L 1253 297.7 L 1251.6 298.2 L 1250.1 298.6 L 1248.6 299.1 L 1247.2 299.5 L 1245.7 299.8 L 1244.2 300.1 L 1242.7 300.4 L 1241.1 300.6 L 1239.6 300.8 L 1238.1 301 L 1236.6 301.1 L 1235 301.2 L 1233.5 301.2 L 1232 301.2 L 1230.4 301.2 L 1228.9 301.1 L 1227.4 301 L 1225.9 300.8 L 1224.3 300.6 L 1222.8 300.4 L 1221.3 300.1 L 1219.8 299.8 L 1218.3 299.5 L 1216.8 299.1 L 1215.4 298.6 L 1213.9 298.2 L 1212.5 297.7 L 1211 297.1 L 1209.6 296.5 L 1208.2 295.9 L 1206.8 295.3 L 1205.4 294.6 L 1204.1 293.8 L 1202.8 293.1 L 1201.4 292.3 L 1200.2 291.5 L 1198.9 290.6 L 1197.6 289.7 L 1196.4 288.8 L 1195.2 287.8 L 1194.1 286.8 L 1192.9 285.8 L 1191.8 284.8 L 1190.7 283.7 L 1189.6 282.6 L 1188.6 281.4 L 1187.6 280.3 L 1186.6 279.1 L 1185.7 277.9 L 1184.8 276.7 L 1183.9 275.4 L 1183.1 274.1 L 1182.2 272.8 L 1181.5 271.5 L 1180.7 270.2 L 1180 268.8 L 1179.3 267.4 L 1178.7 266 L 1178.1 264.6 L 1177.5 263.2 L 1177 261.7 L 1176.5 260.3 L 1176.1 258.8 L 1175.7 257.3 L 1175.3 255.9 L 1174.9 254.4 L 1174.6 252.9 L 1174.4 251.3 L 1174.2 249.8 L 1174 248.3 L 1173.9 246.8 L 1173.8 245.3 L 1173.7 243.7 Z M 723.7 1267.2 L 723.7 1265.6 L 723.8 1264.1 L 723.9 1262.6 L 724 1261.1 L 724.2 1259.5 L 724.4 1258 L 724.6 1256.5 L 724.9 1255 L 725.3 1253.5 L 725.7 1252 L 726.1 1250.5 L 726.5 1249.1 L 727 1247.6 L 727.5 1246.2 L 728.1 1244.8 L 728.7 1243.4 L 729.3 1242 L 730 1240.6 L 730.7 1239.2 L 731.5 1237.9 L 732.2 1236.6 L 733.1 1235.3 L 733.9 1234 L 734.8 1232.7 L 735.7 1231.5 L 736.6 1230.3 L 737.6 1229.1 L 738.6 1227.9 L 739.6 1226.8 L 740.7 1225.7 L 741.8 1224.6 L 742.9 1223.6 L 744.1 1222.6 L 745.2 1221.6 L 746.4 1220.6 L 747.6 1219.7 L 748.9 1218.8 L 750.2 1217.9 L 751.5 1217.1 L 752.8 1216.3 L 754.1 1215.5 L 755.4 1214.8 L 756.8 1214.1 L 758.2 1213.5 L 759.6 1212.8 L 761 1212.3 L 762.5 1211.7 L 763.9 1211.2 L 765.4 1210.7 L 766.8 1210.3 L 768.3 1209.9 L 769.8 1209.6 L 771.3 1209.2 L 772.8 1209 L 774.3 1208.7 L 775.9 1208.5 L 777.4 1208.4 L 778.9 1208.2 L 780.4 1208.2 L 782 1208.1 L 783.5 1208.1 L 785 1208.2 L 786.6 1208.2 L 788.1 1208.4 L 789.6 1208.5 L 791.1 1208.7 L 792.7 1209 L 794.2 1209.2 L 795.7 1209.6 L 797.2 1209.9 L 798.6 1210.3 L 800.1 1210.7 L 801.6 1211.2 L 803 1211.7 L 804.4 1212.3 L 805.9 1212.8 L 807.3 1213.5 L 808.7 1214.1 L 810 1214.8 L 811.4 1215.5 L 812.7 1216.3 L 814 1217.1 L 815.3 1217.9 L 816.6 1218.8 L 817.8 1219.7 L 819 1220.6 L 820.2 1221.6 L 821.4 1222.6 L 822.6 1223.6 L 823.7 1224.6 L 824.8 1225.7 L 825.8 1226.8 L 826.9 1227.9 L 827.9 1229.1 L 828.8 1230.3 L 829.8 1231.5 L 830.7 1232.7 L 831.6 1234 L 832.4 1235.3 L 833.2 1236.6 L 834 1237.9 L 834.8 1239.2 L 835.5 1240.6 L 836.1 1242 L 836.8 1243.4 L 837.4 1244.8 L 837.9 1246.2 L 838.5 1247.6 L 839 1249.1 L 839.4 1250.5 L 839.8 1252 L 840.2 1253.5 L 840.5 1255 L 840.8 1256.5 L 841.1 1258 L 841.3 1259.5 L 841.5 1261.1 L 841.6 1262.6 L 841.7 1264.1 L 841.8 1265.6 L 841.8 1267.2 L 841.8 1268.7 L 841.7 1270.3 L 841.6 1271.8 L 841.5 1273.3 L 841.3 1274.8 L 841.1 1276.3 L 840.8 1277.9 L 840.5 1279.4 L 840.2 1280.9 L 839.8 1282.3 L 839.4 1283.8 L 839 1285.3 L 838.5 1286.7 L 837.9 1288.2 L 837.4 1289.6 L 836.8 1291 L 836.1 1292.4 L 835.5 1293.8 L 834.8 1295.2 L 834 1296.5 L 833.2 1297.8 L 832.4 1299.1 L 831.6 1300.4 L 830.7 1301.7 L 829.8 1302.9 L 828.8 1304.1 L 827.9 1305.3 L 826.9 1306.4 L 825.8 1307.6 L 824.8 1308.7 L 823.7 1309.8 L 822.6 1310.8 L 821.4 1311.8 L 820.2 1312.8 L 819 1313.8 L 817.8 1314.7 L 816.6 1315.6 L 815.3 1316.5 L 814 1317.3 L 812.7 1318.1 L 811.4 1318.8 L 810 1319.6 L 808.7 1320.3 L 807.3 1320.9 L 805.9 1321.5 L 804.4 1322.1 L 803 1322.7 L 801.6 1323.2 L 800.1 1323.6 L 798.6 1324.1 L 797.2 1324.5 L 795.7 1324.8 L 794.2 1325.1 L 792.7 1325.4 L 791.1 1325.6 L 789.6 1325.8 L 788.1 1326 L 786.6 1326.1 L 785 1326.2 L 783.5 1326.2 L 782 1326.2 L 780.4 1326.2 L 778.9 1326.1 L 777.4 1326 L 775.9 1325.8 L 774.3 1325.6 L 772.8 1325.4 L 771.3 1325.1 L 769.8 1324.8 L 768.3 1324.5 L 766.8 1324.1 L 765.4 1323.6 L 763.9 1323.2 L 762.5 1322.7 L 761 1322.1 L 759.6 1321.5 L 758.2 1320.9 L 756.8 1320.3 L 755.4 1319.6 L 754.1 1318.8 L 752.8 1318.1 L 751.5 1317.3 L 750.2 1316.5 L 748.9 1315.6 L 747.6 1314.7 L 746.4 1313.8 L 745.2 1312.8 L 744.1 1311.8 L 742.9 1310.8 L 741.8 1309.8 L 740.7 1308.7 L 739.6 1307.6 L 738.6 1306.4 L 737.6 1305.3 L 736.6 1304.1 L 735.7 1302.9 L 734.8 1301.7 L 733.9 1300.4 L 733.1 1299.1 L 732.2 1297.8 L 731.5 1296.5 L 730.7 1295.2 L 730 1293.8 L 729.3 1292.4 L 728.7 1291 L 728.1 1289.6 L 727.5 1288.2 L 727 1286.7 L 726.5 1285.3 L 726.1 1283.8 L 725.7 1282.3 L 725.3 1280.9 L 724.9 1279.4 L 724.6 1277.9 L 724.4 1276.3 L 724.2 1274.8 L 724 1273.3 L 723.9 1271.8 L 723.8 1270.3 L 723.7 1268.7 Z"/><path stroke-width="0.4" fill="none" d="M 665.2 0.2 L 0.2 0.2"/><g id="pcb_bottom-drl" fill="#000" stroke="#000"><use x="807.5" y="268" xlink:href="#tool-T10-pad-1000"/><use x="807.5" y="368" xlink:href="#tool-T10-pad-1000"/><use x="807.5" y="468" xlink:href="#tool-T10-pad-1000"/><use x="807.5" y="568" xlink:href="#tool-T10-pad-1000"/><use x="807.5" y="668" xlink:href="#tool-T10-pad-1000"/><use x="807.5" y="768" xlink:href="#tool-T10-pad-1000"/><use x="807.5" y="868" xlink:href="#tool-T10-pad-1000"/><use x="807.5" y="968" xlink:href="#tool-T10-pad-1000"/><use x="1707.5" y="968" xlink:href="#tool-T10-pad-1000"/><use x="1707.5" y="868" xlink:href="#tool-T10-pad-1000"/><use x="1707.5" y="768" xlink:href="#tool-T10-pad-1000"/><use x="1707.5" y="668" xlink:href="#tool-T10-pad-1000"/><use x="1707.5" y="568" xlink:href="#tool-T10-pad-1000"/><use x="1707.5" y="468" xlink:href="#tool-T10-pad-1000"/><use x="1707.5" y="368" xlink:href="#tool-T10-pad-1000"/><use x="1707.5" y="268" xlink:href="#tool-T10-pad-1000"/><use x="1507.5" y="643" xlink:href="#tool-T11-pad-1001"/><use x="1007.5" y="643" xlink:href="#tool-T11-pad-1001"/><use x="507.7" y="567.2" xlink:href="#tool-T12-pad-1002"/><use x="407.7" y="567.2" xlink:href="#tool-T12-pad-1002"/><use x="307.7" y="567.2" xlink:href="#tool-T12-pad-1002"/><use x="207.7" y="567.2" xlink:href="#tool-T12-pad-1002"/><use x="157.7" y="467.2" xlink:href="#tool-T12-pad-1002"/><use x="257.7" y="467.2" xlink:href="#tool-T12-pad-1002"/><use x="357.7" y="467.2" xlink:href="#tool-T12-pad-1002"/><use x="457.7" y="467.2" xlink:href="#tool-T12-pad-1002"/><use x="457.5" y="993" xlink:href="#tool-T13-pad-1003"/><use x="357.5" y="993" xlink:href="#tool-T13-pad-1003"/><use x="257.5" y="993" xlink:href="#tool-T13-pad-1003"/><use x="157.5" y="993" xlink:href="#tool-T13-pad-1003"/><use x="209.1" y="1343" xlink:href="#tool-T14-pad-1004"/><use x="406" y="1343" xlink:href="#tool-T14-pad-1004"/><use x="782.7" y="1267.2" xlink:href="#tool-T15-pad-1005"/><use x="1232.7" y="242.2" xlink:href="#tool-T15-pad-1005"/><use x="107.7" y="217.2" xlink:href="#tool-T16-pad-1006"/><use x="557.7" y="217.2" xlink:href="#tool-T16-pad-1006"/></g></mask></defs><g mask="url(#pcb_bottom_mech-mask)" transform="translate(1782.9,1433.3) scale(-1,-1)"><rect x="0" y="0" width="1782.9" height="1433.3" fill="currentColor" class="pcb_board-fr4"/><use class="pcb_board-cu" xlink:href="#pcb_bottom-cu"/><g><defs><g id="pcb_bottom-sm" fill="currentColor" stroke="currentColor"><use x="807.5" y="268" xlink:href="#tool-D10-pad-1017"/><use x="807.5" y="368" xlink:href="#tool-D10-pad-1017"/><use x="807.5" y="468" xlink:href="#tool-D10-pad-1017"/><use x="807.5" y="568" xlink:href="#tool-D10-pad-1017"/><use x="807.5" y="668" xlink:href="#tool-D10-pad-1017"/><use x="807.5" y="768" xlink:href="#tool-D10-pad-1017"/><use x="807.5" y="868" xlink:href="#tool-D10-pad-1017"/><use x="807.5" y="968" xlink:href="#tool-D10-pad-1017"/><use x="1707.5" y="968" xlink:href="#tool-D10-pad-1017"/><use x="1707.5" y="868" xlink:href="#tool-D10-pad-1017"/><use x="1707.5" y="768" xlink:href="#tool-D10-pad-1017"/><use x="1707.5" y="668" xlink:href="#tool-D10-pad-1017"/><use x="1707.5" y="568" xlink:href="#tool-D10-pad-1017"/><use x="1707.5" y="468" xlink:href="#tool-D10-pad-1017"/><use x="1707.5" y="368" xlink:href="#tool-D10-pad-1017"/><use x="1707.5" y="268" xlink:href="#tool-D10-pad-1017"/><path stroke-width="76.5" fill="none" d="M 406 1307.7 L 406 1378.2 M 209.1 1378.2 L 209.1 1307.7"/><use x="207.7" y="567.2" xlink:href="#tool-D12-pad-1019"/><use x="307.7" y="567.2" xlink:href="#tool-D12-pad-1019"/><use x="407.7" y="567.2" xlink:href="#tool-D12-pad-1019"/><use x="507.7" y="567.2" xlink:href="#tool-D12-pad-1019"/><use x="457.7" y="467.2" xlink:href="#tool-D12-pad-1019"/><use x="357.7" y="467.2" xlink:href="#tool-D12-pad-1019"/><use x="257.7" y="467.2" xlink:href="#tool-D12-pad-1019"/><use x="157.7" y="467.2" xlink:href="#tool-D12-pad-1019"/><use x="107.7" y="217.2" xlink:href="#tool-D13-pad-1020"/><use x="557.7" y="217.2" xlink:href="#tool-D13-pad-1020"/><use x="1007.5" y="643" xlink:href="#tool-D14-pad-1021"/><use x="1507.5" y="643" xlink:href="#tool-D14-pad-1021"/><use x="1232.7" y="242.2" xlink:href="#tool-D15-pad-1022"/><use x="782.7" y="1267.2" xlink:href="#tool-D15-pad-1022"/><path stroke-width="66" fill="none" d="M 457.5 1023 L 457.5 963 M 357.5 963 L 357.5 1023 M 257.5 1023 L 257.5 963 M 157.5 963 L 157.5 1023"/></g><mask id="pcb_bottom-sm_mask" color="#000"><rect x="0" y="0" width="1782.9" height="1433.3" fill="#fff"/><use xlink:href="#pcb_bottom-sm"/></mask><mask id="pcb_bottom-cu_finish-mask" color="#fff"><use xlink:href="#pcb_bottom-cu"/></mask></defs><g mask="url(#pcb_bottom-sm_mask)"><rect x="0" y="0" width="1782.9" height="1433.3" fill="currentColor" class="pcb_board-sm"/><g id="pcb_bottom-ss" class="pcb_board-ss" fill="currentColor" stroke="currentColor"><path stroke-width="0" fill="none" d="M 13.4 93 L 1782.9 93 M 1782.9 93 L 1782.9 1433.3 M 1782.9 1433.3 L 13.4 1433.3 M 13.4 1433.3 L 13.4 93 M 43.7 217.2 L 43.8 218.8 M 43.8 218.8 L 43.8 220.4 M 43.8 220.4 L 43.9 222 M 43.9 222 L 44.1 223.6 M 44.1 223.6 L 44.2 225.1 M 44.2 225.1 L 44.4 226.7 M 44.4 226.7 L 44.7 228.3 M 44.7 228.3 L 45 229.9 M 45 229.9 L 45.3 231.4 M 45.3 231.4 L 45.7 233 M 45.7 233 L 46.1 234.5 M 46.1 234.5 L 46.6 236 M 46.6 236 L 47.1 237.6 M 47.1 237.6 L 47.6 239.1 M 47.6 239.1 L 48.2 240.6 M 48.2 240.6 L 48.8 242 M 48.8 242 L 49.4 243.5 M 49.4 243.5 L 50.1 245 M 50.1 245 L 50.8 246.4 M 50.8 246.4 L 51.5 247.8 M 51.5 247.8 L 52.3 249.2 M 52.3 249.2 L 53.1 250.6 M 53.1 250.6 L 54 251.9 M 54 251.9 L 54.9 253.2 M 54.9 253.2 L 55.8 254.5 M 55.8 254.5 L 56.7 255.8 M 56.7 255.8 L 57.7 257.1 M 57.7 257.1 L 58.7 258.3 M 58.7 258.3 L 59.7 259.5 M 59.7 259.5 L 60.8 260.7 M 60.8 260.7 L 61.9 261.9 M 61.9 261.9 L 63 263 M 63 263 L 64.2 264.1 M 64.2 264.1 L 65.4 265.2 M 65.4 265.2 L 66.6 266.2 M 66.6 266.2 L 67.8 267.2 M 67.8 267.2 L 69.1 268.2 M 69.1 268.2 L 70.4 269.1 M 70.4 269.1 L 71.7 270.1 M 71.7 270.1 L 73 270.9 M 73 270.9 L 74.4 271.8 M 74.4 271.8 L 75.7 272.6 M 75.7 272.6 L 77.1 273.4 M 77.1 273.4 L 78.5 274.1 M 78.5 274.1 L 80 274.8 M 80 274.8 L 81.4 275.5 M 81.4 275.5 L 82.9 276.2 M 82.9 276.2 L 84.4 276.8 M 84.4 276.8 L 85.8 277.3 M 85.8 277.3 L 87.4 277.9 M 87.4 277.9 L 88.9 278.3 M 88.9 278.3 L 90.4 278.8 M 90.4 278.8 L 91.9 279.2 M 91.9 279.2 L 93.5 279.6 M 93.5 279.6 L 95.1 279.9 M 95.1 279.9 L 96.6 280.2 M 96.6 280.2 L 98.2 280.5 M 98.2 280.5 L 99.8 280.7 M 99.8 280.7 L 101.4 280.9 M 101.4 280.9 L 103 281 M 103 281 L 104.5 281.1 M 104.5 281.1 L 106.1 281.2 M 106.1 281.2 L 107.7 281.2 M 107.7 281.2 L 109.3 281.2 M 109.3 281.2 L 110.9 281.1 M 110.9 281.1 L 112.5 281 M 112.5 281 L 114.1 280.9 M 114.1 280.9 L 115.7 280.7 M 115.7 280.7 L 117.3 280.5 M 117.3 280.5 L 118.8 280.2 M 118.8 280.2 L 120.4 279.9 M 120.4 279.9 L 122 279.6 M 122 279.6 L 123.5 279.2 M 123.5 279.2 L 125.1 278.8 M 125.1 278.8 L 126.6 278.3 M 126.6 278.3 L 128.1 277.9 M 128.1 277.9 L 129.6 277.3 M 129.6 277.3 L 131.1 276.8 M 131.1 276.8 L 132.6 276.2 M 132.6 276.2 L 134.1 275.5 M 134.1 275.5 L 135.5 274.8 M 135.5 274.8 L 136.9 274.1 M 136.9 274.1 L 138.3 273.4 M 138.3 273.4 L 139.7 272.6 M 139.7 272.6 L 141.1 271.8 M 141.1 271.8 L 142.5 270.9 M 142.5 270.9 L 143.8 270.1 M 143.8 270.1 L 145.1 269.1 M 145.1 269.1 L 146.4 268.2 M 146.4 268.2 L 147.6 267.2 M 147.6 267.2 L 148.9 266.2 M 148.9 266.2 L 150.1 265.2 M 150.1 265.2 L 151.3 264.1 M 151.3 264.1 L 152.4 263 M 152.4 263 L 153.6 261.9 M 153.6 261.9 L 154.7 260.7 M 154.7 260.7 L 155.7 259.5 M 155.7 259.5 L 156.8 258.3 M 156.8 258.3 L 157.8 257.1 M 157.8 257.1 L 158.8 255.8 M 158.8 255.8 L 159.7 254.5 M 159.7 254.5 L 160.6 253.2 M 160.6 253.2 L 161.5 251.9 M 161.5 251.9 L 162.3 250.6 M 162.3 250.6 L 163.2 249.2 M 163.2 249.2 L 163.9 247.8 M 163.9 247.8 L 164.7 246.4 M 164.7 246.4 L 165.4 245 M 165.4 245 L 166.1 243.5 M 166.1 243.5 L 166.7 242 M 166.7 242 L 167.3 240.6 M 167.3 240.6 L 167.9 239.1 M 167.9 239.1 L 168.4 237.6 M 168.4 237.6 L 168.9 236 M 168.9 236 L 169.3 234.5 M 169.3 234.5 L 169.8 233 M 169.8 233 L 170.1 231.4 M 170.1 231.4 L 170.5 229.9 M 170.5 229.9 L 170.8 228.3 M 170.8 228.3 L 171 226.7 M 171 226.7 L 171.2 225.1 M 171.2 225.1 L 171.4 223.6 M 171.4 223.6 L 171.6 222 M 171.6 222 L 171.7 220.4 M 171.7 220.4 L 171.7 218.8 M 171.7 218.8 L 171.7 217.2 M 171.7 217.2 L 171.7 215.6 M 171.7 215.6 L 171.7 214 M 171.7 214 L 171.6 212.4 M 171.6 212.4 L 171.4 210.8 M 171.4 210.8 L 171.2 209.2 M 171.2 209.2 L 171 207.6 M 171 207.6 L 170.8 206.1 M 170.8 206.1 L 170.5 204.5 M 170.5 204.5 L 170.1 202.9 M 170.1 202.9 L 169.8 201.4 M 169.8 201.4 L 169.3 199.9 M 169.3 199.9 L 168.9 198.3 M 168.9 198.3 L 168.4 196.8 M 168.4 196.8 L 167.9 195.3 M 167.9 195.3 L 167.3 193.8 M 167.3 193.8 L 166.7 192.3 M 166.7 192.3 L 166.1 190.9 M 166.1 190.9 L 165.4 189.4 M 165.4 189.4 L 164.7 188 M 164.7 188 L 163.9 186.6 M 163.9 186.6 L 163.2 185.2 M 163.2 185.2 L 162.3 183.8 M 162.3 183.8 L 161.5 182.5 M 161.5 182.5 L 160.6 181.1 M 160.6 181.1 L 159.7 179.8 M 159.7 179.8 L 158.8 178.5 M 158.8 178.5 L 157.8 177.3 M 157.8 177.3 L 156.8 176 M 156.8 176 L 155.7 174.8 M 155.7 174.8 L 154.7 173.7 M 154.7 173.7 L 153.6 172.5 M 153.6 172.5 L 152.4 171.4 M 152.4 171.4 L 151.3 170.3 M 151.3 170.3 L 150.1 169.2 M 150.1 169.2 L 148.9 168.2 M 148.9 168.2 L 147.6 167.1 M 147.6 167.1 L 146.4 166.2 M 146.4 166.2 L 145.1 165.2 M 145.1 165.2 L 143.8 164.3 M 143.8 164.3 L 142.5 163.4 M 142.5 163.4 L 141.1 162.6 M 141.1 162.6 L 139.7 161.8 M 139.7 161.8 L 138.3 161 M 138.3 161 L 136.9 160.2 M 136.9 160.2 L 135.5 159.5 M 135.5 159.5 L 134.1 158.8 M 134.1 158.8 L 132.6 158.2 M 132.6 158.2 L 131.1 157.6 M 131.1 157.6 L 129.6 157 M 129.6 157 L 128.1 156.5 M 128.1 156.5 L 126.6 156 M 126.6 156 L 125.1 155.6 M 125.1 155.6 L 123.5 155.2 M 123.5 155.2 L 122 154.8 M 122 154.8 L 120.4 154.5 M 120.4 154.5 L 118.8 154.2 M 118.8 154.2 L 117.3 153.9 M 117.3 153.9 L 115.7 153.7 M 115.7 153.7 L 114.1 153.5 M 114.1 153.5 L 112.5 153.4 M 112.5 153.4 L 110.9 153.3 M 110.9 153.3 L 109.3 153.2 M 109.3 153.2 L 107.7 153.2 M 107.7 153.2 L 106.1 153.2 M 106.1 153.2 L 104.5 153.3 M 104.5 153.3 L 103 153.4 M 103 153.4 L 101.4 153.5 M 101.4 153.5 L 99.8 153.7 M 99.8 153.7 L 98.2 153.9 M 98.2 153.9 L 96.6 154.2 M 96.6 154.2 L 95.1 154.5 M 95.1 154.5 L 93.5 154.8 M 93.5 154.8 L 91.9 155.2 M 91.9 155.2 L 90.4 155.6 M 90.4 155.6 L 88.9 156 M 88.9 156 L 87.4 156.5 M 87.4 156.5 L 85.8 157 M 85.8 157 L 84.4 157.6 M 84.4 157.6 L 82.9 158.2 M 82.9 158.2 L 81.4 158.8 M 81.4 158.8 L 80 159.5 M 80 159.5 L 78.5 160.2 M 78.5 160.2 L 77.1 161 M 77.1 161 L 75.7 161.8 M 75.7 161.8 L 74.4 162.6 M 74.4 162.6 L 73 163.4 M 73 163.4 L 71.7 164.3 M 71.7 164.3 L 70.4 165.2 M 70.4 165.2 L 69.1 166.2 M 69.1 166.2 L 67.8 167.1 M 67.8 167.1 L 66.6 168.2 M 66.6 168.2 L 65.4 169.2 M 65.4 169.2 L 64.2 170.3 M 64.2 170.3 L 63 171.4 M 63 171.4 L 61.9 172.5 M 61.9 172.5 L 60.8 173.7 M 60.8 173.7 L 59.7 174.8 M 59.7 174.8 L 58.7 176 M 58.7 176 L 57.7 177.3 M 57.7 177.3 L 56.7 178.5 M 56.7 178.5 L 55.8 179.8 M 55.8 179.8 L 54.9 181.1 M 54.9 181.1 L 54 182.5 M 54 182.5 L 53.1 183.8 M 53.1 183.8 L 52.3 185.2 M 52.3 185.2 L 51.5 186.6 M 51.5 186.6 L 50.8 188 M 50.8 188 L 50.1 189.4 M 50.1 189.4 L 49.4 190.9 M 49.4 190.9 L 48.8 192.3 M 48.8 192.3 L 48.2 193.8 M 48.2 193.8 L 47.6 195.3 M 47.6 195.3 L 47.1 196.8 M 47.1 196.8 L 46.6 198.3 M 46.6 198.3 L 46.1 199.9 M 46.1 199.9 L 45.7 201.4 M 45.7 201.4 L 45.3 202.9 M 45.3 202.9 L 45 204.5 M 45 204.5 L 44.7 206.1 M 44.7 206.1 L 44.4 207.6 M 44.4 207.6 L 44.2 209.2 M 44.2 209.2 L 44.1 210.8 M 44.1 210.8 L 43.9 212.4 M 43.9 212.4 L 43.8 214 M 43.8 214 L 43.8 215.6 M 43.8 215.6 L 43.7 217.2 M 493.7 217.2 L 493.8 218.8 M 493.8 218.8 L 493.8 220.4 M 493.8 220.4 L 493.9 222 M 493.9 222 L 494.1 223.6 M 494.1 223.6 L 494.2 225.1 M 494.2 225.1 L 494.4 226.7 M 494.4 226.7 L 494.7 228.3 M 494.7 228.3 L 495 229.9 M 495 229.9 L 495.3 231.4 M 495.3 231.4 L 495.7 233 M 495.7 233 L 496.1 234.5 M 496.1 234.5 L 496.6 236 M 496.6 236 L 497.1 237.6 M 497.1 237.6 L 497.6 239.1 M 497.6 239.1 L 498.2 240.6 M 498.2 240.6 L 498.8 242 M 498.8 242 L 499.4 243.5 M 499.4 243.5 L 500.1 245 M 500.1 245 L 500.8 246.4 M 500.8 246.4 L 501.5 247.8 M 501.5 247.8 L 502.3 249.2 M 502.3 249.2 L 503.1 250.6 M 503.1 250.6 L 504 251.9 M 504 251.9 L 504.9 253.2 M 504.9 253.2 L 505.8 254.5 M 505.8 254.5 L 506.7 255.8 M 506.7 255.8 L 507.7 257.1 M 507.7 257.1 L 508.7 258.3 M 508.7 258.3 L 509.7 259.5 M 509.7 259.5 L 510.8 260.7 M 510.8 260.7 L 511.9 261.9 M 511.9 261.9 L 513 263 M 513 263 L 514.2 264.1 M 514.2 264.1 L 515.4 265.2 M 515.4 265.2 L 516.6 266.2 M 516.6 266.2 L 517.8 267.2 M 517.8 267.2 L 519.1 268.2 M 519.1 268.2 L 520.4 269.1 M 520.4 269.1 L 521.7 270.1 M 521.7 270.1 L 523 270.9 M 523 270.9 L 524.4 271.8 M 524.4 271.8 L 525.7 272.6 M 525.7 272.6 L 527.1 273.4 M 527.1 273.4 L 528.5 274.1 M 528.5 274.1 L 530 274.8 M 530 274.8 L 531.4 275.5 M 531.4 275.5 L 532.9 276.2 M 532.9 276.2 L 534.4 276.8 M 534.4 276.8 L 535.8 277.3 M 535.8 277.3 L 537.4 277.9 M 537.4 277.9 L 538.9 278.3 M 538.9 278.3 L 540.4 278.8 M 540.4 278.8 L 541.9 279.2 M 541.9 279.2 L 543.5 279.6 M 543.5 279.6 L 545.1 279.9 M 545.1 279.9 L 546.6 280.2 M 546.6 280.2 L 548.2 280.5 M 548.2 280.5 L 549.8 280.7 M 549.8 280.7 L 551.4 280.9 M 551.4 280.9 L 553 281 M 553 281 L 554.5 281.1 M 554.5 281.1 L 556.1 281.2 M 556.1 281.2 L 557.7 281.2 M 557.7 281.2 L 559.3 281.2 M 559.3 281.2 L 560.9 281.1 M 560.9 281.1 L 562.5 281 M 562.5 281 L 564.1 280.9 M 564.1 280.9 L 565.7 280.7 M 565.7 280.7 L 567.3 280.5 M 567.3 280.5 L 568.8 280.2 M 568.8 280.2 L 570.4 279.9 M 570.4 279.9 L 572 279.6 M 572 279.6 L 573.5 279.2 M 573.5 279.2 L 575.1 278.8 M 575.1 278.8 L 576.6 278.3 M 576.6 278.3 L 578.1 277.9 M 578.1 277.9 L 579.6 277.3 M 579.6 277.3 L 581.1 276.8 M 581.1 276.8 L 582.6 276.2 M 582.6 276.2 L 584 275.5 M 584 275.5 L 585.5 274.8 M 585.5 274.8 L 586.9 274.1 M 586.9 274.1 L 588.3 273.4 M 588.3 273.4 L 589.7 272.6 M 589.7 272.6 L 591.1 271.8 M 591.1 271.8 L 592.5 270.9 M 592.5 270.9 L 593.8 270.1 M 593.8 270.1 L 595.1 269.1 M 595.1 269.1 L 596.4 268.2 M 596.4 268.2 L 597.6 267.2 M 597.6 267.2 L 598.9 266.2 M 598.9 266.2 L 600.1 265.2 M 600.1 265.2 L 601.3 264.1 M 601.3 264.1 L 602.4 263 M 602.4 263 L 603.6 261.9 M 603.6 261.9 L 604.7 260.7 M 604.7 260.7 L 605.7 259.5 M 605.7 259.5 L 606.8 258.3 M 606.8 258.3 L 607.8 257.1 M 607.8 257.1 L 608.8 255.8 M 608.8 255.8 L 609.7 254.5 M 609.7 254.5 L 610.6 253.2 M 610.6 253.2 L 611.5 251.9 M 611.5 251.9 L 612.3 250.6 M 612.3 250.6 L 613.2 249.2 M 613.2 249.2 L 613.9 247.8 M 613.9 247.8 L 614.7 246.4 M 614.7 246.4 L 615.4 245 M 615.4 245 L 616.1 243.5 M 616.1 243.5 L 616.7 242 M 616.7 242 L 617.3 240.6 M 617.3 240.6 L 617.9 239.1 M 617.9 239.1 L 618.4 237.6 M 618.4 237.6 L 618.9 236 M 618.9 236 L 619.3 234.5 M 619.3 234.5 L 619.8 233 M 619.8 233 L 620.1 231.4 M 620.1 231.4 L 620.5 229.9 M 620.5 229.9 L 620.8 228.3 M 620.8 228.3 L 621 226.7 M 621 226.7 L 621.2 225.1 M 621.2 225.1 L 621.4 223.6 M 621.4 223.6 L 621.6 222 M 621.6 222 L 621.7 220.4 M 621.7 220.4 L 621.7 218.8 M 621.7 218.8 L 621.7 217.2 M 621.7 217.2 L 621.7 215.6 M 621.7 215.6 L 621.7 214 M 621.7 214 L 621.6 212.4 M 621.6 212.4 L 621.4 210.8 M 621.4 210.8 L 621.2 209.2 M 621.2 209.2 L 621 207.6 M 621 207.6 L 620.8 206.1 M 620.8 206.1 L 620.5 204.5 M 620.5 204.5 L 620.1 202.9 M 620.1 202.9 L 619.8 201.4 M 619.8 201.4 L 619.3 199.9 M 619.3 199.9 L 618.9 198.3 M 618.9 198.3 L 618.4 196.8 M 618.4 196.8 L 617.9 195.3 M 617.9 195.3 L 617.3 193.8 M 617.3 193.8 L 616.7 192.3 M 616.7 192.3 L 616.1 190.9 M 616.1 190.9 L 615.4 189.4 M 615.4 189.4 L 614.7 188 M 614.7 188 L 613.9 186.6 M 613.9 186.6 L 613.2 185.2 M 613.2 185.2 L 612.3 183.8 M 612.3 183.8 L 611.5 182.5 M 611.5 182.5 L 610.6 181.1 M 610.6 181.1 L 609.7 179.8 M 609.7 179.8 L 608.8 178.5 M 608.8 178.5 L 607.8 177.3 M 607.8 177.3 L 606.8 176 M 606.8 176 L 605.7 174.8 M 605.7 174.8 L 604.7 173.7 M 604.7 173.7 L 603.6 172.5 M 603.6 172.5 L 602.4 171.4 M 602.4 171.4 L 601.3 170.3 M 601.3 170.3 L 600.1 169.2 M 600.1 169.2 L 598.9 168.2 M 598.9 168.2 L 597.6 167.1 M 597.6 167.1 L 596.4 166.2 M 596.4 166.2 L 595.1 165.2 M 595.1 165.2 L 593.8 164.3 M 593.8 164.3 L 592.5 163.4 M 592.5 163.4 L 591.1 162.6 M 591.1 162.6 L 589.7 161.8 M 589.7 161.8 L 588.3 161 M 588.3 161 L 586.9 160.2 M 586.9 160.2 L 585.5 159.5 M 585.5 159.5 L 584 158.8 M 584 158.8 L 582.6 158.2 M 582.6 158.2 L 581.1 157.6 M 581.1 157.6 L 579.6 157 M 579.6 157 L 578.1 156.5 M 578.1 156.5 L 576.6 156 M 576.6 156 L 575.1 155.6 M 575.1 155.6 L 573.5 155.2 M 573.5 155.2 L 572 154.8 M 572 154.8 L 570.4 154.5 M 570.4 154.5 L 568.8 154.2 M 568.8 154.2 L 567.3 153.9 M 567.3 153.9 L 565.7 153.7 M 565.7 153.7 L 564.1 153.5 M 564.1 153.5 L 562.5 153.4 M 562.5 153.4 L 560.9 153.3 M 560.9 153.3 L 559.3 153.2 M 559.3 153.2 L 557.7 153.2 M 557.7 153.2 L 556.1 153.2 M 556.1 153.2 L 554.5 153.3 M 554.5 153.3 L 553 153.4 M 553 153.4 L 551.4 153.5 M 551.4 153.5 L 549.8 153.7 M 549.8 153.7 L 548.2 153.9 M 548.2 153.9 L 546.6 154.2 M 546.6 154.2 L 545.1 154.5 M 545.1 154.5 L 543.5 154.8 M 543.5 154.8 L 541.9 155.2 M 541.9 155.2 L 540.4 155.6 M 540.4 155.6 L 538.9 156 M 538.9 156 L 537.4 156.5 M 537.4 156.5 L 535.8 157 M 535.8 157 L 534.4 157.6 M 534.4 157.6 L 532.9 158.2 M 532.9 158.2 L 531.4 158.8 M 531.4 158.8 L 530 159.5 M 530 159.5 L 528.5 160.2 M 528.5 160.2 L 527.1 161 M 527.1 161 L 525.7 161.8 M 525.7 161.8 L 524.4 162.6 M 524.4 162.6 L 523 163.4 M 523 163.4 L 521.7 164.3 M 521.7 164.3 L 520.4 165.2 M 520.4 165.2 L 519.1 166.2 M 519.1 166.2 L 517.8 167.1 M 517.8 167.1 L 516.6 168.2 M 516.6 168.2 L 515.4 169.2 M 515.4 169.2 L 514.2 170.3 M 514.2 170.3 L 513 171.4 M 513 171.4 L 511.9 172.5 M 511.9 172.5 L 510.8 173.7 M 510.8 173.7 L 509.7 174.8 M 509.7 174.8 L 508.7 176 M 508.7 176 L 507.7 177.3 M 507.7 177.3 L 506.7 178.5 M 506.7 178.5 L 505.8 179.8 M 505.8 179.8 L 504.9 181.1 M 504.9 181.1 L 504 182.5 M 504 182.5 L 503.1 183.8 M 503.1 183.8 L 502.3 185.2 M 502.3 185.2 L 501.5 186.6 M 501.5 186.6 L 500.8 188 M 500.8 188 L 500.1 189.4 M 500.1 189.4 L 499.4 190.9 M 499.4 190.9 L 498.8 192.3 M 498.8 192.3 L 498.2 193.8 M 498.2 193.8 L 497.6 195.3 M 497.6 195.3 L 497.1 196.8 M 497.1 196.8 L 496.6 198.3 M 496.6 198.3 L 496.1 199.9 M 496.1 199.9 L 495.7 201.4 M 495.7 201.4 L 495.3 202.9 M 495.3 202.9 L 495 204.5 M 495 204.5 L 494.7 206.1 M 494.7 206.1 L 494.4 207.6 M 494.4 207.6 L 494.2 209.2 M 494.2 209.2 L 494.1 210.8 M 494.1 210.8 L 493.9 212.4 M 493.9 212.4 L 493.8 214 M 493.8 214 L 493.8 215.6 M 493.8 215.6 L 493.7 217.2 M 1173.7 242.2 L 1173.7 243.7 M 1173.7 243.7 L 1173.8 245.3 M 1173.8 245.3 L 1173.9 246.8 M 1173.9 246.8 L 1174 248.3 M 1174 248.3 L 1174.2 249.8 M 1174.2 249.8 L 1174.4 251.3 M 1174.4 251.3 L 1174.6 252.9 M 1174.6 252.9 L 1174.9 254.4 M 1174.9 254.4 L 1175.3 255.9 M 1175.3 255.9 L 1175.7 257.3 M 1175.7 257.3 L 1176.1 258.8 M 1176.1 258.8 L 1176.5 260.3 M 1176.5 260.3 L 1177 261.7 M 1177 261.7 L 1177.5 263.2 M 1177.5 263.2 L 1178.1 264.6 M 1178.1 264.6 L 1178.7 266 M 1178.7 266 L 1179.3 267.4 M 1179.3 267.4 L 1180 268.8 M 1180 268.8 L 1180.7 270.2 M 1180.7 270.2 L 1181.5 271.5 M 1181.5 271.5 L 1182.2 272.8 M 1182.2 272.8 L 1183.1 274.1 M 1183.1 274.1 L 1183.9 275.4 M 1183.9 275.4 L 1184.8 276.7 M 1184.8 276.7 L 1185.7 277.9 M 1185.7 277.9 L 1186.6 279.1 M 1186.6 279.1 L 1187.6 280.3 M 1187.6 280.3 L 1188.6 281.4 M 1188.6 281.4 L 1189.6 282.6 M 1189.6 282.6 L 1190.7 283.7 M 1190.7 283.7 L 1191.8 284.8 M 1191.8 284.8 L 1192.9 285.8 M 1192.9 285.8 L 1194.1 286.8 M 1194.1 286.8 L 1195.2 287.8 M 1195.2 287.8 L 1196.4 288.8 M 1196.4 288.8 L 1197.6 289.7 M 1197.6 289.7 L 1198.9 290.6 M 1198.9 290.6 L 1200.2 291.5 M 1200.2 291.5 L 1201.4 292.3 M 1201.4 292.3 L 1202.8 293.1 M 1202.8 293.1 L 1204.1 293.8 M 1204.1 293.8 L 1205.4 294.6 M 1205.4 294.6 L 1206.8 295.3 M 1206.8 295.3 L 1208.2 295.9 M 1208.2 295.9 L 1209.6 296.5 M 1209.6 296.5 L 1211 297.1 M 1211 297.1 L 1212.5 297.7 M 1212.5 297.7 L 1213.9 298.2 M 1213.9 298.2 L 1215.4 298.6 M 1215.4 298.6 L 1216.8 299.1 M 1216.8 299.1 L 1218.3 299.5 M 1218.3 299.5 L 1219.8 299.8 M 1219.8 299.8 L 1221.3 300.1 M 1221.3 300.1 L 1222.8 300.4 M 1222.8 300.4 L 1224.3 300.6 M 1224.3 300.6 L 1225.9 300.8 M 1225.9 300.8 L 1227.4 301 M 1227.4 301 L 1228.9 301.1 M 1228.9 301.1 L 1230.4 301.2 M 1230.4 301.2 L 1232 301.2 M 1232 301.2 L 1233.5 301.2 M 1233.5 301.2 L 1235 301.2 M 1235 301.2 L 1236.6 301.1 M 1236.6 301.1 L 1238.1 301 M 1238.1 301 L 1239.6 300.8 M 1239.6 300.8 L 1241.1 300.6 M 1241.1 300.6 L 1242.7 300.4 M 1242.7 300.4 L 1244.2 300.1 M 1244.2 300.1 L 1245.7 299.8 M 1245.7 299.8 L 1247.2 299.5 M 1247.2 299.5 L 1248.6 299.1 M 1248.6 299.1 L 1250.1 298.6 M 1250.1 298.6 L 1251.6 298.2 M 1251.6 298.2 L 1253 297.7 M 1253 297.7 L 1254.4 297.1 M 1254.4 297.1 L 1255.9 296.5 M 1255.9 296.5 L 1257.3 295.9 M 1257.3 295.9 L 1258.7 295.3 M 1258.7 295.3 L 1260 294.6 M 1260 294.6 L 1261.4 293.8 M 1261.4 293.8 L 1262.7 293.1 M 1262.7 293.1 L 1264 292.3 M 1264 292.3 L 1265.3 291.5 M 1265.3 291.5 L 1266.6 290.6 M 1266.6 290.6 L 1267.8 289.7 M 1267.8 289.7 L 1269 288.8 M 1269 288.8 L 1270.2 287.8 M 1270.2 287.8 L 1271.4 286.8 M 1271.4 286.8 L 1272.6 285.8 M 1272.6 285.8 L 1273.7 284.8 M 1273.7 284.8 L 1274.8 283.7 M 1274.8 283.7 L 1275.8 282.6 M 1275.8 282.6 L 1276.9 281.4 M 1276.9 281.4 L 1277.9 280.3 M 1277.9 280.3 L 1278.8 279.1 M 1278.8 279.1 L 1279.8 277.9 M 1279.8 277.9 L 1280.7 276.7 M 1280.7 276.7 L 1281.6 275.4 M 1281.6 275.4 L 1282.4 274.1 M 1282.4 274.1 L 1283.2 272.8 M 1283.2 272.8 L 1284 271.5 M 1284 271.5 L 1284.8 270.2 M 1284.8 270.2 L 1285.5 268.8 M 1285.5 268.8 L 1286.1 267.4 M 1286.1 267.4 L 1286.8 266 M 1286.8 266 L 1287.4 264.6 M 1287.4 264.6 L 1287.9 263.2 M 1287.9 263.2 L 1288.5 261.7 M 1288.5 261.7 L 1289 260.3 M 1289 260.3 L 1289.4 258.8 M 1289.4 258.8 L 1289.8 257.3 M 1289.8 257.3 L 1290.2 255.9 M 1290.2 255.9 L 1290.5 254.4 M 1290.5 254.4 L 1290.8 252.9 M 1290.8 252.9 L 1291.1 251.3 M 1291.1 251.3 L 1291.3 249.8 M 1291.3 249.8 L 1291.5 248.3 M 1291.5 248.3 L 1291.6 246.8 M 1291.6 246.8 L 1291.7 245.3 M 1291.7 245.3 L 1291.8 243.7 M 1291.8 243.7 L 1291.8 242.2 M 1291.8 242.2 L 1291.8 240.7 M 1291.8 240.7 L 1291.7 239.1 M 1291.7 239.1 L 1291.6 237.6 M 1291.6 237.6 L 1291.5 236.1 M 1291.5 236.1 L 1291.3 234.5 M 1291.3 234.5 L 1291.1 233 M 1291.1 233 L 1290.8 231.5 M 1290.8 231.5 L 1290.5 230 M 1290.5 230 L 1290.2 228.5 M 1290.2 228.5 L 1289.8 227 M 1289.8 227 L 1289.4 225.5 M 1289.4 225.5 L 1289 224.1 M 1289 224.1 L 1288.5 222.6 M 1288.5 222.6 L 1287.9 221.2 M 1287.9 221.2 L 1287.4 219.8 M 1287.4 219.8 L 1286.8 218.4 M 1286.8 218.4 L 1286.1 217 M 1286.1 217 L 1285.5 215.6 M 1285.5 215.6 L 1284.8 214.2 M 1284.8 214.2 L 1284 212.9 M 1284 212.9 L 1283.2 211.5 M 1283.2 211.5 L 1282.4 210.3 M 1282.4 210.3 L 1281.6 209 M 1281.6 209 L 1280.7 207.7 M 1280.7 207.7 L 1279.8 206.5 M 1279.8 206.5 L 1278.8 205.3 M 1278.8 205.3 L 1277.9 204.1 M 1277.9 204.1 L 1276.9 202.9 M 1276.9 202.9 L 1275.8 201.8 M 1275.8 201.8 L 1274.8 200.7 M 1274.8 200.7 L 1273.7 199.6 M 1273.7 199.6 L 1272.6 198.6 M 1272.6 198.6 L 1271.4 197.6 M 1271.4 197.6 L 1270.2 196.6 M 1270.2 196.6 L 1269 195.6 M 1269 195.6 L 1267.8 194.7 M 1267.8 194.7 L 1266.6 193.8 M 1266.6 193.8 L 1265.3 192.9 M 1265.3 192.9 L 1264 192.1 M 1264 192.1 L 1262.7 191.3 M 1262.7 191.3 L 1261.4 190.5 M 1261.4 190.5 L 1260 189.8 M 1260 189.8 L 1258.7 189.1 M 1258.7 189.1 L 1257.3 188.5 M 1257.3 188.5 L 1255.9 187.8 M 1255.9 187.8 L 1254.4 187.3 M 1254.4 187.3 L 1253 186.7 M 1253 186.7 L 1251.6 186.2 M 1251.6 186.2 L 1250.1 185.7 M 1250.1 185.7 L 1248.6 185.3 M 1248.6 185.3 L 1247.2 184.9 M 1247.2 184.9 L 1245.7 184.6 M 1245.7 184.6 L 1244.2 184.2 M 1244.2 184.2 L 1242.7 184 M 1242.7 184 L 1241.1 183.7 M 1241.1 183.7 L 1239.6 183.5 M 1239.6 183.5 L 1238.1 183.4 M 1238.1 183.4 L 1236.6 183.2 M 1236.6 183.2 L 1235 183.2 M 1235 183.2 L 1233.5 183.1 M 1233.5 183.1 L 1232 183.1 M 1232 183.1 L 1230.4 183.2 M 1230.4 183.2 L 1228.9 183.2 M 1228.9 183.2 L 1227.4 183.4 M 1227.4 183.4 L 1225.9 183.5 M 1225.9 183.5 L 1224.3 183.7 M 1224.3 183.7 L 1222.8 184 M 1222.8 184 L 1221.3 184.2 M 1221.3 184.2 L 1219.8 184.6 M 1219.8 184.6 L 1218.3 184.9 M 1218.3 184.9 L 1216.8 185.3 M 1216.8 185.3 L 1215.4 185.7 M 1215.4 185.7 L 1213.9 186.2 M 1213.9 186.2 L 1212.5 186.7 M 1212.5 186.7 L 1211 187.3 M 1211 187.3 L 1209.6 187.8 M 1209.6 187.8 L 1208.2 188.5 M 1208.2 188.5 L 1206.8 189.1 M 1206.8 189.1 L 1205.4 189.8 M 1205.4 189.8 L 1204.1 190.5 M 1204.1 190.5 L 1202.8 191.3 M 1202.8 191.3 L 1201.4 192.1 M 1201.4 192.1 L 1200.2 192.9 M 1200.2 192.9 L 1198.9 193.8 M 1198.9 193.8 L 1197.6 194.7 M 1197.6 194.7 L 1196.4 195.6 M 1196.4 195.6 L 1195.2 196.6 M 1195.2 196.6 L 1194.1 197.6 M 1194.1 197.6 L 1192.9 198.6 M 1192.9 198.6 L 1191.8 199.6 M 1191.8 199.6 L 1190.7 200.7 M 1190.7 200.7 L 1189.6 201.8 M 1189.6 201.8 L 1188.6 202.9 M 1188.6 202.9 L 1187.6 204.1 M 1187.6 204.1 L 1186.6 205.3 M 1186.6 205.3 L 1185.7 206.5 M 1185.7 206.5 L 1184.8 207.7 M 1184.8 207.7 L 1183.9 209 M 1183.9 209 L 1183.1 210.3 M 1183.1 210.3 L 1182.2 211.5 M 1182.2 211.5 L 1181.5 212.9 M 1181.5 212.9 L 1180.7 214.2 M 1180.7 214.2 L 1180 215.6 M 1180 215.6 L 1179.3 217 M 1179.3 217 L 1178.7 218.4 M 1178.7 218.4 L 1178.1 219.8 M 1178.1 219.8 L 1177.5 221.2 M 1177.5 221.2 L 1177 222.6 M 1177 222.6 L 1176.5 224.1 M 1176.5 224.1 L 1176.1 225.5 M 1176.1 225.5 L 1175.7 227 M 1175.7 227 L 1175.3 228.5 M 1175.3 228.5 L 1174.9 230 M 1174.9 230 L 1174.6 231.5 M 1174.6 231.5 L 1174.4 233 M 1174.4 233 L 1174.2 234.5 M 1174.2 234.5 L 1174 236.1 M 1174 236.1 L 1173.9 237.6 M 1173.9 237.6 L 1173.8 239.1 M 1173.8 239.1 L 1173.7 240.7 M 1173.7 240.7 L 1173.7 242.2 M 723.7 1267.2 L 723.7 1268.7 M 723.7 1268.7 L 723.8 1270.3 M 723.8 1270.3 L 723.9 1271.8 M 723.9 1271.8 L 724 1273.3 M 724 1273.3 L 724.2 1274.8 M 724.2 1274.8 L 724.4 1276.3 M 724.4 1276.3 L 724.6 1277.9 M 724.6 1277.9 L 724.9 1279.4 M 724.9 1279.4 L 725.3 1280.9 M 725.3 1280.9 L 725.7 1282.3 M 725.7 1282.3 L 726.1 1283.8 M 726.1 1283.8 L 726.5 1285.3 M 726.5 1285.3 L 727 1286.7 M 727 1286.7 L 727.5 1288.2 M 727.5 1288.2 L 728.1 1289.6 M 728.1 1289.6 L 728.7 1291 M 728.7 1291 L 729.3 1292.4 M 729.3 1292.4 L 730 1293.8 M 730 1293.8 L 730.7 1295.2 M 730.7 1295.2 L 731.5 1296.5 M 731.5 1296.5 L 732.2 1297.8 M 732.2 1297.8 L 733.1 1299.1 M 733.1 1299.1 L 733.9 1300.4 M 733.9 1300.4 L 734.8 1301.7 M 734.8 1301.7 L 735.7 1302.9 M 735.7 1302.9 L 736.6 1304.1 M 736.6 1304.1 L 737.6 1305.3 M 737.6 1305.3 L 738.6 1306.4 M 738.6 1306.4 L 739.6 1307.6 M 739.6 1307.6 L 740.7 1308.7 M 740.7 1308.7 L 741.8 1309.8 M 741.8 1309.8 L 742.9 1310.8 M 742.9 1310.8 L 744.1 1311.8 M 744.1 1311.8 L 745.2 1312.8 M 745.2 1312.8 L 746.4 1313.8 M 746.4 1313.8 L 747.6 1314.7 M 747.6 1314.7 L 748.9 1315.6 M 748.9 1315.6 L 750.2 1316.5 M 750.2 1316.5 L 751.5 1317.3 M 751.5 1317.3 L 752.8 1318.1 M 752.8 1318.1 L 754.1 1318.8 M 754.1 1318.8 L 755.4 1319.6 M 755.4 1319.6 L 756.8 1320.3 M 756.8 1320.3 L 758.2 1320.9 M 758.2 1320.9 L 759.6 1321.5 M 759.6 1321.5 L 761 1322.1 M 761 1322.1 L 762.5 1322.7 M 762.5 1322.7 L 763.9 1323.2 M 763.9 1323.2 L 765.4 1323.6 M 765.4 1323.6 L 766.8 1324.1 M 766.8 1324.1 L 768.3 1324.5 M 768.3 1324.5 L 769.8 1324.8 M 769.8 1324.8 L 771.3 1325.1 M 771.3 1325.1 L 772.8 1325.4 M 772.8 1325.4 L 774.3 1325.6 M 774.3 1325.6 L 775.9 1325.8 M 775.9 1325.8 L 777.4 1326 M 777.4 1326 L 778.9 1326.1 M 778.9 1326.1 L 780.4 1326.2 M 780.4 1326.2 L 782 1326.2 M 782 1326.2 L 783.5 1326.2 M 783.5 1326.2 L 785 1326.2 M 785 1326.2 L 786.6 1326.1 M 786.6 1326.1 L 788.1 1326 M 788.1 1326 L 789.6 1325.8 M 789.6 1325.8 L 791.1 1325.6 M 791.1 1325.6 L 792.7 1325.4 M 792.7 1325.4 L 794.2 1325.1 M 794.2 1325.1 L 795.7 1324.8 M 795.7 1324.8 L 797.2 1324.5 M 797.2 1324.5 L 798.6 1324.1 M 798.6 1324.1 L 800.1 1323.6 M 800.1 1323.6 L 801.6 1323.2 M 801.6 1323.2 L 803 1322.7 M 803 1322.7 L 804.4 1322.1 M 804.4 1322.1 L 805.9 1321.5 M 805.9 1321.5 L 807.3 1320.9 M 807.3 1320.9 L 808.7 1320.3 M 808.7 1320.3 L 810 1319.6 M 810 1319.6 L 811.4 1318.8 M 811.4 1318.8 L 812.7 1318.1 M 812.7 1318.1 L 814 1317.3 M 814 1317.3 L 815.3 1316.5 M 815.3 1316.5 L 816.6 1315.6 M 816.6 1315.6 L 817.8 1314.7 M 817.8 1314.7 L 819 1313.8 M 819 1313.8 L 820.2 1312.8 M 820.2 1312.8 L 821.4 1311.8 M 821.4 1311.8 L 822.6 1310.8 M 822.6 1310.8 L 823.7 1309.8 M 823.7 1309.8 L 824.8 1308.7 M 824.8 1308.7 L 825.8 1307.6 M 825.8 1307.6 L 826.9 1306.4 M 826.9 1306.4 L 827.9 1305.3 M 827.9 1305.3 L 828.8 1304.1 M 828.8 1304.1 L 829.8 1302.9 M 829.8 1302.9 L 830.7 1301.7 M 830.7 1301.7 L 831.6 1300.4 M 831.6 1300.4 L 832.4 1299.1 M 832.4 1299.1 L 833.2 1297.8 M 833.2 1297.8 L 834 1296.5 M 834 1296.5 L 834.8 1295.2 M 834.8 1295.2 L 835.5 1293.8 M 835.5 1293.8 L 836.1 1292.4 M 836.1 1292.4 L 836.8 1291 M 836.8 1291 L 837.4 1289.6 M 837.4 1289.6 L 837.9 1288.2 M 837.9 1288.2 L 838.5 1286.7 M 838.5 1286.7 L 839 1285.3 M 839 1285.3 L 839.4 1283.8 M 839.4 1283.8 L 839.8 1282.3 M 839.8 1282.3 L 840.2 1280.9 M 840.2 1280.9 L 840.5 1279.4 M 840.5 1279.4 L 840.8 1277.9 M 840.8 1277.9 L 841.1 1276.3 M 841.1 1276.3 L 841.3 1274.8 M 841.3 1274.8 L 841.5 1273.3 M 841.5 1273.3 L 841.6 1271.8 M 841.6 1271.8 L 841.7 1270.3 M 841.7 1270.3 L 841.8 1268.7 M 841.8 1268.7 L 841.8 1267.2 M 841.8 1267.2 L 841.8 1265.6 M 841.8 1265.6 L 841.7 1264.1 M 841.7 1264.1 L 841.6 1262.6 M 841.6 1262.6 L 841.5 1261.1 M 841.5 1261.1 L 841.3 1259.5 M 841.3 1259.5 L 841.1 1258 M 841.1 1258 L 840.8 1256.5 M 840.8 1256.5 L 840.5 1255 M 840.5 1255 L 840.2 1253.5 M 840.2 1253.5 L 839.8 1252 M 839.8 1252 L 839.4 1250.5 M 839.4 1250.5 L 839 1249.1 M 839 1249.1 L 838.5 1247.6 M 838.5 1247.6 L 837.9 1246.2 M 837.9 1246.2 L 837.4 1244.8 M 837.4 1244.8 L 836.8 1243.4 M 836.8 1243.4 L 836.1 1242 M 836.1 1242 L 835.5 1240.6 M 835.5 1240.6 L 834.8 1239.2 M 834.8 1239.2 L 834 1237.9 M 834 1237.9 L 833.2 1236.6 M 833.2 1236.6 L 832.4 1235.3 M 832.4 1235.3 L 831.6 1234 M 831.6 1234 L 830.7 1232.7 M 830.7 1232.7 L 829.8 1231.5 M 829.8 1231.5 L 828.8 1230.3 M 828.8 1230.3 L 827.9 1229.1 M 827.9 1229.1 L 826.9 1227.9 M 826.9 1227.9 L 825.8 1226.8 M 825.8 1226.8 L 824.8 1225.7 M 824.8 1225.7 L 823.7 1224.6 M 823.7 1224.6 L 822.6 1223.6 M 822.6 1223.6 L 821.4 1222.6 M 821.4 1222.6 L 820.2 1221.6 M 820.2 1221.6 L 819 1220.6 M 819 1220.6 L 817.8 1219.7 M 817.8 1219.7 L 816.6 1218.8 M 816.6 1218.8 L 815.3 1217.9 M 815.3 1217.9 L 814 1217.1 M 814 1217.1 L 812.7 1216.3 M 812.7 1216.3 L 811.4 1215.5 M 811.4 1215.5 L 810 1214.8 M 810 1214.8 L 808.7 1214.1 M 808.7 1214.1 L 807.3 1213.5 M 807.3 1213.5 L 805.9 1212.8 M 805.9 1212.8 L 804.4 1212.3 M 804.4 1212.3 L 803 1211.7 M 803 1211.7 L 801.6 1211.2 M 801.6 1211.2 L 800.1 1210.7 M 800.1 1210.7 L 798.6 1210.3 M 798.6 1210.3 L 797.2 1209.9 M 797.2 1209.9 L 795.7 1209.6 M 795.7 1209.6 L 794.2 1209.2 M 794.2 1209.2 L 792.7 1209 M 792.7 1209 L 791.1 1208.7 M 791.1 1208.7 L 789.6 1208.5 M 789.6 1208.5 L 788.1 1208.4 M 788.1 1208.4 L 786.6 1208.2 M 786.6 1208.2 L 785 1208.2 M 785 1208.2 L 783.5 1208.1 M 783.5 1208.1 L 782 1208.1 M 782 1208.1 L 780.4 1208.2 M 780.4 1208.2 L 778.9 1208.2 M 778.9 1208.2 L 777.4 1208.4 M 777.4 1208.4 L 775.9 1208.5 M 775.9 1208.5 L 774.3 1208.7 M 774.3 1208.7 L 772.8 1209 M 772.8 1209 L 771.3 1209.2 M 771.3 1209.2 L 769.8 1209.6 M 769.8 1209.6 L 768.3 1209.9 M 768.3 1209.9 L 766.8 1210.3 M 766.8 1210.3 L 765.4 1210.7 M 765.4 1210.7 L 763.9 1211.2 M 763.9 1211.2 L 762.5 1211.7 M 762.5 1211.7 L 761 1212.3 M 761 1212.3 L 759.6 1212.8 M 759.6 1212.8 L 758.2 1213.5 M 758.2 1213.5 L 756.8 1214.1 M 756.8 1214.1 L 755.4 1214.8 M 755.4 1214.8 L 754.1 1215.5 M 754.1 1215.5 L 752.8 1216.3 M 752.8 1216.3 L 751.5 1217.1 M 751.5 1217.1 L 750.2 1217.9 M 750.2 1217.9 L 748.9 1218.8 M 748.9 1218.8 L 747.6 1219.7 M 747.6 1219.7 L 746.4 1220.6 M 746.4 1220.6 L 745.2 1221.6 M 745.2 1221.6 L 744.1 1222.6 M 744.1 1222.6 L 742.9 1223.6 M 742.9 1223.6 L 741.8 1224.6 M 741.8 1224.6 L 740.7 1225.7 M 740.7 1225.7 L 739.6 1226.8 M 739.6 1226.8 L 738.6 1227.9 M 738.6 1227.9 L 737.6 1229.1 M 737.6 1229.1 L 736.6 1230.3 M 736.6 1230.3 L 735.7 1231.5 M 735.7 1231.5 L 734.8 1232.7 M 734.8 1232.7 L 733.9 1234 M 733.9 1234 L 733.1 1235.3 M 733.1 1235.3 L 732.2 1236.6 M 732.2 1236.6 L 731.5 1237.9 M 731.5 1237.9 L 730.7 1239.2 M 730.7 1239.2 L 730 1240.6 M 730 1240.6 L 729.3 1242 M 729.3 1242 L 728.7 1243.4 M 728.7 1243.4 L 728.1 1244.8 M 728.1 1244.8 L 727.5 1246.2 M 727.5 1246.2 L 727 1247.6 M 727 1247.6 L 726.5 1249.1 M 726.5 1249.1 L 726.1 1250.5 M 726.1 1250.5 L 725.7 1252 M 725.7 1252 L 725.3 1253.5 M 725.3 1253.5 L 724.9 1255 M 724.9 1255 L 724.6 1256.5 M 724.6 1256.5 L 724.4 1258 M 724.4 1258 L 724.2 1259.5 M 724.2 1259.5 L 724 1261.1 M 724 1261.1 L 723.9 1262.6 M 723.9 1262.6 L 723.8 1264.1 M 723.8 1264.1 L 723.7 1265.6 M 723.7 1265.6 L 723.7 1267.2"/><path stroke-width="4" fill="none" d="M 970.6 1098.7 L 970.6 1091 M 970.6 1075.7 L 970.6 1045 M 978.3 1045 L 963 1045 M 993.7 1045 L 993.7 1068 M 993.7 1068 L 1001.3 1075.7 M 1001.3 1075.7 L 1016.7 1075.7 M 1016.7 1075.7 L 1024.4 1068 M 1024.4 1045 L 1024.4 1091 M 1070.4 1120 L 1101.1 1120 M 1101.1 1120 L 1070.4 1150.7 M 1070.4 1150.7 L 1070.4 1158.3 M 1070.4 1158.3 L 1078.1 1166 M 1078.1 1166 L 1093.4 1166 M 1093.4 1166 L 1101.1 1158.3 M 1116.4 1127.6 L 1116.4 1120 M 1116.4 1120 L 1124.1 1120 M 1124.1 1120 L 1124.1 1127.6 M 1124.1 1127.6 L 1116.4 1127.6 M 1139.5 1127.6 L 1147.1 1120 M 1147.1 1120 L 1162.5 1120 M 1162.5 1120 L 1170.1 1127.6 M 1170.1 1127.6 L 1139.5 1158.3 M 1139.5 1158.3 L 1139.5 1127.6 M 1139.5 1158.3 L 1147.1 1166 M 1147.1 1166 L 1162.5 1166 M 1162.5 1166 L 1170.1 1158.3 M 1170.1 1158.3 L 1170.1 1127.6 M 1185.5 1150.7 L 1200.8 1120 M 1200.8 1120 L 1216.2 1150.7 M 1193.2 1195 L 1193.2 1241 M 1193.2 1241 L 1177.8 1225.7 M 1177.8 1225.7 L 1162.5 1241 M 1162.5 1241 L 1162.5 1195 M 1147.1 1195 L 1131.8 1195 M 1139.5 1195 L 1139.5 1225.7 M 1139.5 1225.7 L 1147.1 1225.7 M 1139.5 1241 L 1139.5 1248.7 M 1116.4 1225.7 L 1093.4 1225.7 M 1093.4 1225.7 L 1085.7 1218 M 1085.7 1218 L 1085.7 1195 M 1070.4 1195 L 1055.1 1195 M 1062.7 1195 L 1062.7 1225.7 M 1062.7 1225.7 L 1070.4 1225.7 M 1062.7 1241 L 1062.7 1248.7 M 1116.4 1225.7 L 1116.4 1195 M 1108.8 1075.7 L 1085.7 1075.7 M 1093.4 1060.3 L 1085.7 1052.6 M 1085.7 1052.6 L 1093.4 1045 M 1093.4 1045 L 1116.4 1045 M 1131.8 1045 L 1154.8 1045 M 1154.8 1045 L 1162.5 1052.6 M 1162.5 1052.6 L 1162.5 1075.7 M 1177.8 1068 L 1177.8 1045 M 1177.8 1045 L 1200.8 1045 M 1200.8 1045 L 1208.5 1052.6 M 1208.5 1052.6 L 1200.8 1060.3 M 1200.8 1060.3 L 1177.8 1060.3 M 1177.8 1068 L 1185.5 1075.7 M 1185.5 1075.7 L 1200.8 1075.7 M 1223.9 1075.7 L 1246.9 1075.7 M 1246.9 1075.7 L 1254.6 1068 M 1254.6 1068 L 1246.9 1060.3 M 1246.9 1060.3 L 1231.5 1060.3 M 1231.5 1060.3 L 1223.9 1052.6 M 1223.9 1052.6 L 1231.5 1045 M 1231.5 1045 L 1254.6 1045 M 1315.9 1045 L 1339 1060.3 M 1339 1060.3 L 1315.9 1075.7 M 1339 1091 L 1339 1045 M 1354.3 1045 L 1377.3 1045 M 1377.3 1045 L 1385 1052.6 M 1385 1052.6 L 1377.3 1060.3 M 1377.3 1060.3 L 1354.3 1060.3 M 1354.3 1068 L 1354.3 1045 M 1354.3 1068 L 1362 1075.7 M 1362 1075.7 L 1377.3 1075.7 M 1400.3 1075.7 L 1408 1075.7 M 1408 1075.7 L 1423.4 1060.3 M 1423.4 1045 L 1423.4 1075.7 M 1438.7 1075.7 L 1446.4 1075.7 M 1446.4 1075.7 L 1461.7 1060.3 M 1461.7 1045 L 1461.7 1075.7 M 1477.1 1068 L 1477.1 1052.6 M 1477.1 1052.6 L 1484.8 1045 M 1484.8 1045 L 1500.1 1045 M 1500.1 1045 L 1507.8 1052.6 M 1507.8 1052.6 L 1507.8 1068 M 1507.8 1068 L 1500.1 1075.7 M 1500.1 1075.7 L 1484.8 1075.7 M 1484.8 1075.7 L 1477.1 1068 M 1523.1 1068 L 1523.1 1045 M 1523.1 1068 L 1530.8 1075.7 M 1530.8 1075.7 L 1546.1 1075.7 M 1546.1 1075.7 L 1553.8 1068 M 1569.2 1075.7 L 1584.5 1075.7 M 1576.8 1083.3 L 1576.8 1052.6 M 1576.8 1052.6 L 1569.2 1045 M 1553.8 1045 L 1553.8 1091 M 1561.5 1120 L 1553.8 1127.6 M 1553.8 1127.6 L 1553.8 1143 M 1553.8 1143 L 1561.5 1150.7 M 1561.5 1150.7 L 1576.8 1150.7 M 1576.8 1150.7 L 1584.5 1143 M 1584.5 1143 L 1584.5 1127.6 M 1584.5 1127.6 L 1576.8 1120 M 1576.8 1120 L 1561.5 1120 M 1599.8 1120 L 1599.8 1166 M 1607.5 1195 L 1630.5 1195 M 1630.5 1195 L 1630.5 1241 M 1630.5 1241 L 1607.5 1241 M 1607.5 1241 L 1599.8 1233.3 M 1599.8 1233.3 L 1599.8 1225.7 M 1599.8 1225.7 L 1607.5 1218 M 1607.5 1218 L 1630.5 1218 M 1607.5 1218 L 1599.8 1210.3 M 1599.8 1210.3 L 1599.8 1202.6 M 1599.8 1202.6 L 1607.5 1195 M 1584.5 1195 L 1584.5 1225.7 M 1584.5 1210.3 L 1569.2 1225.7 M 1569.2 1225.7 L 1561.5 1225.7 M 1546.1 1218 L 1546.1 1202.6 M 1546.1 1202.6 L 1538.5 1195 M 1538.5 1195 L 1523.1 1195 M 1515.4 1210.3 L 1546.1 1210.3 M 1546.1 1218 L 1538.5 1225.7 M 1538.5 1225.7 L 1523.1 1225.7 M 1523.1 1225.7 L 1515.4 1218 M 1515.4 1218 L 1515.4 1210.3 M 1500.1 1202.6 L 1492.4 1195 M 1492.4 1195 L 1484.8 1202.6 M 1484.8 1202.6 L 1477.1 1195 M 1477.1 1195 L 1469.4 1202.6 M 1469.4 1202.6 L 1469.4 1225.7 M 1454.1 1241 L 1431 1241 M 1431 1241 L 1423.4 1233.3 M 1423.4 1233.3 L 1423.4 1218 M 1423.4 1218 L 1431 1210.3 M 1431 1210.3 L 1454.1 1210.3 M 1454.1 1195 L 1454.1 1241 M 1500.1 1225.7 L 1500.1 1202.6 M 1492.4 1166 L 1492.4 1120 M 1492.4 1120 L 1461.7 1120 M 1446.4 1127.6 L 1438.7 1120 M 1438.7 1120 L 1423.4 1120 M 1423.4 1120 L 1415.7 1127.6 M 1400.3 1120 L 1377.3 1120 M 1377.3 1120 L 1369.7 1127.6 M 1369.7 1127.6 L 1369.7 1158.3 M 1369.7 1158.3 L 1377.3 1166 M 1377.3 1166 L 1400.3 1166 M 1400.3 1166 L 1400.3 1120 M 1415.7 1158.3 L 1423.4 1166 M 1423.4 1166 L 1438.7 1166 M 1438.7 1166 L 1446.4 1158.3 M 1446.4 1158.3 L 1446.4 1127.6 M 1408 1195 L 1392.7 1195 M 1400.3 1195 L 1400.3 1225.7 M 1400.3 1225.7 L 1408 1225.7 M 1400.3 1241 L 1400.3 1248.7 M 1331.3 1241 L 1331.3 1195 M 1331.3 1195 L 1308.3 1195 M 1308.3 1195 L 1300.6 1202.6 M 1300.6 1202.6 L 1300.6 1233.3 M 1300.6 1233.3 L 1308.3 1241 M 1308.3 1241 L 1331.3 1241 M 1285.2 1225.7 L 1269.9 1241 M 1269.9 1241 L 1269.9 1195 M 1285.2 1195 L 1254.6 1195 M 1277.6 1143 L 1308.3 1143 M 1131.8 1075.7 L 1131.8 1037.3 M 1131.8 1037.3 L 1139.5 1029.6 M 1139.5 1029.6 L 1147.1 1029.6 M 1108.8 1060.3 L 1116.4 1068 M 1116.4 1068 L 1108.8 1075.7 M 1108.8 1060.3 L 1093.4 1060.3 M 978.3 1075.7 L 970.6 1075.7 M 1599.8 1068 L 1607.5 1060.3 M 1607.5 1060.3 L 1607.5 1075.7 M 1607.5 1075.7 L 1622.9 1075.7 M 1622.9 1075.7 L 1622.9 1060.3 M 1622.9 1060.3 L 1607.5 1060.3 M 1599.8 1052.6 L 1607.5 1045 M 1607.5 1045 L 1622.9 1045 M 1622.9 1045 L 1630.5 1052.6 M 1630.5 1052.6 L 1630.5 1083.3 M 1630.5 1083.3 L 1622.9 1091 M 1622.9 1091 L 1607.5 1091 M 1607.5 1091 L 1599.8 1083.3 M 1599.8 1083.3 L 1599.8 1068 M 1599.8 1120 L 1630.5 1166 M 1630.5 1166 L 1630.5 1120"/><path stroke-width="3" fill="none" d="M 1606 841.5 L 1587.5 841.5 M 1587.5 841.5 L 1581.4 835.3 M 1581.4 835.3 L 1581.4 810.6 M 1581.4 810.6 L 1587.5 804.5 M 1587.5 804.5 L 1606 804.5 M 1606 804.5 L 1606 841.5 M 1569.2 835.3 L 1569.2 810.6 M 1569.2 810.6 L 1544.5 835.3 M 1544.5 835.3 L 1544.5 810.6 M 1544.5 810.6 L 1550.7 804.5 M 1550.7 804.5 L 1563 804.5 M 1563 804.5 L 1569.2 810.6 M 1569.2 835.3 L 1563 841.5 M 1563 841.5 L 1550.7 841.5 M 1550.7 841.5 L 1544.5 835.3 M 1495.5 823 L 1470.9 823 M 1421.9 823 L 1397.2 823 M 1385.1 823 L 1385.1 810.6 M 1385.1 810.6 L 1378.9 804.5 M 1378.9 804.5 L 1366.5 804.5 M 1360.4 816.8 L 1385.1 816.8 M 1385.1 823 L 1378.9 829.2 M 1378.9 829.2 L 1366.5 829.2 M 1366.5 829.2 L 1360.4 823 M 1360.4 823 L 1360.4 816.8 M 1348.2 810.6 L 1342 804.5 M 1342 804.5 L 1323.5 804.5 M 1323.5 804.5 L 1323.5 823 M 1323.5 823 L 1329.7 829.2 M 1329.7 829.2 L 1342 829.2 M 1342 816.8 L 1323.5 816.8 M 1311.4 829.2 L 1299 829.2 M 1305.2 835.3 L 1305.2 810.6 M 1305.2 810.6 L 1299 804.5 M 1280.7 781.5 L 1286.8 775.3 M 1286.8 775.3 L 1286.8 769.2 M 1286.8 769.2 L 1280.7 763 M 1280.7 763 L 1268.3 763 M 1268.3 763 L 1262.1 756.8 M 1262.1 756.8 L 1262.1 750.6 M 1262.1 750.6 L 1268.3 744.5 M 1268.3 744.5 L 1280.7 744.5 M 1280.7 744.5 L 1286.8 750.6 M 1280.7 721.5 L 1268.3 721.5 M 1268.3 721.5 L 1262.1 715.3 M 1250 721.5 L 1231.5 721.5 M 1231.5 721.5 L 1225.3 715.3 M 1225.3 715.3 L 1225.3 690.6 M 1225.3 690.6 L 1231.5 684.5 M 1231.5 684.5 L 1250 684.5 M 1250 684.5 L 1250 721.5 M 1268.3 703 L 1262.1 696.8 M 1262.1 696.8 L 1262.1 690.6 M 1262.1 690.6 L 1268.3 684.5 M 1268.3 684.5 L 1280.7 684.5 M 1280.7 684.5 L 1286.8 690.6 M 1280.7 703 L 1268.3 703 M 1280.7 703 L 1286.8 709.2 M 1286.8 709.2 L 1286.8 715.3 M 1286.8 715.3 L 1280.7 721.5 M 1250 750.6 L 1243.8 744.5 M 1243.8 744.5 L 1231.5 744.5 M 1231.5 744.5 L 1225.3 750.6 M 1213.2 744.5 L 1188.5 744.5 M 1213.2 744.5 L 1213.2 781.5 M 1225.3 775.3 L 1231.5 781.5 M 1231.5 781.5 L 1243.8 781.5 M 1243.8 781.5 L 1250 775.3 M 1250 775.3 L 1250 750.6 M 1262.1 775.3 L 1268.3 781.5 M 1268.3 781.5 L 1280.7 781.5 M 1335.8 775.3 L 1342 781.5 M 1342 781.5 L 1354.3 781.5 M 1354.3 781.5 L 1360.5 775.3 M 1360.5 775.3 L 1360.5 750.6 M 1360.5 750.6 L 1354.3 744.5 M 1354.3 744.5 L 1342 744.5 M 1342 744.5 L 1335.8 750.6 M 1372.6 744.5 L 1397.3 744.5 M 1397.3 744.5 L 1372.6 769.2 M 1372.6 769.2 L 1372.6 775.3 M 1372.6 775.3 L 1378.8 781.5 M 1378.8 781.5 L 1391.2 781.5 M 1391.2 781.5 L 1397.3 775.3 M 1409.5 781.5 L 1421.9 781.5 M 1415.7 781.5 L 1415.7 744.5 M 1421.9 744.5 L 1409.5 744.5 M 1409.5 721.5 L 1421.9 721.5 M 1415.7 721.5 L 1415.7 684.5 M 1421.9 684.5 L 1409.5 684.5 M 1397.3 684.5 L 1372.6 709.2 M 1372.6 709.2 L 1372.6 715.3 M 1372.6 715.3 L 1378.8 721.5 M 1378.8 721.5 L 1391.2 721.5 M 1391.2 721.5 L 1397.3 715.3 M 1397.3 684.5 L 1372.6 684.5 M 1360.5 690.6 L 1354.3 684.5 M 1354.3 684.5 L 1342 684.5 M 1342 684.5 L 1335.8 690.6 M 1360.5 690.6 L 1360.5 715.3 M 1360.5 715.3 L 1354.3 721.5 M 1354.3 721.5 L 1342 721.5 M 1342 721.5 L 1335.8 715.3 M 1397.2 804.5 L 1397.2 841.5 M 1421.9 841.5 L 1421.9 804.5 M 1470.9 763 L 1495.5 763 M 1544.5 744.5 L 1569.2 744.5 M 1556.9 744.5 L 1556.9 781.5 M 1556.9 781.5 L 1569.2 769.2 M 1581.4 775.3 L 1581.4 750.6 M 1581.4 750.6 L 1587.5 744.5 M 1587.5 744.5 L 1606 744.5 M 1606 744.5 L 1606 781.5 M 1606 781.5 L 1587.5 781.5 M 1587.5 781.5 L 1581.4 775.3 M 1587.5 721.5 L 1606 721.5 M 1606 721.5 L 1606 684.5 M 1606 684.5 L 1587.5 684.5 M 1587.5 684.5 L 1581.4 690.6 M 1581.4 690.6 L 1581.4 715.3 M 1581.4 715.3 L 1587.5 721.5 M 1569.2 715.3 L 1563 721.5 M 1563 721.5 L 1550.7 721.5 M 1550.7 721.5 L 1544.5 715.3 M 1544.5 715.3 L 1544.5 709.2 M 1544.5 709.2 L 1569.2 684.5 M 1569.2 684.5 L 1544.5 684.5 M 1495.5 703 L 1470.9 703 M 1415.7 601.5 L 1403.4 601.5 M 1403.4 601.5 L 1397.2 595.3 M 1385.1 583 L 1385.1 570.6 M 1385.1 570.6 L 1378.9 564.5 M 1378.9 564.5 L 1366.5 564.5 M 1366.5 564.5 L 1360.4 570.6 M 1360.4 570.6 L 1360.4 583 M 1360.4 583 L 1366.5 589.2 M 1366.5 589.2 L 1378.9 589.2 M 1378.9 589.2 L 1385.1 583 M 1397.2 570.6 L 1403.4 564.5 M 1403.4 564.5 L 1415.7 564.5 M 1415.7 564.5 L 1421.9 570.6 M 1421.9 570.6 L 1421.9 595.3 M 1421.9 595.3 L 1415.7 601.5 M 1470.9 583 L 1495.5 583 M 1544.5 583 L 1544.5 570.6 M 1544.5 570.6 L 1550.7 564.5 M 1550.7 564.5 L 1563 564.5 M 1563 564.5 L 1569.2 570.6 M 1581.4 570.6 L 1581.4 595.3 M 1581.4 595.3 L 1587.5 601.5 M 1587.5 601.5 L 1606 601.5 M 1606 601.5 L 1606 564.5 M 1606 564.5 L 1587.5 564.5 M 1587.5 564.5 L 1581.4 570.6 M 1569.2 583 L 1556.9 589.2 M 1556.9 589.2 L 1550.7 589.2 M 1550.7 589.2 L 1544.5 583 M 1544.5 601.5 L 1569.2 601.5 M 1569.2 601.5 L 1569.2 583 M 1587.5 541.5 L 1606 541.5 M 1606 541.5 L 1606 504.5 M 1606 504.5 L 1587.5 504.5 M 1587.5 504.5 L 1581.4 510.6 M 1581.4 510.6 L 1581.4 535.3 M 1581.4 535.3 L 1587.5 541.5 M 1569.2 523 L 1550.7 523 M 1550.7 523 L 1544.5 516.8 M 1544.5 516.8 L 1544.5 510.6 M 1544.5 510.6 L 1550.7 504.5 M 1550.7 504.5 L 1563 504.5 M 1563 504.5 L 1569.2 510.6 M 1569.2 510.6 L 1569.2 523 M 1569.2 523 L 1556.9 535.3 M 1556.9 535.3 L 1544.5 541.5 M 1495.5 523 L 1470.9 523 M 1421.9 510.6 L 1415.7 504.5 M 1415.7 504.5 L 1403.4 504.5 M 1403.4 504.5 L 1397.2 510.6 M 1397.2 510.6 L 1397.2 535.3 M 1397.2 535.3 L 1403.4 541.5 M 1403.4 541.5 L 1415.7 541.5 M 1415.7 541.5 L 1421.9 535.3 M 1421.9 535.3 L 1421.9 510.6 M 1421.9 481.5 L 1403.4 481.5 M 1403.4 481.5 L 1397.2 475.3 M 1397.2 475.3 L 1397.2 450.6 M 1397.2 450.6 L 1403.4 444.5 M 1403.4 444.5 L 1421.9 444.5 M 1421.9 444.5 L 1421.9 481.5 M 1385.1 463 L 1385.1 450.6 M 1385.1 450.6 L 1378.9 444.5 M 1378.9 444.5 L 1366.5 444.5 M 1366.5 444.5 L 1360.4 450.6 M 1360.4 450.6 L 1360.4 463 M 1360.4 463 L 1366.5 469.2 M 1366.5 469.2 L 1378.9 469.2 M 1378.9 469.2 L 1385.1 463 M 1348.2 463 L 1348.2 450.6 M 1348.2 450.6 L 1342 444.5 M 1342 444.5 L 1329.7 444.5 M 1329.7 444.5 L 1323.5 450.6 M 1323.5 450.6 L 1323.5 463 M 1323.5 463 L 1329.7 469.2 M 1329.7 469.2 L 1342 469.2 M 1342 469.2 L 1348.2 463 M 1311.4 456.8 L 1299 469.2 M 1299 469.2 L 1292.9 469.2 M 1311.4 469.2 L 1311.4 444.5 M 1311.4 504.5 L 1299 516.8 M 1299 516.8 L 1286.7 504.5 M 1286.7 504.5 L 1286.7 541.5 M 1274.6 529.2 L 1268.4 529.2 M 1268.4 529.2 L 1268.4 504.5 M 1274.6 504.5 L 1262.2 504.5 M 1250 504.5 L 1250 529.2 M 1250 516.8 L 1237.7 529.2 M 1237.7 529.2 L 1231.5 529.2 M 1219.3 523 L 1219.3 510.6 M 1219.3 510.6 L 1213.1 504.5 M 1213.1 504.5 L 1200.8 504.5 M 1194.6 516.8 L 1219.3 516.8 M 1219.3 523 L 1213.1 529.2 M 1213.1 529.2 L 1200.8 529.2 M 1200.8 529.2 L 1194.6 523 M 1194.6 523 L 1194.6 516.8 M 1145.6 504.5 L 1127.1 504.5 M 1127.1 504.5 L 1121 510.6 M 1121 510.6 L 1121 535.3 M 1121 535.3 L 1127.1 541.5 M 1127.1 541.5 L 1145.6 541.5 M 1145.6 541.5 L 1145.6 504.5 M 1108.8 510.6 L 1102.6 516.8 M 1102.6 516.8 L 1084.1 516.8 M 1084.1 523 L 1084.1 504.5 M 1084.1 504.5 L 1102.6 504.5 M 1102.6 504.5 L 1108.8 510.6 M 1102.6 529.2 L 1090.3 529.2 M 1090.3 529.2 L 1084.1 523 M 1072 529.2 L 1059.6 529.2 M 1065.8 535.3 L 1065.8 510.6 M 1065.8 510.6 L 1059.6 504.5 M 1047.4 510.6 L 1041.3 516.8 M 1041.3 516.8 L 1022.7 516.8 M 1022.7 523 L 1022.7 504.5 M 1022.7 504.5 L 1041.3 504.5 M 1041.3 504.5 L 1047.4 510.6 M 1041.3 529.2 L 1028.9 529.2 M 1028.9 529.2 L 1022.7 523 M 1188.5 684.5 L 1188.5 709.2 M 1188.5 709.2 L 1200.8 721.5 M 1200.8 721.5 L 1213.2 709.2 M 1213.2 709.2 L 1213.2 684.5 M 1213.2 703 L 1188.5 703 M 1305.2 601.5 L 1305.2 564.5 M 1311.4 564.5 L 1299 564.5 M 1323.5 570.6 L 1323.5 583 M 1323.5 583 L 1329.7 589.2 M 1329.7 589.2 L 1342 589.2 M 1342 589.2 L 1348.2 583 M 1348.2 583 L 1348.2 570.6 M 1348.2 570.6 L 1342 564.5 M 1342 564.5 L 1329.7 564.5 M 1329.7 564.5 L 1323.5 570.6 M 1311.4 541.5 L 1311.4 504.5 M 1323.5 516.8 L 1348.2 516.8 M 1348.2 523 L 1342 529.2 M 1342 529.2 L 1329.7 529.2 M 1329.7 529.2 L 1323.5 523 M 1323.5 523 L 1323.5 516.8 M 1329.7 504.5 L 1342 504.5 M 1342 504.5 L 1348.2 510.6 M 1348.2 510.6 L 1348.2 523 M 1360.4 523 L 1360.4 504.5 M 1360.4 523 L 1366.5 529.2 M 1366.5 529.2 L 1385.1 529.2 M 1385.1 529.2 L 1385.1 504.5 M 1470.9 463 L 1495.5 463 M 1544.5 475.3 L 1569.2 450.6 M 1569.2 450.6 L 1569.2 444.5 M 1581.4 450.6 L 1581.4 475.3 M 1581.4 475.3 L 1587.5 481.5 M 1587.5 481.5 L 1606 481.5 M 1606 481.5 L 1606 444.5 M 1606 444.5 L 1587.5 444.5 M 1587.5 444.5 L 1581.4 450.6 M 1569.2 481.5 L 1544.5 481.5 M 1544.5 481.5 L 1544.5 475.3 M 1311.4 601.5 L 1305.2 601.5 M 1268.4 547.7 L 1268.4 541.5 M 1348.2 810.6 L 1342 816.8"/><path stroke-width="0.4" fill="none" d="M 665.2 0.2 L 0.2 0.2"/></g></g><use class="pcb_board-cf" mask="url(#pcb_bottom-cu_finish-mask)" xlink:href="#pcb_bottom-sm"/></g></g></svg>